<?xml version="1.0" encoding="UTF-8" standalone="no"?>
<!-- Created with Inkscape (http://www.inkscape.org/) -->

<svg
   xmlns:dc="http://purl.org/dc/elements/1.1/"
   xmlns:cc="http://creativecommons.org/ns#"
   xmlns:rdf="http://www.w3.org/1999/02/22-rdf-syntax-ns#"
   xmlns:svg="http://www.w3.org/2000/svg"
   xmlns="http://www.w3.org/2000/svg"
   xmlns:sodipodi="http://sodipodi.sourceforge.net/DTD/sodipodi-0.dtd"
   xmlns:inkscape="http://www.inkscape.org/namespaces/inkscape"
   width="211.17305mm"
   height="113.26637mm"
   viewBox="0 0 211.17305 113.26636"
   version="1.1"
   id="svg1403"
   inkscape:version="0.92.5 (2060ec1f9f, 2020-04-08)"
   sodipodi:docname="02_fluktuacije01.svg">
  <defs
     id="defs1397" />
  <sodipodi:namedview
     id="base"
     pagecolor="#ffffff"
     bordercolor="#666666"
     borderopacity="1.0"
     inkscape:pageopacity="0.0"
     inkscape:pageshadow="2"
     inkscape:zoom="2.8284271"
     inkscape:cx="867.13094"
     inkscape:cy="283.77128"
     inkscape:document-units="mm"
     inkscape:current-layer="layer1"
     showgrid="false"
     fit-margin-top="0"
     fit-margin-left="0"
     fit-margin-right="0"
     fit-margin-bottom="0"
     inkscape:window-width="1324"
     inkscape:window-height="998"
     inkscape:window-x="594"
     inkscape:window-y="0"
     inkscape:window-maximized="0"
     showguides="false" />
  <metadata
     id="metadata1400">
    <rdf:RDF>
      <cc:Work
         rdf:about="">
        <dc:format>image/svg+xml</dc:format>
        <dc:type
           rdf:resource="http://purl.org/dc/dcmitype/StillImage" />
        <dc:title></dc:title>
      </cc:Work>
    </rdf:RDF>
  </metadata>
  <g
     inkscape:label="Layer 1"
     inkscape:groupmode="layer"
     id="layer1"
     transform="translate(2.9442822,-2.143709)">
    <polygon
       transform="matrix(0.20969637,0,0,0.21071799,-16.187282,53.043193)"
       style="fill:#000000;fill-rule:evenodd;stroke:none"
       id="polygon3102-4"
       points="1035.43,135.411 1035.34,135.787 1035.2,136.21 1035.04,136.641 1034.74,137.379 1034.6,137.693 1044,135.12 1034.6,132.646 1034.74,132.928 1035.04,133.603 1035.2,134.009 1035.34,134.418 1035.43,134.799 1035.47,135.12 " />
    <g
       id="g2893">
      <g
         transform="translate(0,0.52916663)"
         id="g2363">
        <g
           id="g2094">
          <polyline
             points="104,88.0483 1035.47,88.0483 "
             id="polyline27-9-2"
             style="fill:none;stroke:#000000;stroke-width:2.02430105;stroke-miterlimit:4;stroke-dasharray:none;stroke-opacity:1"
             transform="matrix(0.20969637,0,0,0.20912411,-15.944056,-0.54840387)" />
          <polygon
             points="1034.74,90.3072 1034.6,90.6209 1044,88.0483 1034.6,85.5746 1034.74,85.856 1035.04,86.531 1035.2,86.9369 1035.34,87.3462 1035.43,87.7272 1035.47,88.0483 1035.43,88.3389 1035.34,88.7149 1035.2,89.138 1035.04,89.5698 "
             id="polygon34-1-6"
             style="fill:#000000;fill-rule:evenodd;stroke:none"
             transform="matrix(0.20969637,0,0,0.20912411,-15.944056,-0.54840387)" />
          <polyline
             points="122.8,137 122.8,51.5324 "
             id="polyline48-9-9"
             style="fill:none;stroke:#000000;stroke-width:2.02430105;stroke-miterlimit:4;stroke-dasharray:none;stroke-opacity:1"
             transform="matrix(0.20969637,0,0,0.16417476,-15.944056,1.7224464)" />
          <polygon
             points="123.467,51.6618 123.89,51.8005 124.321,51.9606 125.059,52.2622 125.373,52.4 122.8,43 120.326,52.4 120.608,52.2622 121.283,51.9606 121.689,51.8005 122.098,51.6618 122.479,51.5655 122.8,51.5324 123.091,51.5655 "
             id="polygon55-9-1"
             style="fill:#000000;fill-rule:evenodd;stroke:none"
             transform="matrix(0.20935069,0,0,0.20912568,-15.908105,-0.54848441)" />
          <polyline
             points="123.701,74.4356 124.603,77.0354 125.504,83.8418 126.406,92.2549 127.307,99.0613 128.209,101.661 129.11,99.0613 130.012,92.2549 130.913,83.8418 131.815,77.0354 132.716,74.4356 133.618,77.0354 134.519,83.8418 135.421,92.2549 136.322,99.0613 137.224,101.661 138.125,99.0613 139.027,92.2549 139.928,83.8418 140.83,77.0354 141.731,74.4356 142.633,77.0354 143.534,83.8418 144.436,92.2549 145.337,99.0613 146.239,101.661 147.14,99.0613 148.042,92.2549 148.943,83.8418 149.845,77.0354 150.746,74.4356 151.648,77.0354 152.549,83.8418 153.451,92.2549 154.352,99.0613 155.254,101.661 156.155,99.0613 157.057,92.2549 157.958,83.8418 158.86,77.0354 159.761,74.4356 160.663,77.0354 161.564,83.8418 162.466,92.2549 163.367,99.0613 164.269,101.661 165.17,99.0613 166.072,92.2549 166.973,83.8418 167.875,77.0354 168.776,74.4356 169.678,77.0354 170.579,83.8418 171.481,92.2549 172.382,99.0613 173.284,101.661 174.185,99.0613 175.087,92.2549 175.988,83.8418 176.89,77.0354 177.791,74.4356 178.693,77.0354 179.594,83.8418 180.496,92.2549 181.397,99.0613 182.299,101.661 183.2,99.0613 184.102,92.2549 185.003,83.8418 185.905,77.0354 186.806,74.4356 187.708,77.0354 188.609,83.8418 189.511,92.2549 190.412,99.0613 191.314,101.661 192.215,99.0613 193.117,92.2549 194.018,83.8418 194.92,77.0354 195.821,74.4356 196.723,77.0354 197.624,83.8418 198.526,92.2549 199.427,99.0613 200.329,101.661 201.23,99.0613 202.132,92.2549 203.033,83.8418 203.935,77.0354 204.836,74.4356 205.738,77.0354 206.639,83.8418 207.541,92.2549 208.442,99.0613 209.344,101.661 210.245,99.0613 211.147,92.2549 212.048,83.8418 212.95,77.0354 213.851,74.4356 214.753,77.0354 215.654,83.8418 216.556,92.2549 217.457,99.0613 218.359,101.661 219.26,99.0613 220.162,92.2549 221.063,83.8418 221.965,77.0354 222.866,74.4356 223.768,77.0354 224.669,83.8418 225.571,92.2549 226.472,99.0613 227.374,101.661 228.275,99.0613 229.177,92.2549 230.078,83.8418 230.98,77.0354 231.881,74.4356 232.783,77.0354 233.684,83.8418 234.586,92.2549 235.487,99.0613 236.389,101.661 237.29,99.0613 238.192,92.2549 239.093,83.8418 239.995,77.0354 240.896,74.4356 241.798,77.0354 242.699,83.8418 243.601,92.2549 244.502,99.0613 245.404,101.661 246.305,99.0613 247.207,92.2549 248.108,83.8418 249.01,77.0354 249.911,74.4356 250.813,77.0354 251.714,83.8418 252.616,92.2549 253.517,99.0613 254.419,101.661 255.32,99.0613 256.222,92.2549 257.123,83.8418 258.025,77.0354 258.926,74.4356 259.828,77.0354 260.729,83.8418 261.631,92.2549 262.532,99.0613 263.434,101.661 264.335,99.0613 265.237,92.2549 266.138,83.8418 267.04,77.0354 267.941,74.4356 268.843,77.0354 269.744,83.8418 270.646,92.2549 271.547,99.0613 272.449,101.661 273.35,99.0613 274.252,92.2549 275.153,83.8418 276.055,77.0354 276.956,74.4356 277.858,77.0354 278.759,83.8418 279.661,92.2549 280.562,99.0613 281.464,101.661 282.365,99.0613 283.267,92.2549 284.168,83.8418 285.07,77.0354 285.971,74.4356 286.873,77.0354 287.774,83.8418 288.676,92.2549 289.577,99.0613 290.479,101.661 291.38,99.0613 292.282,92.2549 293.183,83.8418 294.085,77.0354 294.986,74.4356 295.888,77.0354 296.789,83.8418 297.691,92.2549 298.592,99.0613 299.494,101.661 300.395,99.0613 301.297,92.2549 302.198,83.8418 303.1,77.0354 304.001,74.4356 304.903,77.0354 305.804,83.8418 306.706,92.2549 307.607,99.0613 308.509,101.661 309.41,99.0613 310.312,92.2549 311.213,83.8418 312.115,77.0354 313.016,74.4356 313.918,77.0354 314.819,83.8418 315.721,92.2549 316.622,99.0613 317.524,101.661 318.425,99.0613 319.327,92.2549 320.228,83.8418 321.13,77.0354 322.031,74.4356 322.933,77.0354 323.834,83.8418 324.736,92.2549 325.637,99.0613 326.539,101.661 327.44,99.0613 328.342,92.2549 329.243,83.8418 330.145,77.0354 331.046,74.4356 331.948,77.0354 332.849,83.8418 333.751,92.2549 334.652,99.0613 335.554,101.661 336.455,99.0613 337.357,92.2549 338.258,83.8418 339.16,77.0354 340.061,74.4356 340.963,77.0354 341.864,83.8418 342.766,92.2549 343.667,99.0613 344.569,101.661 345.47,99.0613 346.372,92.2549 347.273,83.8418 348.175,77.0354 349.076,74.4356 349.978,77.0354 350.879,83.8418 351.781,92.2549 352.682,99.0613 353.584,101.661 354.485,99.0613 355.387,92.2549 356.288,83.8418 357.19,77.0354 358.091,74.4356 358.993,77.0354 359.894,83.8418 360.796,92.2549 361.697,99.0613 362.599,101.661 363.5,99.0613 364.402,92.2549 365.303,83.8418 366.205,77.0354 367.106,74.4356 368.008,77.0354 368.909,83.8418 369.811,92.2549 370.712,99.0613 371.614,101.661 372.515,99.0613 373.417,92.2549 374.318,83.8418 375.22,77.0354 376.121,74.4356 377.023,77.0354 377.924,83.8418 378.826,92.2549 379.727,99.0613 380.629,101.661 381.53,99.0613 382.432,92.2549 383.333,83.8418 384.235,77.0354 385.136,74.4356 386.038,77.0354 386.939,83.8418 387.841,92.2549 388.742,99.0613 389.644,101.661 390.545,99.0613 391.447,92.2549 392.348,83.8418 393.25,77.0354 394.151,74.4356 395.053,77.0354 395.954,83.8418 396.856,92.2549 397.757,99.0613 398.659,101.661 399.56,99.0613 400.462,92.2549 401.363,83.8418 402.265,77.0354 403.166,74.4356 404.068,77.0354 404.969,83.8418 405.871,92.2549 406.772,99.0613 407.674,101.661 408.575,99.0613 409.477,92.2549 410.378,83.8418 411.28,77.0354 412.181,74.4356 413.083,77.0354 413.984,83.8418 414.886,92.2549 415.787,99.0613 416.689,101.661 417.59,99.0613 418.492,92.2549 419.393,83.8418 420.295,77.0354 421.196,74.4356 422.098,77.0354 422.999,83.8418 423.9,92.2549 424.802,99.0613 425.703,101.661 426.605,99.0613 427.506,92.2549 428.408,83.8418 429.309,77.0354 430.211,74.4356 431.112,77.0354 432.014,83.8418 432.915,92.2549 433.817,99.0613 434.718,101.661 435.62,99.0613 436.521,92.2549 437.423,83.8418 438.324,77.0354 439.226,74.4356 440.127,77.0354 441.029,83.8418 441.93,92.2549 442.832,99.0613 443.733,101.661 444.635,99.0613 445.536,92.2549 446.438,83.8418 447.339,77.0354 448.241,74.4356 449.142,77.0354 450.044,83.8418 450.945,92.2549 451.847,99.0613 452.748,101.661 453.65,99.0613 454.551,92.2549 455.453,83.8418 456.354,77.0354 457.256,74.4356 458.157,77.0354 459.059,83.8418 459.96,92.2549 460.862,99.0613 461.763,101.661 462.665,99.0613 463.566,92.2549 464.468,83.8418 465.369,77.0354 466.271,74.4356 467.172,77.0354 468.074,83.8418 468.975,92.2549 469.877,99.0613 470.778,101.661 471.68,99.0613 472.581,92.2549 473.483,83.8418 474.384,77.0354 475.286,74.4356 476.187,77.0354 477.089,83.8418 477.99,92.2549 478.892,99.0613 479.793,101.661 480.695,99.0613 481.596,92.2549 482.498,83.8418 483.399,77.0354 484.301,74.4356 485.202,77.0354 486.104,83.8418 487.005,92.2549 487.907,99.0613 488.808,101.661 489.71,99.0613 490.611,92.2549 491.513,83.8418 492.414,77.0354 493.316,74.4356 494.217,77.0354 495.119,83.8418 496.02,92.2549 496.922,99.0613 497.823,101.661 498.725,99.0613 499.626,92.2549 500.528,83.8418 501.429,77.0354 502.331,74.4356 503.232,77.0354 504.134,83.8418 505.035,92.2549 505.937,99.0613 506.838,101.661 507.74,99.0613 508.641,92.2549 509.543,83.8418 510.444,77.0354 511.346,74.4356 512.247,77.0354 513.149,83.8418 514.05,92.2549 514.952,99.0613 515.853,101.661 516.755,99.0613 517.656,92.2549 518.558,83.8418 519.459,77.0354 520.361,74.4356 521.262,77.0354 522.164,83.8418 523.065,92.2549 523.967,99.0613 524.868,101.661 525.77,99.0613 526.671,92.2549 527.573,83.8418 528.474,77.0354 529.376,74.4356 530.277,77.0354 531.179,83.8418 532.08,92.2549 532.982,99.0613 533.883,101.661 534.785,99.0613 535.686,92.2549 536.588,83.8418 537.489,77.0354 538.391,74.4356 539.292,77.0354 540.194,83.8418 541.095,92.2549 541.997,99.0613 542.898,101.661 543.8,99.0613 544.701,92.2549 545.603,83.8418 546.504,77.0354 547.406,74.4356 548.307,77.0354 549.209,83.8418 550.11,92.2549 551.012,99.0613 551.913,101.661 552.815,99.0613 553.716,92.2549 554.618,83.8418 555.519,77.0354 556.421,74.4356 557.322,77.0354 558.224,83.8418 559.125,92.2549 560.027,99.0613 560.928,101.661 561.83,99.0613 562.731,92.2549 563.633,83.8418 564.534,77.0354 565.436,74.4356 566.337,77.0354 567.239,83.8418 568.14,92.2549 569.042,99.0613 569.943,101.661 570.845,99.0613 571.746,92.2549 572.648,83.8418 573.549,77.0354 574.451,74.4356 575.352,77.0354 576.254,83.8418 577.155,92.2549 578.057,99.0613 578.958,101.661 579.86,99.0613 580.761,92.2549 581.663,83.8418 582.564,77.0354 583.466,74.4356 584.367,77.0354 585.269,83.8418 586.17,92.2549 587.072,99.0613 587.973,101.661 588.875,99.0613 589.776,92.2549 590.678,83.8418 591.579,77.0354 592.481,74.4356 593.382,77.0354 594.284,83.8418 595.185,92.2549 596.087,99.0613 596.988,101.661 597.89,99.0613 598.791,92.2549 599.693,83.8418 600.594,77.0354 601.496,74.4356 602.397,77.0354 603.299,83.8418 604.2,92.2549 605.102,99.0613 606.003,101.661 606.905,99.0613 607.806,92.2549 608.708,83.8418 609.609,77.0354 610.511,74.4356 611.412,77.0354 612.314,83.8418 613.215,92.2549 614.117,99.0613 615.018,101.661 615.92,99.0613 616.821,92.2549 617.723,83.8418 618.624,77.0354 619.526,74.4356 620.427,77.0354 621.329,83.8418 622.23,92.2549 623.132,99.0613 624.033,101.661 624.935,99.0613 625.836,92.2549 626.738,83.8418 627.639,77.0354 628.541,74.4356 629.442,77.0354 630.344,83.8418 631.245,92.2549 632.147,99.0613 633.048,101.661 633.95,99.0613 634.851,92.2549 635.753,83.8418 636.654,77.0354 637.556,74.4356 638.457,77.0354 639.359,83.8418 640.26,92.2549 641.162,99.0613 642.063,101.661 642.965,99.0613 643.866,92.2549 644.768,83.8418 645.669,77.0354 646.571,74.4356 647.472,77.0354 648.374,83.8418 649.275,92.2549 650.177,99.0613 651.078,101.661 651.98,99.0613 652.881,92.2549 653.783,83.8418 654.684,77.0354 655.586,74.4356 656.487,77.0354 657.389,83.8418 658.29,92.2549 659.192,99.0613 660.093,101.661 660.995,99.0613 661.896,92.2549 662.798,83.8418 663.699,77.0354 664.601,74.4356 665.502,77.0354 666.404,83.8418 667.305,92.2549 668.207,99.0613 669.108,101.661 670.01,99.0613 670.911,92.2549 671.813,83.8418 672.714,77.0354 673.616,74.4356 674.517,77.0354 675.419,83.8418 676.32,92.2549 677.222,99.0613 678.123,101.661 679.025,99.0613 679.926,92.2549 680.828,83.8418 681.729,77.0354 682.631,74.4356 683.532,77.0354 684.434,83.8418 685.335,92.2549 686.237,99.0613 687.138,101.661 688.04,99.0613 688.941,92.2549 689.843,83.8418 690.744,77.0354 691.646,74.4356 692.547,77.0354 693.449,83.8418 694.35,92.2549 695.252,99.0613 696.153,101.661 697.055,99.0613 697.956,92.2549 698.858,83.8418 699.759,77.0354 700.661,74.4356 701.562,77.0354 702.464,83.8418 703.365,92.2549 704.267,99.0613 705.168,101.661 706.07,99.0613 706.971,92.2549 707.873,83.8418 708.774,77.0354 709.676,74.4356 710.577,77.0354 711.479,83.8418 712.38,92.2549 713.282,99.0613 714.183,101.661 715.085,99.0613 715.986,92.2549 716.888,83.8418 717.789,77.0354 718.691,74.4356 719.592,77.0354 720.494,83.8418 721.395,92.2549 722.297,99.0613 723.198,101.661 724.1,99.0613 725.001,92.2549 725.902,83.8418 726.804,77.0354 727.705,74.4356 728.607,77.0354 729.508,83.8418 730.41,92.2549 731.311,99.0613 732.213,101.661 733.114,99.0613 734.016,92.2549 734.917,83.8418 735.819,77.0354 736.72,74.4356 737.622,77.0354 738.523,83.8418 739.425,92.2549 740.326,99.0613 741.228,101.661 742.129,99.0613 743.031,92.2549 743.932,83.8418 744.834,77.0354 745.735,74.4356 746.637,77.0354 747.538,83.8418 748.44,92.2549 749.341,99.0613 750.243,101.661 751.144,99.0613 752.046,92.2549 752.947,83.8418 753.849,77.0354 754.75,74.4356 755.652,77.0354 756.553,83.8418 757.455,92.2549 758.356,99.0613 759.258,101.661 760.159,99.0613 761.061,92.2549 761.962,83.8418 762.864,77.0354 763.765,74.4356 764.667,77.0354 765.568,83.8418 766.47,92.2549 767.371,99.0613 768.273,101.661 769.174,99.0613 770.076,92.2549 770.977,83.8418 771.879,77.0354 772.78,74.4356 773.682,77.0354 774.583,83.8418 775.485,92.2549 776.386,99.0613 777.288,101.661 778.189,99.0613 779.091,92.2549 779.992,83.8418 780.894,77.0354 781.795,74.4356 782.697,77.0354 783.598,83.8418 784.5,92.2549 785.401,99.0613 786.303,101.661 787.204,99.0613 788.106,92.2549 789.007,83.8418 789.909,77.0354 790.81,74.4356 791.712,77.0354 792.613,83.8418 793.515,92.2549 794.416,99.0613 795.318,101.661 796.219,99.0613 797.121,92.2549 798.022,83.8418 798.924,77.0354 799.825,74.4356 800.727,77.0354 801.628,83.8418 802.53,92.2549 803.431,99.0613 804.333,101.661 805.234,99.0613 806.136,92.2549 807.037,83.8418 807.939,77.0354 808.84,74.4356 809.742,77.0354 810.643,83.8418 811.545,92.2549 812.446,99.0613 813.348,101.661 814.249,99.0613 815.151,92.2549 816.052,83.8418 816.954,77.0354 817.855,74.4356 818.757,77.0354 819.658,83.8418 820.56,92.2549 821.461,99.0613 822.363,101.661 823.264,99.0613 824.166,92.2549 825.067,83.8418 825.969,77.0354 826.87,74.4356 827.772,77.0354 828.673,83.8418 829.575,92.2549 830.476,99.0613 831.378,101.661 832.279,99.0613 833.181,92.2549 834.082,83.8418 834.984,77.0354 835.885,74.4356 836.787,77.0354 837.688,83.8418 838.59,92.2549 839.491,99.0613 840.393,101.661 841.294,99.0613 842.196,92.2549 843.097,83.8418 843.999,77.0354 844.9,74.4356 845.802,77.0354 846.703,83.8418 847.605,92.2549 848.506,99.0613 849.408,101.661 850.309,99.0613 851.211,92.2549 852.112,83.8418 853.014,77.0354 853.915,74.4356 854.817,77.0354 855.718,83.8418 856.62,92.2549 857.521,99.0613 858.423,101.661 859.324,99.0613 860.226,92.2549 861.127,83.8418 862.029,77.0354 862.93,74.4356 863.832,77.0354 864.733,83.8418 865.635,92.2549 866.536,99.0613 867.438,101.661 868.339,99.0613 869.241,92.2549 870.142,83.8418 871.044,77.0354 871.945,74.4356 872.847,77.0354 873.748,83.8418 874.65,92.2549 875.551,99.0613 876.453,101.661 877.354,99.0613 878.256,92.2549 879.157,83.8418 880.059,77.0354 880.96,74.4356 881.862,77.0354 882.763,83.8418 883.665,92.2549 884.566,99.0613 885.468,101.661 886.369,99.0613 887.271,92.2549 888.172,83.8418 889.074,77.0354 889.975,74.4356 890.877,77.0354 891.778,83.8418 892.68,92.2549 893.581,99.0613 894.483,101.661 895.384,99.0613 896.286,92.2549 897.187,83.8418 898.089,77.0354 898.99,74.4356 899.892,77.0354 900.793,83.8418 901.695,92.2549 902.596,99.0613 903.498,101.661 904.399,99.0613 905.301,92.2549 906.202,83.8418 907.104,77.0354 908.005,74.4356 908.907,77.0354 909.808,83.8418 910.71,92.2549 911.611,99.0613 912.513,101.661 913.414,99.0613 914.316,92.2549 915.217,83.8418 916.119,77.0354 917.02,74.4356 917.922,77.0354 918.823,83.8418 919.725,92.2549 920.626,99.0613 921.528,101.661 922.429,99.0613 923.331,92.2549 924.232,83.8418 925.134,77.0354 926.035,74.4356 926.937,77.0354 927.838,83.8418 928.74,92.2549 929.641,99.0613 930.543,101.661 931.444,99.0613 932.346,92.2549 933.247,83.8418 934.149,77.0354 935.05,74.4356 935.952,77.0354 936.853,83.8418 937.755,92.2549 938.656,99.0613 939.558,101.661 940.459,99.0613 941.361,92.2549 942.262,83.8418 943.164,77.0354 944.065,74.4356 944.967,77.0354 945.868,83.8418 946.77,92.2549 947.671,99.0613 948.573,101.661 949.474,99.0613 950.376,92.2549 951.277,83.8418 952.179,77.0354 953.08,74.4356 953.982,77.0354 954.883,83.8418 955.785,92.2549 956.686,99.0613 957.588,101.661 958.489,99.0613 959.391,92.2549 960.292,83.8418 961.194,77.0354 962.095,74.4356 962.997,77.0354 963.898,83.8418 964.8,92.2549 965.701,99.0613 966.603,101.661 967.504,99.0613 968.406,92.2549 969.307,83.8418 970.209,77.0354 971.11,74.4356 972.012,77.0354 972.913,83.8418 973.815,92.2549 974.716,99.0613 975.618,101.661 976.519,99.0613 977.421,92.2549 978.322,83.8418 979.224,77.0354 980.125,74.4356 981.027,77.0354 981.928,83.8418 982.83,92.2549 983.731,99.0613 984.633,101.661 985.534,99.0613 986.436,92.2549 987.337,83.8418 988.239,77.0354 989.14,74.4356 990.042,77.0354 990.943,83.8418 991.845,92.2549 992.746,99.0613 993.648,101.661 994.549,99.0613 995.451,92.2549 996.352,83.8418 997.254,77.0354 998.155,74.4356 999.057,77.0354 999.958,83.8418 1000.86,92.2549 1001.76,99.0613 1002.66,101.661 1003.56,99.0613 1004.47,92.2549 1005.37,83.8418 1006.27,77.0354 1007.17,74.4356 1008.07,77.0354 1008.97,83.8418 1009.87,92.2549 1010.78,99.0613 1011.68,101.661 1012.58,99.0613 1013.48,92.2549 1014.38,83.8418 1015.28,77.0354 1016.19,74.4356 1017.09,77.0354 1017.99,83.8418 1018.89,92.2549 1019.79,99.0613 1020.69,101.661 1021.59,99.0613 1022.5,92.2549 1023.4,83.8418 1024.3,77.0354 1025.2,74.4356 "
             id="polyline18-9"
             style="fill:none;stroke:#d40000;stroke-width:2.02430105;stroke-linecap:round;stroke-linejoin:round;stroke-miterlimit:4;stroke-dasharray:none;stroke-opacity:1"
             transform="matrix(0.20969637,0,0,0.45097854,-15.944056,-21.960593)" />
        </g>
      </g>
      <g
         id="g2691">
        <g
           id="g2672">
          <polyline
             points="122.8,116.528 131.648,116.528 140.495,116.528 159.679,116.528 177.591,116.528 195.152,116.528 214.202,116.528 231.98,116.528 251.246,116.528 270.161,116.528 287.805,116.528 306.938,116.528 324.799,116.528 342.309,116.528 361.307,116.528 379.034,116.528 398.249,116.528 417.113,116.528 434.705,116.528 453.787,116.528 471.596,116.528 490.895,116.528 509.841,116.528 527.517,116.528 546.681,116.528 564.574,116.528 582.115,116.528 601.145,116.528 618.904,116.528 638.151,116.528 657.046,116.528 674.671,116.528 693.783,116.528 711.625,116.528 729.115,116.528 748.094,116.528 765.801,116.528 784.997,116.528 802.921,116.528 820.494,116.528 839.556,116.528 857.346,116.528 876.624,116.528 895.552,116.528 913.208,116.528 932.352,116.528 950.225,116.528 967.747,116.528 986.757,116.528 1004.5,116.528 1014.4,116.528 1024.3,116.528 "
             id="polyline3061-8"
             style="fill:none;stroke:#d40000;stroke-width:2.00900435;stroke-miterlimit:4;stroke-dasharray:none;stroke-opacity:1"
             transform="matrix(0.20969637,0,0,0.21071799,-16.187282,48.280693)" />
          <g
             id="g2664">
            <polyline
               transform="matrix(0.20969637,0,0,0.21071799,-16.187282,53.043193)"
               style="fill:none;stroke:#000000;stroke-width:2.00900435;stroke-miterlimit:4;stroke-dasharray:none;stroke-opacity:1"
               id="polyline3095-9"
               points="104,135.12 1035.47,135.12 " />
            <g
               id="g2658">
              <polyline
                 points="122.8,137 122.8,51.5324 "
                 id="polyline3116-6"
                 style="fill:none;stroke:#000000;stroke-width:2.00900435;stroke-miterlimit:4;stroke-dasharray:none;stroke-opacity:1"
                 transform="matrix(0.20969637,0,0,0.21071799,-16.187282,53.043193)" />
              <polygon
                 points="120.608,52.2622 121.283,51.9606 121.689,51.8005 122.098,51.6618 122.479,51.5655 122.8,51.5324 123.091,51.5655 123.467,51.6618 123.89,51.8005 124.321,51.9606 125.059,52.2622 125.373,52.4 122.8,43 120.326,52.4 "
                 id="polygon3123-3"
                 style="fill:#000000;fill-rule:evenodd;stroke:none"
                 transform="matrix(0.20969637,0,0,0.21071799,-16.187282,53.043193)" />
            </g>
          </g>
        </g>
        <g
           id="g2197"
           transform="translate(0,0.52916663)">
          <polyline
             points="464.887,53.904 537.972,53.904 "
             id="polyline3063"
             style="fill:none;stroke:#000000;stroke-width:2.00900435;stroke-miterlimit:4;stroke-dasharray:none;stroke-opacity:1"
             transform="matrix(0.20969637,0,0,0.21071799,-16.284172,83.231025)" />
          <polygon
             points="465.617,51.6451 465.754,51.3314 456.354,53.904 465.754,56.3777 465.617,56.0964 465.315,55.4213 465.155,55.0155 465.016,54.6061 464.92,54.2251 464.887,53.904 464.92,53.6134 465.016,53.2374 465.155,52.8144 465.315,52.3825 "
             id="polygon3070"
             style="fill:#000000;fill-rule:evenodd;stroke:none"
             transform="matrix(0.20969637,0,0,0.21071799,-16.284172,83.231025)" />
          <polygon
             points="537.242,56.1629 537.104,56.4766 546.504,53.904 537.104,51.4303 537.242,51.7116 537.544,52.3867 537.704,52.7925 537.842,53.2019 537.939,53.5829 537.972,53.904 537.939,54.1946 537.842,54.5706 537.704,54.9936 537.544,55.4255 "
             id="polygon3072"
             style="fill:#000000;fill-rule:evenodd;stroke:none"
             transform="matrix(0.20969637,0,0,0.21071799,-16.284172,83.231025)" />
          <polyline
             points="123.701,122.318 124.603,122.362 125.504,122.344 126.406,122.327 127.307,122.279 128.209,122.347 129.11,122.4 130.012,122.422 130.913,122.396 131.815,122.371 132.716,122.33 133.618,122.311 134.519,122.303 135.421,122.289 136.322,122.299 137.224,122.269 138.125,122.304 139.027,122.331 139.928,122.345 140.83,122.352 141.731,122.369 142.633,122.37 143.534,122.352 144.436,122.334 145.337,122.303 146.239,122.272 147.14,122.254 148.042,122.253 148.943,122.171 149.845,122.089 150.746,122.007 151.648,121.918 152.549,121.82 153.451,121.664 154.352,121.556 155.254,121.382 156.155,121.293 157.057,121.244 157.958,121.156 158.86,121.068 159.761,120.952 160.663,120.787 161.564,120.623 162.466,120.485 163.367,120.392 164.269,120.332 165.17,120.339 166.072,120.33 166.973,120.326 167.875,120.321 168.776,120.296 169.678,120.235 170.579,120.218 171.481,120.284 172.382,120.352 173.284,120.43 174.185,120.438 175.087,120.404 175.988,120.438 176.89,120.49 177.791,120.533 178.693,120.631 179.594,120.729 180.496,120.847 181.397,120.938 182.299,120.873 183.2,120.775 184.102,120.745 185.003,120.704 185.905,120.687 186.806,120.677 187.708,120.671 188.609,120.591 189.511,120.512 190.412,120.359 191.314,120.209 192.215,120.129 193.117,120.044 194.018,119.917 194.92,119.781 195.821,119.707 196.723,119.607 197.624,119.479 198.526,119.362 199.427,119.266 200.329,119.12 201.23,118.979 202.132,118.838 203.033,118.697 203.935,118.61 204.836,118.506 205.738,118.401 206.639,118.319 207.541,118.246 208.442,118.169 209.344,118.114 210.245,118.064 211.147,118.015 212.048,117.998 212.95,117.982 213.851,117.965 214.753,118.006 215.654,118.047 216.556,118.074 217.457,118.127 218.359,118.143 219.26,118.064 220.162,117.942 221.063,117.829 221.965,117.671 222.866,117.579 223.768,117.465 224.669,117.388 225.571,117.312 226.472,117.163 227.374,117.046 228.275,116.839 229.177,116.641 230.078,116.475 230.98,116.357 231.881,116.241 232.783,116.182 233.684,116.108 234.586,116.097 235.487,116.108 236.389,116.077 237.29,116.067 238.192,116.069 239.093,116.164 239.995,116.259 240.896,116.354 241.798,116.476 242.699,116.598 243.601,116.779 244.502,116.958 245.404,117.204 246.305,117.408 247.207,117.61 248.108,117.847 249.01,118.061 249.911,118.303 250.813,118.516 251.714,118.728 252.616,118.933 253.517,119.124 254.419,119.305 255.32,119.481 256.222,119.604 257.123,119.729 258.025,119.854 258.926,119.984 259.828,120.114 260.729,120.305 261.631,120.424 262.532,120.515 263.434,120.673 264.335,120.9 265.237,121.128 266.138,121.352 267.04,121.555 267.941,121.789 268.843,121.919 269.744,122.062 270.646,122.204 271.547,122.344 272.449,122.56 273.35,122.757 274.252,122.968 275.153,123.179 276.055,123.411 276.956,123.634 277.858,123.862 278.759,124.136 279.661,124.331 280.562,124.515 281.464,124.7 282.365,124.863 283.267,124.991 284.168,125.109 285.07,125.236 285.971,125.346 286.873,125.455 287.774,125.565 288.676,125.674 289.577,125.825 290.479,126.022 291.38,126.224 292.282,126.427 293.183,126.619 294.085,126.764 294.986,126.911 295.888,127.05 296.789,127.142 297.691,127.175 298.592,127.166 299.494,127.188 300.395,127.184 301.297,127.177 302.198,127.17 303.1,127.162 304.001,127.206 304.903,127.199 305.804,127.155 306.706,127.073 307.607,126.965 308.509,126.858 309.41,126.859 310.312,126.89 311.213,126.908 312.115,126.972 313.016,127.001 313.918,127.03 314.819,127.022 315.721,127.019 316.622,127.083 317.524,127.109 318.425,127.161 319.327,127.212 320.228,127.293 321.13,127.304 322.031,127.352 322.933,127.364 323.834,127.39 324.736,127.369 325.637,127.35 326.539,127.371 327.44,127.38 328.342,127.376 329.243,127.372 330.145,127.368 331.046,127.365 331.948,127.345 332.849,127.365 333.751,127.355 334.652,127.348 335.554,127.333 336.455,127.304 337.357,127.275 338.258,127.252 339.16,127.25 340.061,127.224 340.963,127.263 341.864,127.314 342.766,127.374 343.667,127.389 344.569,127.384 345.47,127.328 346.372,127.286 347.273,127.243 348.175,127.245 349.076,127.218 349.978,127.191 350.879,127.175 351.781,127.171 352.682,127.164 353.584,127.144 354.485,127.105 355.387,127.089 356.288,127.074 357.19,127.061 358.091,127.026 358.993,126.991 359.894,126.944 360.796,126.841 361.697,126.733 362.599,126.625 363.5,126.534 364.402,126.416 365.303,126.298 366.205,126.224 367.106,126.158 368.008,126.116 368.909,126.076 369.811,126.108 370.712,126.152 371.614,126.158 372.515,126.103 373.417,126.037 374.318,125.98 375.22,125.933 376.121,125.837 377.023,125.741 377.924,125.69 378.826,125.638 379.727,125.546 380.629,125.457 381.53,125.351 382.432,125.232 383.333,125.123 384.235,125.005 385.136,124.924 386.038,124.861 386.939,124.82 387.841,124.803 388.742,124.828 389.644,124.853 390.545,124.872 391.447,124.917 392.348,124.945 393.25,125.034 394.151,125.035 395.053,125.083 395.954,125.166 396.856,125.3 397.757,125.435 398.659,125.564 399.56,125.667 400.462,125.767 401.363,125.821 402.265,125.876 403.166,125.93 404.068,125.996 404.969,125.992 405.871,125.988 406.772,125.993 407.674,125.93 408.575,125.868 409.477,125.806 410.378,125.674 411.28,125.492 412.181,125.266 413.083,125.021 413.984,124.771 414.886,124.478 415.787,124.179 416.689,123.886 417.59,123.516 418.492,123.144 419.393,122.829 420.295,122.574 421.196,122.318 422.098,122.148 422.999,121.939 423.9,121.735 424.802,121.512 425.703,121.309 426.605,121.031 427.506,120.686 428.408,120.31 429.309,119.968 430.211,119.63 431.112,119.271 432.014,118.906 432.915,118.507 433.817,118.106 434.718,117.703 435.62,117.312 436.521,116.986 437.423,116.733 438.324,116.435 439.226,116.095 440.127,115.755 441.029,115.358 441.93,114.889 442.832,114.423 443.733,113.97 444.635,113.614 445.536,113.134 446.438,112.67 447.339,112.207 448.241,111.833 449.142,111.529 450.044,111.225 450.945,110.978 451.847,110.686 452.748,110.395 453.65,110.104 454.551,109.903 455.453,109.633 456.354,109.327 457.256,108.985 458.157,108.601 459.059,108.318 459.96,107.984 460.862,107.619 461.763,107.285 462.665,106.94 463.566,106.607 464.468,106.274 465.369,105.926 466.271,105.658 467.172,105.362 468.074,105.022 468.975,104.681 469.877,104.274 470.778,103.883 471.68,103.503 472.581,103.135 473.483,102.615 474.384,102.099 475.286,101.643 476.187,101.177 477.089,100.541 477.99,100.06 478.892,99.5668 479.793,99.023 480.695,98.5055 481.596,97.9658 482.498,97.442 483.399,96.8894 484.301,96.3932 485.202,95.8506 486.104,95.3168 487.005,94.7829 487.907,94.2759 488.808,93.8001 489.71,93.3024 490.611,92.9344 491.513,92.6001 492.414,92.372 493.316,92.1882 494.217,91.9976 495.119,91.9118 496.02,91.7861 496.922,91.6604 497.823,91.6035 498.725,91.5353 499.626,91.5355 500.528,91.576 501.429,91.6856 502.331,91.7361 503.232,91.8421 504.134,91.9527 505.035,92.1028 505.937,92.2477 506.838,92.4038 507.74,92.6688 508.641,92.9759 509.543,93.2266 510.444,93.4178 511.346,93.6295 512.247,93.7714 513.149,93.9133 514.05,94.0795 514.952,94.2638 515.853,94.4618 516.755,94.7334 517.656,95.1093 518.558,95.5169 519.459,95.8609 520.361,96.2256 521.262,96.5434 522.164,96.8125 523.065,97.0867 523.967,97.3695 524.868,97.6426 525.77,97.915 526.671,98.1431 527.573,98.2977 528.474,98.4523 529.376,98.659 530.277,98.8416 531.179,99.0488 532.08,99.3324 532.982,99.6159 533.883,99.9427 534.785,100.191 535.686,100.574 536.588,100.949 537.489,101.325 538.391,101.613 539.292,101.796 540.194,101.98 541.095,102.163 541.997,102.353 542.898,102.555 543.8,102.759 544.701,102.892 545.603,103.003 546.504,103.114 547.406,103.263 548.307,103.426 549.209,103.513 550.11,103.658 551.012,103.904 551.913,104.054 552.815,104.13 553.716,104.331 554.618,104.531 555.519,104.731 556.421,104.914 557.322,105.114 558.224,105.271 559.125,105.39 560.027,105.576 560.928,105.747 561.83,105.918 562.731,106.09 563.633,106.466 564.534,106.866 565.436,107.166 566.337,107.467 567.239,107.97 568.14,108.318 569.042,108.68 569.943,109.162 570.845,109.649 571.746,110.175 572.648,110.701 573.549,111.23 574.451,111.741 575.352,112.22 576.254,112.726 577.155,113.23 578.057,113.708 578.958,114.159 579.86,114.624 580.761,114.962 581.663,115.325 582.564,115.55 583.466,115.714 584.367,115.904 585.269,116.054 586.17,116.245 587.072,116.435 587.973,116.668 588.875,116.938 589.776,117.1 590.678,117.183 591.579,117.268 592.481,117.28 593.382,117.188 594.284,117.096 595.185,116.992 596.087,116.888 596.988,116.803 597.89,116.716 598.791,116.549 599.693,116.382 600.594,116.215 601.496,116.031 602.397,115.848 603.299,115.822 604.2,115.796 605.102,115.704 606.003,115.572 606.905,115.516 607.806,115.424 608.708,115.332 609.609,115.251 610.511,115.168 611.412,115.13 612.314,115.137 613.215,115.227 614.117,115.316 615.018,115.388 615.92,115.433 616.821,115.47 617.723,115.557 618.624,115.643 619.526,115.749 620.427,115.847 621.329,115.873 622.23,115.899 623.132,115.925 624.033,115.977 624.935,116.081 625.836,116.152 626.738,116.214 627.639,116.221 628.541,116.185 629.442,116.184 630.344,116.184 631.245,116.168 632.147,116.252 633.048,116.403 633.95,116.566 634.851,116.713 635.753,116.948 636.654,117.183 637.556,117.369 638.457,117.565 639.359,117.732 640.26,117.901 641.162,117.999 642.063,118.164 642.965,118.465 643.866,118.641 644.768,118.843 645.669,119.066 646.571,119.241 647.472,119.427 648.374,119.659 649.275,119.928 650.177,120.183 651.078,120.437 651.98,120.643 652.881,120.85 653.783,121.005 654.684,121.177 655.586,121.349 656.487,121.496 657.389,121.613 658.29,121.727 659.192,121.833 660.093,121.868 660.995,121.825 661.896,121.753 662.798,121.679 663.699,121.571 664.601,121.463 665.502,121.388 666.404,121.299 667.305,121.179 668.207,121.08 669.108,120.976 670.01,120.798 670.911,120.585 671.813,120.338 672.714,120.122 673.616,119.923 674.517,119.647 675.419,119.375 676.32,119.118 677.222,118.957 678.123,118.754 679.025,118.527 679.926,118.357 680.828,118.207 681.729,118.111 682.631,118.124 683.532,118.218 684.434,118.283 685.335,118.377 686.237,118.537 687.138,118.664 688.04,118.747 688.941,118.886 689.843,119.026 690.744,119.165 691.646,119.301 692.547,119.478 693.449,119.496 694.35,119.515 695.252,119.6 696.153,119.711 697.055,119.745 697.956,119.812 698.858,119.848 699.759,119.903 700.661,119.969 701.562,120.034 702.464,120.097 703.365,120.078 704.267,120.059 705.168,120.066 706.07,120.13 706.971,120.164 707.873,120.128 708.774,120.021 709.676,119.882 710.577,119.773 711.479,119.665 712.38,119.552 713.282,119.33 714.183,119.094 715.085,118.711 715.986,118.435 716.888,118.141 717.789,117.902 718.691,117.609 719.592,117.316 720.494,117.083 721.395,116.818 722.297,116.598 723.198,116.397 724.1,116.182 725.001,115.967 725.902,115.65 726.804,115.34 727.705,115.02 728.607,114.577 729.508,114.085 730.41,113.59 731.311,113.053 732.213,112.517 733.114,111.87 734.016,111.223 734.917,110.637 735.819,110.104 736.72,109.505 737.622,108.907 738.523,108.306 739.425,107.536 740.326,106.684 741.228,105.791 742.129,104.947 743.031,104.102 743.932,103.368 744.834,102.594 745.735,101.82 746.637,101.249 747.538,100.613 748.44,100.112 749.341,99.5627 750.243,99.0629 751.144,98.6346 752.046,98.1963 752.947,97.7679 753.849,97.3441 754.75,96.9945 755.652,96.6443 756.553,96.2522 757.455,95.9028 758.356,95.5326 759.258,95.1265 760.159,94.9312 761.061,94.7713 761.962,94.6449 762.864,94.5191 763.765,94.3115 764.667,94.0396 765.568,93.783 766.47,93.5675 767.371,93.2373 768.273,92.9072 769.174,92.577 770.076,92.2529 770.977,92.0199 771.879,91.8939 772.78,91.7929 773.682,91.7002 774.583,91.6358 775.485,91.57 776.386,91.4931 777.288,91.4221 778.189,91.3932 779.091,91.4039 779.992,91.3927 780.894,91.3102 781.795,91.2949 782.697,91.2342 783.598,91.1735 784.5,91.1128 785.401,91.0391 786.303,90.9654 787.204,90.8918 788.106,90.7798 789.007,90.7156 789.909,90.6514 790.81,90.5856 791.712,90.5679 792.613,90.5531 793.515,90.5349 794.416,90.4974 795.318,90.4599 796.219,90.393 797.121,90.3278 798.022,90.2837 798.924,90.3102 799.825,90.3726 800.727,90.4148 801.628,90.5519 802.53,90.6866 803.431,90.8254 804.333,90.9096 805.234,91.0888 806.136,91.1554 807.037,91.3172 807.939,91.3799 808.84,91.5582 809.742,91.7366 810.643,91.7668 811.545,91.9677 812.446,92.0668 813.348,92.0658 814.249,92.0648 815.151,92.0829 816.052,92.224 816.954,92.3585 817.855,92.5649 818.757,92.8864 819.658,93.2828 820.56,93.5453 821.461,93.9128 822.363,94.2952 823.264,94.7598 824.166,95.2075 825.067,95.6372 825.969,96.0211 826.87,96.3768 827.772,96.7325 828.673,97.0881 829.575,97.6138 830.476,98.1935 831.378,98.8151 832.279,99.3952 833.181,100.006 834.082,100.503 834.984,101.12 835.885,101.738 836.787,102.171 837.688,102.7 838.59,103.123 839.491,103.6 840.393,103.919 841.294,104.244 842.196,104.569 843.097,104.887 843.999,105.204 844.9,105.446 845.802,105.738 846.703,106.121 847.605,106.493 848.506,106.866 849.408,107.279 850.309,107.615 851.211,107.902 852.112,108.096 853.014,108.268 853.915,108.604 854.817,109.16 855.718,109.717 856.62,110.155 857.521,110.613 858.423,111.07 859.324,111.516 860.226,111.941 861.127,112.225 862.029,112.334 862.93,112.412 863.832,112.429 864.733,112.447 865.635,112.423 866.536,112.345 867.438,112.31 868.339,112.243 869.241,112.117 870.142,112.013 871.044,111.98 871.945,111.883 872.847,111.884 873.748,111.884 874.65,111.884 875.551,111.922 876.453,111.985 877.354,112.083 878.256,112.172 879.157,112.205 880.059,112.213 880.96,112.214 881.862,112.166 882.763,112.119 883.665,112.1 884.566,112.1 885.468,112.151 886.369,112.255 887.271,112.375 888.172,112.483 889.074,112.591 889.975,112.697 890.877,112.795 891.778,112.91 892.68,113.024 893.581,113.228 894.483,113.431 895.384,113.637 896.286,113.847 897.187,113.934 898.089,114.056 898.99,114.177 899.892,114.33 900.793,114.561 901.695,114.668 902.596,114.63 903.498,114.593 904.399,114.487 905.301,114.325 906.202,114.14 907.104,113.926 908.005,113.646 908.907,113.292 909.808,112.964 910.71,112.833 911.611,112.677 912.513,112.318 913.414,111.954 914.316,111.607 915.217,111.191 916.119,110.878 917.02,110.697 917.922,110.461 918.823,110.22 919.725,109.979 920.626,109.778 921.528,109.58 922.429,109.437 923.331,109.244 924.232,109.099 925.134,108.803 926.035,108.508 926.937,108.218 927.838,107.938 928.74,107.622 929.641,107.309 930.543,107.104 931.444,106.954 932.346,106.907 933.247,106.735 934.149,106.514 935.05,106.223 935.952,105.964 936.853,105.681 937.755,105.399 938.656,105.117 939.558,104.835 940.459,104.504 941.361,104.221 942.262,104.063 943.164,104 944.065,103.87 944.967,103.564 945.868,103.24 946.77,103.049 947.671,102.857 948.573,102.665 949.474,102.484 950.376,102.294 951.277,102.175 952.179,102.04 953.08,101.913 953.982,101.802 954.883,101.691 955.785,101.569 956.686,101.387 957.588,101.151 958.489,100.948 959.391,100.746 960.292,100.644 961.194,100.541 962.095,100.436 962.997,100.238 963.898,100.1 964.8,99.9616 965.701,99.798 966.603,99.6103 967.504,99.3074 968.406,99.0196 969.307,98.7697 970.209,98.5446 971.11,98.3212 972.012,98.1323 972.913,98.0197 973.815,97.9071 974.716,97.7832 975.618,97.6081 976.519,97.4096 977.421,97.2111 978.322,97.0237 979.224,96.8674 980.125,96.7125 981.027,96.6481 981.928,96.4867 982.83,96.3253 983.731,96.1136 984.633,95.982 985.534,95.8352 986.436,95.6884 987.337,95.5749 988.239,95.4634 989.14,95.4247 990.042,95.354 990.943,95.2954 991.845,95.2368 992.746,95.3418 993.648,95.4032 994.549,95.5323 995.451,95.6547 996.352,95.7828 997.254,96.0211 998.155,96.2844 999.057,96.6179 999.958,96.8365 1000.86,96.9917 1001.76,97.1197 1002.66,97.5112 1003.56,97.8814 1004.47,98.2017 1005.37,98.522 1006.27,98.7035 1007.17,98.8481 1008.07,99.1377 1008.97,99.3126 1009.87,99.5541 1010.78,99.7873 1011.68,100.008 1012.58,100.214 1013.48,100.44 1014.38,100.59 1015.28,100.817 1016.19,101.044 1017.09,101.223 1017.99,101.36 1018.89,101.508 1019.79,101.619 1020.69,101.707 1021.59,101.733 1022.5,101.656 1023.4,101.8 1024.3,101.991 1025.2,102.252 "
             id="polyline3086"
             style="fill:none;stroke:#0000d4;stroke-width:1.47326982;stroke-linecap:butt;stroke-miterlimit:4;stroke-dasharray:5.89307913, 1.47326978;stroke-dashoffset:0;stroke-opacity:1"
             transform="matrix(0.20964775,0,0,0.25890964,-16.256242,77.256051)" />
          <polyline
             points="104,135.12 1035.47,135.12 "
             id="polyline3095"
             style="fill:none;stroke:#000000;stroke-width:2.00900435;stroke-miterlimit:4;stroke-dasharray:none;stroke-opacity:1"
             transform="matrix(0.20969637,0,0,0.21071799,-16.284172,83.231025)" />
          <polygon
             points="1034.74,137.379 1034.6,137.693 1044,135.12 1034.6,132.646 1034.74,132.928 1035.04,133.603 1035.2,134.009 1035.34,134.418 1035.43,134.799 1035.47,135.12 1035.43,135.411 1035.34,135.787 1035.2,136.21 1035.04,136.641 "
             id="polygon3102"
             style="fill:#000000;fill-rule:evenodd;stroke:none"
             transform="matrix(0.20969637,0,0,0.21071799,-16.284172,83.231025)" />
          <polyline
             points="122.8,137 122.8,51.5324 "
             id="polyline3116"
             style="fill:none;stroke:#000000;stroke-width:2.00900435;stroke-miterlimit:4;stroke-dasharray:none;stroke-opacity:1"
             transform="matrix(0.20969637,0,0,0.21071799,-16.284172,83.231025)" />
          <polygon
             points="125.059,52.2622 125.373,52.4 122.8,43 120.326,52.4 120.608,52.2622 121.283,51.9606 121.689,51.8005 122.098,51.6618 122.479,51.5655 122.8,51.5324 123.091,51.5655 123.467,51.6618 123.89,51.8005 124.321,51.9606 "
             id="polygon3123"
             style="fill:#000000;fill-rule:evenodd;stroke:none"
             transform="matrix(0.20969637,0,0,0.21071799,-16.284172,83.231025)" />
          <polyline
             transform="matrix(0.21066914,0,0,0.25890964,-16.362355,77.256048)"
             style="fill:none;stroke:#0000d4;stroke-width:2.00900435;stroke-linecap:round;stroke-linejoin:round;stroke-miterlimit:4;stroke-dasharray:none;stroke-opacity:1"
             id="polyline3088"
             points="123.701,113.492 124.603,114.359 125.504,113.695 126.406,113.005 127.307,111.813 128.209,109.208 129.11,107.883 130.012,106.542 130.913,105.529 131.815,105.603 132.716,105.402 133.618,104.999 134.519,106.68 135.421,108.828 136.322,110.508 137.224,111.666 138.125,112.079 139.027,112.773 139.928,113.03 140.83,112.112 141.731,110.728 142.633,111.137 143.534,111.887 144.436,113.383 145.337,115.43 146.239,118.128 147.14,120.832 148.042,123.366 148.943,125.222 149.845,126.987 150.746,128.595 151.648,129.351 152.549,129.491 153.451,129.56 154.352,129.799 155.254,129.683 156.155,129.157 157.057,129.029 157.958,129.195 158.86,129.365 159.761,129.999 160.663,130.66 161.564,130.551 162.466,130.443 163.367,130.094 164.269,129.274 165.17,128.453 166.072,127.199 166.973,125.813 167.875,125.197 168.776,124.598 169.678,124 170.579,124.395 171.481,124.88 172.382,125.607 173.284,126.312 174.185,127.016 175.087,127.25 175.988,127.795 176.89,127.818 177.791,127.655 178.693,127.289 179.594,127.051 180.496,127.751 181.397,128.778 182.299,129.531 183.2,130.187 184.102,130.94 185.003,131.693 185.905,132.448 186.806,132.266 187.708,132.022 188.609,131.74 189.511,131.555 190.412,131.37 191.314,129.871 192.215,128.368 193.117,126.853 194.018,125.152 194.92,123.436 195.821,120.889 196.723,118.342 197.624,115.97 198.526,114.434 199.427,112.91 200.329,111.204 201.23,109.512 202.132,108.244 203.033,106.765 203.935,106.424 204.836,105.248 205.738,104.834 206.639,105.45 207.541,106.272 208.442,108.051 209.344,110.041 210.245,112.032 211.147,113.956 212.048,115.119 212.95,115.148 213.851,115.869 214.753,116.444 215.654,116.059 216.556,114.68 217.457,113.367 218.359,112.105 219.26,111.768 220.162,110.099 221.063,109.506 221.965,109.873 222.866,111.234 223.768,112.627 224.669,112.891 225.571,112.89 226.472,113.542 227.374,112.714 228.275,111.473 229.177,110.355 230.078,109.206 230.98,108.088 231.881,106.97 232.783,105.625 233.684,104.815 234.586,105.413 235.487,106.39 236.389,107.367 237.29,109.263 238.192,111.868 239.093,114.481 239.995,116.559 240.896,117.643 241.798,118.224 242.699,118.098 243.601,118.1 244.502,117.393 245.404,116.686 246.305,116.74 247.207,116.795 248.108,116.849 249.01,117.918 249.911,119.532 250.813,121.093 251.714,122.218 252.616,122.65 253.517,123.082 254.419,123.514 255.32,123.639 256.222,123.175 257.123,123.492 258.025,124.246 258.926,124.738 259.828,125.599 260.729,126.459 261.631,126.052 262.532,125.279 263.434,123.777 264.335,121.633 265.237,120.17 266.138,118.34 267.04,117.031 267.941,116.921 268.843,116.166 269.744,115.872 270.646,115.87 271.547,115.378 272.449,115.387 273.35,115.46 274.252,115.636 275.153,117.681 276.055,119.047 276.956,121.662 277.858,124.406 278.759,126.064 279.661,127.414 280.562,128.92 281.464,129.612 282.365,130.52 283.267,130.529 284.168,130.409 285.07,130.874 285.971,131.06 286.873,131.03 287.774,130.829 288.676,130.852 289.577,130.856 290.479,130.793 291.38,130.406 292.282,130.015 293.183,129.021 294.085,128.198 294.986,127.031 295.888,126.459 296.789,126.281 297.691,126.563 298.592,126.644 299.494,127.382 300.395,128.119 301.297,128.978 302.198,129.263 303.1,129.438 304.001,129.342 304.903,129.452 305.804,129.536 306.706,129.621 307.607,129.705 308.509,129.789 309.41,129.627 310.312,129.598 311.213,129.57 312.115,129.714 313.016,129.857 313.918,130 314.819,130.144 315.721,130.061 316.622,130.382 317.524,130.703 318.425,130.748 319.327,130.791 320.228,130.894 321.13,130.611 322.031,129.454 322.933,127.725 323.834,126.547 324.736,126.155 325.637,125.763 326.539,125.176 327.44,124.974 328.342,126.359 329.243,127.913 330.145,128.915 331.046,129.237 331.948,130.139 332.849,131.138 333.751,132.219 334.652,132.841 335.554,133.314 336.455,133.874 337.357,134.463 338.258,134.355 339.16,133.93 340.061,133.118 340.963,131.657 341.864,130.343 342.766,128.645 343.667,126.878 344.569,125.228 345.47,123.924 346.372,123.62 347.273,123.964 348.175,123.78 349.076,123.159 349.978,122.578 350.879,121.997 351.781,121.724 352.682,120.756 353.584,119.618 354.485,119.007 355.387,119.132 356.288,119.256 357.19,119.381 358.091,119.208 358.993,118.92 359.894,118.745 360.796,118.571 361.697,118.397 362.599,119.156 363.5,119.481 364.402,120.393 365.303,121.697 366.205,123.062 367.106,124.643 368.008,126.377 368.909,127.178 369.811,128.506 370.712,129.258 371.614,129.732 372.515,130.206 373.417,130.463 374.318,130.342 375.22,130.776 376.121,130.705 377.023,130.624 377.924,130.277 378.826,129.93 379.727,129.583 380.629,129.457 381.53,128.777 382.432,128.137 383.333,127.81 384.235,127.922 385.136,128.035 386.038,128.078 386.939,128.167 387.841,127.668 388.742,127.541 389.644,127.101 390.545,127.125 391.447,126.744 392.348,126.432 393.25,126.45 394.151,127.096 395.053,127.698 395.954,128.12 396.856,127.621 397.757,127.872 398.659,128.123 399.56,128.002 400.462,127.532 401.363,127.105 402.265,126.858 403.166,126.086 404.068,124.904 404.969,123.723 405.871,122.541 406.772,121.669 407.674,120.796 408.575,120.458 409.477,121.04 410.378,122.078 411.28,122.769 412.181,123.363 413.083,123.957 413.984,124.55 414.886,124.426 415.787,124.033 416.689,123.234 417.59,122.933 418.492,122.486 419.393,122.039 420.295,122.227 421.196,122.599 422.098,123.129 422.999,123.673 423.9,123.909 424.802,124.199 425.703,124.49 426.605,124.095 427.506,124.262 428.408,124.571 429.309,124.837 430.211,125.29 431.112,125.884 432.014,126.478 432.915,126.746 433.817,126.771 434.718,126.425 435.62,126.969 436.521,126.932 437.423,127.609 438.324,128.256 439.226,129.277 440.127,129.982 441.029,130.844 441.93,130.771 442.832,131.212 443.733,130.162 444.635,129.143 445.536,128.124 446.438,127.272 447.339,125.492 448.241,123.8 449.142,122.143 450.044,120.304 450.945,118.465 451.847,116.626 452.748,114.561 453.65,112.337 454.551,110.076 455.453,107.815 456.354,106.495 457.256,104.776 458.157,103.134 459.059,101.632 459.96,100.27 460.862,98.945 461.763,98.4247 462.665,98.8216 463.566,99.6164 464.468,101.332 465.369,102.965 466.271,105.268 467.172,107.313 468.074,108.554 468.975,107.892 469.877,106.269 470.778,103.196 471.68,100.608 472.581,98.0723 473.483,95.7942 474.384,93.5924 475.286,91.9777 476.187,91.2214 477.089,90.9189 477.99,89.7365 478.892,89.7611 479.793,90.8367 480.695,91.836 481.596,92.2866 482.498,92.8406 483.399,92.9594 484.301,92.4805 485.202,91.0897 486.104,88.6479 487.005,87.323 487.907,85.5692 488.808,84.0566 489.71,82.9792 490.611,83.8747 491.513,85.7613 492.414,87.648 493.316,88.4178 494.217,89.9297 495.119,91.2166 496.02,92.5036 496.922,94.0871 497.823,93.7117 498.725,93.3362 499.626,92.5702 500.528,92.2988 501.429,93.1063 502.331,93.0784 503.232,91.3403 504.134,90.999 505.035,90.3347 505.937,90.0609 506.838,89.9929 507.74,88.7518 508.641,89.2587 509.543,89.7938 510.444,89.8996 511.346,90.3286 512.247,89.8099 513.149,89.5079 514.05,89.2946 514.952,88.1501 515.853,85.2437 516.755,82.3373 517.656,80.8536 518.558,80.3176 519.459,77.1032 520.361,76.1003 521.262,74.913 522.164,75.1638 523.065,75.4146 523.967,74.2427 524.868,73.0707 525.77,74.796 526.671,74.5571 527.573,74.521 528.474,75.3096 529.376,76.0983 530.277,77.2697 531.179,78.8174 532.08,79.5289 532.982,81.8001 533.883,83.7262 534.785,87.0746 535.686,91.0565 536.588,94.724 537.489,98.5156 538.391,102.138 539.292,103.942 540.194,106.066 541.095,106.512 541.997,107.301 542.898,108.539 543.8,109.106 544.701,109.362 545.603,110.41 546.504,111.484 547.406,112.884 548.307,113.308 549.209,113.458 550.11,114.316 551.012,116.656 551.913,118.204 552.815,119.752 553.716,121.425 554.618,123.099 555.519,124.528 556.421,125.42 557.322,125.711 558.224,126.199 559.125,126.687 560.027,127.409 560.928,128.132 561.83,128.431 562.731,128.73 563.633,128.361 564.534,127.174 565.436,125.595 566.337,123.51 567.239,121.286 568.14,119.08 569.042,117.155 569.943,115.898 570.845,115.262 571.746,114.749 572.648,113.871 573.549,113.048 574.451,112.729 575.352,112.13 576.254,112.147 577.155,112.164 578.057,112.929 578.958,114.169 579.86,115.491 580.761,116.45 581.663,116.907 582.564,116.747 583.466,116.588 584.367,115.34 585.269,114.16 586.17,113.001 587.072,112.359 587.973,110.948 588.875,109.538 589.776,108.279 590.678,107.63 591.579,106.783 592.481,105.914 593.382,105.806 594.284,106.011 595.185,104.859 596.087,105.32 596.988,105.781 597.89,106.155 598.791,107.202 599.693,107.075 600.594,107.287 601.496,108.317 602.397,107.598 603.299,106.88 604.2,106.248 605.102,104.944 606.003,104.56 606.905,105.124 607.806,106.226 608.708,107.33 609.609,108.858 610.511,110.386 611.412,111.914 612.314,113.675 613.215,115.18 614.117,117.236 615.018,119.275 615.92,121.371 616.821,123.467 617.723,125.094 618.624,126.22 619.526,127.252 620.427,127.734 621.329,128.215 622.23,128.014 623.132,127.814 624.033,128.082 624.935,127.428 625.836,126.536 626.738,126.099 627.639,125.592 628.541,125.285 629.442,124.979 630.344,125.264 631.245,126.33 632.147,127.104 633.048,126.817 633.95,126.449 634.851,124.158 635.753,121.169 636.654,117.59 637.556,113.662 638.457,110.284 639.359,108.023 640.26,106.429 641.162,106.21 642.063,106.689 642.965,107.167 643.866,107.7 644.768,108.234 645.669,110.507 646.571,112.266 647.472,113.631 648.374,114.623 649.275,116.709 650.177,118.74 651.078,120.771 651.98,120.288 652.881,119.76 653.783,120.174 654.684,120.962 655.586,121.465 656.487,121.967 657.389,122.087 658.29,121.677 659.192,121.482 660.093,121.989 660.995,122.496 661.896,122.195 662.798,121.452 663.699,119.968 664.601,119.38 665.502,118.623 666.404,118.149 667.305,118.421 668.207,118.693 669.108,119.406 670.01,120.461 670.911,120.538 671.813,120.614 672.714,119.704 673.616,117.83 674.517,116.765 675.419,116.864 676.32,117.936 677.222,119.895 678.123,121.855 679.025,123.815 679.926,125.428 680.828,126.39 681.729,125.764 682.631,124.982 683.532,124.185 684.434,123.388 685.335,123.163 686.237,123.501 687.138,124.036 688.04,125.216 688.941,126.343 689.843,127.47 690.744,128.634 691.646,129.227 692.547,129.619 693.449,129.658 694.35,128.782 695.252,127.928 696.153,127.112 697.055,126.821 697.956,126.529 698.858,126.092 699.759,125.654 700.661,125.866 701.562,125.958 702.464,125.992 703.365,124.427 704.267,123.003 705.168,121.884 706.07,120.765 706.971,119.688 707.873,118.739 708.774,118.104 709.676,118.034 710.577,118.121 711.479,118.182 712.38,116.984 713.282,115.28 714.183,113.089 715.085,110.605 715.986,108.593 716.888,105.617 717.789,102.709 718.691,101.273 719.592,101.714 720.494,102.633 721.395,103.552 722.297,104.727 723.198,106.249 724.1,108.393 725.001,109.966 725.902,110.617 726.804,110.863 727.705,111.516 728.607,112.851 729.508,114.561 730.41,115.517 731.311,117.098 732.213,118.231 733.114,119.769 734.016,120.9 734.917,121.676 735.819,122.395 736.72,123.244 737.622,123.827 738.523,124.409 739.425,124.991 740.326,126.03 741.228,126.062 742.129,126.095 743.031,126.234 743.932,126.374 744.834,126.47 745.735,126.212 746.637,125.497 747.538,125.207 748.44,124.916 749.341,124.273 750.243,123.331 751.144,121.421 752.046,119.396 752.947,117.372 753.849,114.233 754.75,111.126 755.652,106.712 756.553,103.378 757.455,99.6977 758.356,98.0292 759.258,96.0951 760.159,95.2758 761.061,92.7841 761.962,91.8452 762.864,90.9704 763.765,90.7876 764.667,90.5161 765.568,91.9408 766.47,93.3656 767.371,96.4301 768.273,98.0495 769.174,98.9199 770.076,99.7481 770.977,97.523 771.879,92.7356 772.78,87.9482 773.682,82.5642 774.583,78.6252 775.485,73.5847 776.386,69.2516 777.288,67.7519 778.189,68.3466 779.091,67.9965 779.992,68.243 780.894,68.4895 781.795,67.3128 782.697,64.7895 783.598,60.4325 784.5,55.1126 785.401,50.7375 786.303,47.9752 787.204,45.2129 788.106,44.88 789.007,48.4466 789.909,51.6754 790.81,56.7989 791.712,61.1094 792.613,64.4962 793.515,67.8647 794.416,71.2333 795.318,72.1495 796.219,74.0678 797.121,75.1514 798.022,77.048 798.924,77.9503 799.825,79.0094 800.727,80.0685 801.628,80.4473 802.53,82.5138 803.431,83.5201 804.333,84.5265 805.234,85.8464 806.136,85.8587 807.037,84.289 807.939,83.515 808.84,81.7919 809.742,79.8001 810.643,77.8082 811.545,75.8081 812.446,75.3191 813.348,77.3955 814.249,81.4071 815.151,84.6151 816.052,88.6575 816.954,92.7 817.855,97.1304 818.757,101.996 819.658,106.02 820.56,108.365 821.461,111.541 822.363,113.839 823.264,115.118 824.166,116.97 825.067,117.977 825.969,118.844 826.87,119.238 827.772,118.615 828.673,118.305 829.575,119.014 830.476,118.672 831.378,118.654 832.279,118.637 833.181,118.703 834.082,119.642 834.984,120.58 835.885,121.113 836.787,121.462 837.688,121.554 838.59,121.224 839.491,120.59 840.393,119.271 841.294,117.951 842.196,117.078 843.097,116.192 843.999,115.546 844.9,115.321 845.802,113.82 846.703,112.32 847.605,110.819 848.506,109.213 849.408,108.985 850.309,107.104 851.211,105.235 852.112,104.861 853.014,103.216 853.915,103.344 854.817,103.536 855.718,102.636 856.62,103.15 857.521,103.926 858.423,105.013 859.324,107.373 860.226,108.279 861.127,109.232 862.029,110.121 862.93,109.099 863.832,108.705 864.733,108.214 865.635,107.89 866.536,107.004 867.438,107.048 868.339,107.465 869.241,108.446 870.142,108.524 871.044,108.388 871.945,108.085 872.847,107.446 873.748,105.831 874.65,103.314 875.551,102.577 876.453,101.835 877.354,102.816 878.256,103.797 879.157,105.266 880.059,107.181 880.96,110.053 881.862,112.455 882.763,113.304 883.665,112.491 884.566,111.678 885.468,110.954 886.369,109.826 887.271,108.334 888.172,107.599 889.074,109.4 889.975,111.139 890.877,112.879 891.778,114.618 892.68,116.964 893.581,118.61 894.483,118.214 895.384,116.53 896.286,116.01 897.187,117.056 898.089,118.342 898.99,118.083 899.892,118.524 900.793,120.287 901.695,122.202 902.596,122.987 903.498,121.187 904.399,118.797 905.301,116.855 906.202,114.611 907.104,112.367 908.005,110.087 908.907,107.776 909.808,107.242 910.71,107.058 911.611,107.322 912.513,107.887 913.414,108.453 914.316,109.259 915.217,111.383 916.119,112.747 917.02,114.112 917.922,115.839 918.823,117.909 919.725,120.484 920.626,122.795 921.528,123.247 922.429,123.345 923.331,123.417 924.232,123.127 925.134,122.494 926.035,121.356 926.937,120.435 927.838,120.786 928.74,121.824 929.641,122.888 930.543,123.794 931.444,124.7 932.346,125.613 933.247,126.124 934.149,126.384 935.05,126.309 935.952,126.003 936.853,125.856 937.755,125.752 938.656,125.641 939.558,125.247 940.459,123.474 941.361,121.701 942.262,120.616 943.164,119.367 944.065,118.075 944.967,114.721 945.868,112.05 946.77,109.314 947.671,106.034 948.573,102.297 949.474,98.3035 950.376,93.6824 951.277,90.1201 952.179,86.8561 953.08,85.4649 953.982,85.1744 954.883,82.186 955.785,79.715 956.686,77.8716 957.588,77.0323 958.489,77.6718 959.391,77.9324 960.292,76.8574 961.194,78.4087 962.095,79.863 962.997,81.3173 963.898,82.8053 964.8,82.7218 965.701,81.8215 966.603,82.3815 967.504,82.581 968.406,82.7805 969.307,82.9799 970.209,83.7352 971.11,84.1276 972.012,84.8097 972.913,84.8097 973.815,86.073 974.716,88.8073 975.618,89.767 976.519,89.4793 977.421,88.3458 978.322,88.3806 979.224,89.0713 980.125,88.931 981.027,87.3197 981.928,87.4828 982.83,88.246 983.731,90.0123 984.633,91.065 985.534,92.5133 986.436,94.1578 987.337,94.8659 988.239,95.5571 989.14,97.2946 990.042,99.0321 990.943,100.315 991.845,100.546 992.746,100.479 993.648,101.348 994.549,101.642 995.451,100.63 996.352,99.5404 997.254,98.4512 998.155,97.0168 999.057,94.8129 999.958,92.609 1000.86,91.4692 1001.76,90.6473 1002.66,91.3383 1003.56,92.0293 1004.47,93.0654 1005.37,94.9737 1006.27,97.7309 1007.17,100.016 1008.07,102.3 1008.97,103.149 1009.87,102.856 1010.78,102.562 1011.68,102.268 1012.58,101.125 1013.48,99.9828 1014.38,99.3311 1015.28,99.7707 1016.19,101.353 1017.09,102.772 1017.99,104.191 1018.89,105.61 1019.79,107.029 1020.69,107.958 1021.59,108.238 1022.5,108.546 1023.4,110.118 1024.3,112.188 1025.2,112.979 " />
        </g>
      </g>
      <g
         id="g2856">
        <g
           id="g2845">
          <polygon
             points="1035.43,88.3389 1035.34,88.7149 1035.2,89.138 1035.04,89.5698 1034.74,90.3072 1034.6,90.6209 1044,88.0483 1034.6,85.5746 1034.74,85.856 1035.04,86.531 1035.2,86.9369 1035.34,87.3462 1035.43,87.7272 1035.47,88.0483 "
             id="polygon34-1"
             style="fill:#000000;fill-rule:evenodd;stroke:none"
             transform="matrix(0.20969638,0,0,0.20911597,-15.804412,28.243099)" />
          <g
             id="g2835">
            <polyline
               transform="matrix(0.21170572,0,0,0.36753056,-16.042734,13.454042)"
               style="fill:none;stroke:#0000d4;stroke-width:2.00393534;stroke-linecap:round;stroke-linejoin:round;stroke-miterlimit:4;stroke-dasharray:none;stroke-opacity:1"
               id="polyline20"
               points="123.701,93.5633 124.603,83.3849 125.504,73.699 126.406,73.2359 127.307,82.3162 128.209,91.9043 129.11,100.906 130.012,103.68 130.913,102.735 131.815,94.1831 132.716,85.5132 133.618,76.7685 134.519,71.5595 135.421,71.7152 136.322,78.5863 137.224,88.1026 138.125,95.8049 139.027,101.4 139.928,102.284 140.83,100.244 141.731,91.8865 142.633,79.616 143.534,73.3729 144.436,72.3356 145.337,78.3399 146.239,87.7146 147.14,94.9983 148.042,97.9846 148.943,96.2607 149.845,93.8714 150.746,86.7273 151.648,82.9664 152.549,82.7983 153.451,82.3715 154.352,83.434 155.254,89.6276 156.155,93.7078 157.057,95.9785 157.958,95.2201 158.86,91.7223 159.761,90.2137 160.663,85.9415 161.564,82.474 162.466,83.5429 163.367,84.3597 164.269,85.3081 165.17,90.5558 166.072,94.8458 166.973,98.2212 167.875,95.5477 168.776,88.0182 169.678,80.677 170.579,77.5015 171.481,78.4992 172.382,83.1223 173.284,90.1208 174.185,93.7663 175.087,95.571 175.988,93.3442 176.89,88.7119 177.791,84.9962 178.693,80.6345 179.594,79.3653 180.496,79.2987 181.397,82.4127 182.299,87.6793 183.2,89.4817 184.102,91.3106 185.003,92.8758 185.905,92.9938 186.806,90.6592 187.708,87.3274 188.609,84.2729 189.511,82.6704 190.412,84.5746 191.314,88.5048 192.215,92.2607 193.117,94.4076 194.018,99.0511 194.92,92.4626 195.821,85.9032 196.723,79.4141 197.624,75.3712 198.526,74.7392 199.427,81.1597 200.329,87.2829 201.23,97.1547 202.132,102.827 203.033,102.604 203.935,94.9483 204.836,81.4795 205.738,72.7057 206.639,70.1061 207.541,74.3598 208.442,85.1984 209.344,93.9691 210.245,101.288 211.147,101.166 212.048,96.5456 212.95,88.6795 213.851,80.0872 214.753,75.003 215.654,73.0036 216.556,79.6966 217.457,87.2507 218.359,95.3943 219.26,103.556 220.162,104.347 221.063,98.3877 221.965,90.0308 222.866,81.9722 223.768,77.6687 224.669,74.442 225.571,76.4125 226.472,82.0366 227.374,90.3519 228.275,99.2797 229.177,103.565 230.078,101.657 230.98,95.219 231.881,84.743 232.783,76.019 233.684,69.7301 234.586,72.4532 235.487,81.099 236.389,95.0871 237.29,100.441 238.192,102.036 239.093,99.7522 239.995,92.3569 240.896,81.9404 241.798,76.7156 242.699,75.8194 243.601,79.5943 244.502,86.5983 245.404,93.2201 246.305,100.077 247.207,102.34 248.108,99.1436 249.01,90.9132 249.911,83.324 250.813,77.5394 251.714,76.7409 252.616,79.4492 253.517,83.3824 254.419,87.2496 255.32,93.1393 256.222,97.9162 257.123,98.9239 258.025,95.7776 258.926,89.9198 259.828,84.9011 260.729,80.8016 261.631,78.713 262.532,82.7126 263.434,87.1125 264.335,94.684 265.237,100.161 266.138,101.168 267.04,98.8464 267.941,90.0404 268.843,81.6588 269.744,78.1044 270.646,75.4937 271.547,75.7096 272.449,85.5049 273.35,93.6287 274.252,100.717 275.153,101.241 276.055,96.3441 276.956,87.7274 277.858,81.9087 278.759,78.5003 279.661,82.4807 280.562,88.798 281.464,92.0661 282.365,95.2893 283.267,93.4609 284.168,90.4755 285.07,86.5688 285.971,83.2123 286.873,81.703 287.774,82.6174 288.676,85.6062 289.577,91.607 290.479,94.2676 291.38,93.9989 292.282,92.6968 293.183,88.146 294.085,84.3518 294.986,80.6997 295.888,77.9503 296.789,81.7223 297.691,90.5996 298.592,95.035 299.494,95.5624 300.395,94.3662 301.297,92.0677 302.198,88.2625 303.1,83.6573 304.001,80.7294 304.903,80.5971 305.804,86.2612 306.706,90.1871 307.607,93.9306 308.509,95.4273 309.41,94.1054 310.312,90.47 311.213,85.9096 312.115,81.6764 313.016,80.5541 313.918,82.2943 314.819,84.7688 315.721,88.8081 316.622,92.5572 317.524,94.5841 318.425,95.037 319.327,89.7655 320.228,86.1596 321.13,83.0231 322.031,81.6173 322.933,84.4721 323.834,86.3321 324.736,96.8386 325.637,100.252 326.539,98.2615 327.44,92.9512 328.342,88.0841 329.243,82.6927 330.145,79.5758 331.046,81.3385 331.948,83.2789 332.849,87.041 333.751,91.1879 334.652,89.867 335.554,90.9632 336.455,89.5463 337.357,88.796 338.258,88.156 339.16,86.9056 340.061,86.131 340.963,84.4537 341.864,83.635 342.766,85.4276 343.667,91.9565 344.569,96.7732 345.47,99.1129 346.372,94.6476 347.273,87.9699 348.175,79.5537 349.076,79.0859 349.978,80.3899 350.879,82.1174 351.781,88.3713 352.682,95.9491 353.584,100.509 354.485,99.3567 355.387,94.5453 356.288,87.1752 357.19,79.9172 358.091,75.765 358.993,76.3046 359.894,81.3299 360.796,88.9214 361.697,96.2827 362.599,100.752 363.5,100.285 364.402,95.1436 365.303,84.4748 366.205,76.5361 367.106,79.514 368.008,86.4649 368.909,91.851 369.811,95.48 370.712,94.6802 371.614,91.8044 372.515,85.3367 373.417,82.2725 374.318,81.4352 375.22,83.1239 376.121,86.6936 377.023,88.6277 377.924,92.5532 378.826,92.2403 379.727,88.098 380.629,84.9104 381.53,81.0091 382.432,79.7966 383.333,80.5078 384.235,83.9666 385.136,88.0136 386.038,93.934 386.939,95.8337 387.841,94.3189 388.742,91.7728 389.644,87.1246 390.545,83.9159 391.447,79.2426 392.348,77.9328 393.25,82.9571 394.151,82.6842 395.053,88.2017 395.954,93.1628 396.856,94.2679 397.757,95.4253 398.659,96.6475 399.56,95.8725 400.462,89.0387 401.363,83.9779 402.265,80.4719 403.166,78.5885 404.068,81.1666 404.969,86.3733 405.871,94.1564 406.772,98.8897 407.674,100.275 408.575,96.9904 409.477,90.2901 410.378,82.7335 411.28,77.9736 412.181,78.3573 413.083,83.6339 413.984,91.2748 414.886,96.9045 415.787,98.5511 416.689,96.186 417.59,90.5596 418.492,85.4074 419.393,80.3674 420.295,77.3048 421.196,76.4872 422.098,80.38 422.999,87.0941 423.9,93.0538 424.802,97.1017 425.703,97.6914 426.605,96.6646 427.506,90.0161 428.408,83.2622 429.309,78.8509 430.211,78.9903 431.112,83.0563 432.014,88.0491 432.915,93.1362 433.817,96.7595 434.718,96.3121 435.62,91.1426 436.521,83.3391 437.423,79.0012 438.324,82.4304 439.226,85.0243 440.127,89.0775 441.029,93.9698 441.93,92.8629 442.832,89.9171 443.733,85.7285 444.635,81.3472 445.536,81.3039 446.438,80.7376 447.339,86.4015 448.241,92.6945 449.142,97.4503 450.044,100.496 450.945,96.3374 451.847,89.0121 452.748,80.3966 453.65,74.062 454.551,73.0698 455.453,77.7449 456.354,85.7703 457.256,96.7574 458.157,104.314 459.059,106.097 459.96,101.201 460.862,92.575 461.763,81.2588 462.665,71.5541 463.566,67.6933 464.468,72.4139 465.369,82.4061 466.271,93.0892 467.172,101.353 468.074,103.067 468.975,98.7265 469.877,89.0841 470.778,79.218 471.68,69.8858 472.581,69.5679 473.483,78.378 474.384,90.6788 475.286,101.461 476.187,108.206 477.089,104.674 477.99,94.8247 478.892,81.5312 479.793,70.695 480.695,66.0437 481.596,69.0444 482.498,78.403 483.399,89.7683 484.301,101.762 485.202,108.214 486.104,108.024 487.005,101.895 487.907,88.5059 488.808,74.9419 489.71,67.2559 490.611,67.2742 491.513,77.0524 492.414,91.0669 493.316,102.028 494.217,107.591 495.119,105.924 496.02,97.4281 496.922,84.679 497.823,74.5598 498.725,67.6571 499.626,70.9995 500.528,77.1106 501.429,89.3942 502.331,103.387 503.232,108.947 504.134,105.584 505.035,98.3488 505.937,86.265 506.838,74.4725 507.74,67.1047 508.641,67.9847 509.543,76.5283 510.444,89.7362 511.346,102.051 512.247,108.272 513.149,107.513 514.05,99.3197 514.952,84.8288 515.853,72.933 516.755,66.3915 517.656,67.9975 518.558,76.302 519.459,91.7108 520.361,102.884 521.262,110.57 522.164,112.284 523.065,102.512 523.967,87.1306 524.868,71.9188 525.77,63.8159 526.671,64.969 527.573,74.9376 528.474,88.9066 529.376,102.472 530.277,110.958 531.179,110.768 532.08,102.233 532.982,86.8826 533.883,73.0389 534.785,65.3865 535.686,69.967 536.588,77.9884 537.489,90.0472 538.391,101.063 539.292,104.859 540.194,99.3359 541.095,92.1864 541.997,81.6971 542.898,73.5878 543.8,70.6811 544.701,75.41 545.603,81.407 546.504,90.3856 547.406,98.6249 548.307,101.886 549.209,102.171 550.11,97.3093 551.012,89.13 551.913,79.5665 552.815,76.5211 553.716,78.2848 554.618,82.2658 555.519,88.4555 556.421,93.9736 557.322,97.1157 558.224,96.7944 559.125,93.1324 560.027,87.5284 560.928,81.3845 561.83,79.4456 562.731,83.3122 563.633,86.5012 564.534,92.2468 565.436,95.5799 566.337,97.4576 567.239,91.5845 568.14,82.3224 569.042,78.0459 569.943,74.5517 570.845,75.081 571.746,81.9209 572.648,90.6163 573.549,98.3308 574.451,102.185 575.352,102.836 576.254,98.2741 577.155,88.56 578.057,79.2999 578.958,75.3284 579.86,74.1126 580.761,79.6195 581.663,86.7273 582.564,94.3227 583.466,100.876 584.367,100.679 585.269,94.0353 586.17,85.1046 587.072,77.4501 587.973,72.9193 588.875,73.9637 589.776,80.1376 590.678,93.1933 591.579,102.104 592.481,105.183 593.382,100.517 594.284,91.0874 595.185,80.4975 596.087,74.1608 596.988,71.2344 597.89,75.2708 598.791,86.2752 599.693,96.163 600.594,102.81 601.496,102.392 602.397,96.2992 603.299,85.5766 604.2,78.0025 605.102,70.4782 606.003,72.1209 606.905,79.8474 607.806,90.7063 608.708,98.0231 609.609,103.102 610.511,102.483 611.412,95.5344 612.314,85.0193 613.215,77.2557 614.117,73.6146 615.018,78.483 615.92,84.2142 616.821,92.364 617.723,96.7733 618.624,96.0719 619.526,94.5445 620.427,89.561 621.329,85.3809 622.23,82.5486 623.132,80.1679 624.033,80.7973 624.935,81.6898 625.836,86.5242 626.738,91.9408 627.639,97.2931 628.541,98.6774 629.442,97.0041 630.344,91.8784 631.245,85.7259 632.147,80.4605 633.048,80.4429 633.95,83.9509 634.851,86.4971 635.753,91.0666 636.654,97.7048 637.556,103.996 638.457,104.218 639.359,97.1098 640.26,86.5401 641.162,76.5466 642.063,72.1362 642.965,75.0986 643.866,80.6984 644.768,90.8371 645.669,99.9106 646.571,104.497 647.472,101.768 648.374,93.7458 649.275,87.3524 650.177,77.912 651.078,73.7561 651.98,77.7435 652.881,82.5393 653.783,89.4394 654.684,94.6684 655.586,100.164 656.487,99.0148 657.389,93.6765 658.29,84.0801 659.192,79.6297 660.093,77.2207 660.995,79.8173 661.896,89.8797 662.798,96.5018 663.699,98.7798 664.601,96.9588 665.502,92.6481 666.404,83.7752 667.305,76.4022 668.207,73.3169 669.108,78.0611 670.01,88.664 670.911,94.3036 671.813,97.5538 672.714,99.8782 673.616,95.806 674.517,87.0845 675.419,78.7311 676.32,73.794 677.222,75.8414 678.123,83.4992 679.025,90.8114 679.926,95.1135 680.828,96.7183 681.729,95.0114 682.631,92.5834 683.532,86.6908 684.434,78.5142 685.335,76.7144 686.237,79.7742 687.138,85.9944 688.04,92.4727 688.941,96.5915 689.843,95.6991 690.744,92.7876 691.646,88.4631 692.547,84.1463 693.449,81.5141 694.35,81.2228 695.252,84.7207 696.153,89.6123 697.055,95.9953 697.956,98.5755 698.858,96.9989 699.759,89.9201 700.661,84.7736 701.562,78.7388 702.464,78.9214 703.365,82.2074 704.267,88.6877 705.168,93.8357 706.07,97.8619 706.971,100.818 707.873,98.5404 708.774,91.9074 709.676,83.8004 710.577,76.0116 711.479,76.2703 712.38,79.7745 713.282,87.3994 714.183,95.4822 715.085,103.293 715.986,103.946 716.888,95.5264 717.789,84.4679 718.691,74.777 719.592,69.1762 720.494,70.5326 721.395,82.097 722.297,92.5387 723.198,100.788 724.1,104.172 725.001,100.008 725.902,93.6076 726.804,82.3869 727.705,73.6097 728.607,73.5655 729.508,75.7443 730.41,82.3065 731.311,91.7547 732.213,97.2296 733.114,100.357 734.016,99.009 734.917,94.591 735.819,87.674 736.72,80.9 737.622,79.3312 738.523,78.4232 739.425,81.1916 740.326,86.5791 741.228,92.5277 742.129,96.7654 743.031,95.9867 743.932,95.1509 744.834,89.9647 745.735,83.6645 746.637,79.7194 747.538,79.5751 748.44,80.3272 749.341,86.1028 750.243,92.6215 751.144,97.3935 752.046,99.2979 752.947,95.1739 753.849,87.2042 754.75,79.3531 755.652,73.1541 756.553,71.2151 757.455,78.3172 758.356,90.1063 759.258,101.33 760.159,109.283 761.061,106.127 761.962,97.9629 762.864,86.0418 763.765,72.9292 764.667,66.0666 765.568,68.6833 766.47,75.1987 767.371,88.8674 768.273,97.4487 769.174,103.999 770.076,104.456 770.977,102.088 771.879,91.7558 772.78,77.3764 773.682,66.3646 774.583,63.6809 775.485,71.5638 776.386,85.1431 777.288,100.766 778.189,110.739 779.091,115.142 779.992,107.886 780.894,95.4816 781.795,80.8684 782.697,67.88 783.598,62.5952 784.5,65.0147 785.401,78.7029 786.303,98.1714 787.204,113.386 788.106,118.923 789.007,111.797 789.909,97.477 790.81,79.5555 791.712,67.0239 792.613,61.0769 793.515,69.1882 794.416,80.6836 795.318,94.3916 796.219,107.158 797.121,112.631 798.022,107.274 798.924,95.2597 799.825,80.8824 800.727,69.5188 801.628,64.778 802.53,69.1633 803.431,80.5577 804.333,96.1061 805.234,105.676 806.136,109.254 807.037,104.733 807.939,92.7048 808.84,77.6864 809.742,65.9025 810.643,63.7227 811.545,71.6867 812.446,84.065 813.348,98.9013 814.249,109.592 815.151,110.845 816.052,103.164 816.954,89.043 817.855,77.9235 818.757,71.358 819.658,71.3961 820.56,77.629 821.461,85.8732 822.363,95.1845 823.264,99.1456 824.166,99.1978 825.067,98.7227 825.969,94.1652 826.87,84.6212 827.772,78.3064 828.673,75.5854 829.575,77.6248 830.476,84.1335 831.378,92.1577 832.279,98.6123 833.181,101.212 834.082,97.4312 834.984,90.7622 835.885,81.929 836.787,79.2886 837.688,77.9415 838.59,78.0834 839.491,84.8768 840.393,92.4482 841.294,97.9531 842.196,102.019 843.097,99.2434 843.999,92.192 844.9,86.62 845.802,79.1926 846.703,74.651 847.605,74.8507 848.506,78.1965 849.408,88.4494 850.309,98.5491 851.211,104.843 852.112,102.694 853.014,98.818 853.915,88.2338 854.817,77.5865 855.718,68.4122 856.62,72.3456 857.521,79.2605 858.423,89.532 859.324,99.2368 860.226,103.406 861.127,102.962 862.029,97.0196 862.93,85.2577 863.832,76.2378 864.733,72.9222 865.635,73.4148 866.536,86.5938 867.438,96.7461 868.339,102.83 869.241,104.476 870.142,97.1729 871.044,90.6413 871.945,81.5599 872.847,73.4724 873.748,70.9524 874.65,74.9625 875.551,81.5028 876.453,92.7839 877.354,99.8842 878.256,105.965 879.157,106.031 880.059,96.3114 880.96,87.3645 881.862,78.6438 882.763,74.9349 883.665,74.9095 884.566,79.1789 885.468,90.0715 886.369,99.4949 887.271,104.535 888.172,103.277 889.074,97.7304 889.975,87.8773 890.877,83.4278 891.778,77.5881 892.68,75.3729 893.581,77.9994 894.483,84.4642 895.384,91.1838 896.286,98.8863 897.187,104.063 898.089,101.76 898.99,92.2319 899.892,86.5625 900.793,81.6215 901.695,76.5302 902.596,78.1739 903.498,83.5894 904.399,90.649 905.301,96.8351 906.202,102.055 907.104,98.7802 908.005,89.1275 908.907,79.0767 909.808,72.2798 910.71,70.6894 911.611,74.8954 912.513,82.4803 913.414,92.2551 914.316,100.423 915.217,103.864 916.119,101.264 917.02,92.8111 917.922,81.9645 918.823,76.7301 919.725,75.8188 920.626,80.2731 921.528,87.8728 922.429,91.4903 923.331,96.1946 924.232,99.1453 925.134,96.4488 926.035,90.2364 926.937,82.7257 927.838,77.2481 928.74,75.8958 929.641,79.1853 930.543,87.2218 931.444,92.1531 932.346,95.8957 933.247,97.3451 934.149,95.0524 935.05,90.4189 935.952,83.3437 936.853,79.386 937.755,79.561 938.656,82.9066 939.558,88.8427 940.459,91.6129 941.361,96.2474 942.262,99.9565 943.164,100.629 944.065,94.2055 944.967,83.537 945.868,76.9671 946.77,74.4624 947.671,74.8272 948.573,84.6401 949.474,94.7013 950.376,105.899 951.277,108.8 952.179,103.609 953.08,95.148 953.982,82.1606 954.883,71.0706 955.785,65.9243 956.686,71.2255 957.588,80.7356 958.489,98.5528 959.391,110.018 960.292,113.092 961.194,105.425 962.095,93.67 962.997,80.3246 963.898,68.2619 964.8,65.0203 965.701,70.5745 966.603,83.2822 967.504,98.4935 968.406,107.891 969.307,109.834 970.209,103.81 971.11,91.1097 972.012,77.2396 972.913,68.137 973.815,66.2136 974.716,72.5302 975.618,84.7742 976.519,97.8416 977.421,104.467 978.322,108.847 979.224,101.278 980.125,86.0723 981.027,74.8169 981.928,67.5556 982.83,68.7157 983.731,77.2603 984.633,89.9255 985.534,102.153 986.436,108.697 987.337,105.937 988.239,93.9399 989.14,83.6643 990.042,72.8845 990.943,68.2651 991.845,73.7996 992.746,83.0048 993.648,94.1365 994.549,102.943 995.451,105.979 996.352,100.662 997.254,89.3739 998.155,77.0176 999.057,68.783 999.958,69.2668 1000.86,75.6912 1001.76,86.2669 1002.66,99.5179 1003.56,108.371 1004.47,108.192 1005.37,98.919 1006.27,87.8452 1007.17,76.849 1008.07,70.1306 1008.97,72.2306 1009.87,79.109 1010.78,89.4019 1011.68,99.1778 1012.58,106.471 1013.48,106.36 1014.38,99.2543 1015.28,87.8686 1016.19,76.5515 1017.09,71.3891 1017.99,72.3082 1018.89,77.5794 1019.79,84.2747 1020.69,94.4684 1021.59,102.21 1022.5,104.542 1023.4,100.574 1024.3,93.0073 1025.2,82.7543 " />
            <g
               id="g2827">
              <polygon
                 points="123.89,51.8005 124.321,51.9606 125.059,52.2622 125.373,52.4 122.8,43 120.326,52.4 120.608,52.2622 121.283,51.9606 121.689,51.8005 122.098,51.6618 122.479,51.5655 122.8,51.5324 123.091,51.5655 123.467,51.6618 "
                 id="polygon55-9"
                 style="fill:#000000;fill-rule:evenodd;stroke:none"
                 transform="matrix(0.20969638,0,0,0.20911597,-15.804412,28.243099)" />
              <g
                 id="g2539">
                <polyline
                   transform="matrix(0.20969638,0,0,0.20911597,-15.767199,28.243099)"
                   style="fill:none;stroke:#000000;stroke-width:2.02430105;stroke-miterlimit:4;stroke-dasharray:none;stroke-opacity:1"
                   id="polyline27-9"
                   points="104,88.0483 1035.47,88.0483 " />
              </g>
              <polyline
                 points="122.8,137 122.8,51.5324 "
                 id="polyline48-9"
                 style="fill:none;stroke:#000000;stroke-width:2.02430105;stroke-miterlimit:4;stroke-dasharray:none;stroke-opacity:1"
                 transform="matrix(0.20969638,0,0,0.16416837,-15.804412,30.513863)" />
            </g>
          </g>
        </g>
      </g>
    </g>
    <text
       id="text4654"
       y="35.821159"
       x="6.9226999"
       style="font-style:normal;font-variant:normal;font-weight:normal;font-stretch:normal;font-size:3.38666677px;line-height:0%;font-family:'Nimbus Sans L';-inkscape-font-specification:Sans;letter-spacing:0px;word-spacing:0px;fill:#000000;fill-opacity:1;stroke:none;stroke-width:0.28222224"
       xml:space="preserve"><tspan
         style="font-size:6.20888901px;line-height:1.25;stroke-width:0.28222224"
         y="35.821159"
         x="6.9226999"
         id="tspan4656"
         sodipodi:role="line"></tspan></text>
    <text
       xml:space="preserve"
       style="font-style:normal;font-variant:normal;font-weight:normal;font-stretch:normal;font-size:3.37844706px;line-height:0%;font-family:'Nimbus Sans L';-inkscape-font-specification:Sans;letter-spacing:0px;word-spacing:0px;fill:#000000;fill-opacity:1;stroke:none;stroke-width:0.28153726"
       x="87.882912"
       y="93.200798"
       id="text3995-8"
       transform="scale(0.9975729,1.002433)"><tspan
         sodipodi:role="line"
         id="tspan3997-6"
         x="87.882912"
         y="93.200798"
         style="font-style:italic;font-variant:normal;font-weight:normal;font-stretch:normal;font-size:4.62454462px;line-height:1.25;font-family:'Nimbus Roman No9 L';-inkscape-font-specification:'Nimbus Roman No9 L Italic';stroke-width:0.28153726"><tspan
           style="font-size:3.78371835px;stroke-width:0.28153726"
           id="tspan4065">$t_c$</tspan><tspan
           style="font-style:italic;font-variant:normal;font-weight:normal;font-stretch:normal;font-size:3.00599599px;font-family:'Nimbus Roman No9 L';-inkscape-font-specification:'Nimbus Roman No9 L Italic';baseline-shift:sub;stroke-width:0.28153726"
           id="tspan4063" /></tspan></text>
    <text
       xml:space="preserve"
       style="font-style:normal;font-variant:normal;font-weight:normal;font-stretch:normal;font-size:3.38666677px;line-height:0%;font-family:'Nimbus Sans L';-inkscape-font-specification:Sans;letter-spacing:0px;word-spacing:0px;fill:#000000;fill-opacity:1;stroke:none;stroke-width:0.28222224"
       x="203.3479"
       y="49.436768"
       id="text3995-5-4"><tspan
         sodipodi:role="line"
         id="tspan3997-7-0"
         x="203.3479"
         y="49.436768"
         style="font-style:italic;font-variant:normal;font-weight:normal;font-stretch:normal;font-size:3.7642622px;line-height:1.25;font-family:'Nimbus Roman No9 L';-inkscape-font-specification:'Nimbus Roman No9 L Italic';stroke-width:0.28222224">$t$</tspan></text>
    <text
       xml:space="preserve"
       style="font-style:normal;font-variant:normal;font-weight:normal;font-stretch:normal;font-size:3.38848829px;line-height:0%;font-family:'Nimbus Sans L';-inkscape-font-specification:Sans;letter-spacing:0px;word-spacing:0px;fill:#000000;fill-opacity:1;stroke:none;stroke-width:0.28237402"
       x="203.23851"
       y="21.186586"
       id="text3995-5-4-0"
       transform="scale(1.0005379,0.99946239)"><tspan
         sodipodi:role="line"
         id="tspan3997-7-0-4"
         x="203.23851"
         y="21.186586"
         style="font-style:italic;font-variant:normal;font-weight:normal;font-stretch:normal;font-size:3.76628709px;line-height:1.25;font-family:'Nimbus Roman No9 L';-inkscape-font-specification:'Nimbus Roman No9 L Italic';stroke-width:0.28237402">$t$</tspan></text>
    <text
       xml:space="preserve"
       style="font-style:normal;font-variant:normal;font-weight:normal;font-stretch:normal;font-size:3.38666654px;line-height:0%;font-family:'Nimbus Sans L';-inkscape-font-specification:Sans;letter-spacing:0px;word-spacing:0px;fill:#000000;fill-opacity:1;stroke:none;stroke-width:0.28222221"
       x="203.34727"
       y="84.351715"
       id="text3995-5-4-3"><tspan
         sodipodi:role="line"
         id="tspan3997-7-2"
         x="203.34727"
         y="84.351715"
         style="font-style:italic;font-variant:normal;font-weight:normal;font-stretch:normal;font-size:3.79292369px;line-height:1.25;font-family:'Nimbus Roman No9 L';-inkscape-font-specification:'Nimbus Roman No9 L Italic';stroke-width:0.28222221">$t$</tspan></text>
    <text
       xml:space="preserve"
       style="font-style:normal;font-variant:normal;font-weight:normal;font-stretch:normal;font-size:3.38666677px;line-height:0%;font-family:'Nimbus Sans L';-inkscape-font-specification:Sans;letter-spacing:0px;word-spacing:0px;fill:#000000;fill-opacity:1;stroke:none;stroke-width:0.28222224"
       x="203.34729"
       y="115.06871"
       id="text3995-5"><tspan
         sodipodi:role="line"
         id="tspan3997-7"
         x="203.34729"
         y="115.06871"
         style="font-style:italic;font-variant:normal;font-weight:normal;font-stretch:normal;font-size:3.79292393px;line-height:1.25;font-family:'Nimbus Roman No9 L';-inkscape-font-specification:'Nimbus Roman No9 L Italic';stroke-width:0.28222224">$t$</tspan></text>
    <text
       id="text3995-7"
       y="36.214809"
       x="11.177588"
       style="font-style:normal;font-variant:normal;font-weight:normal;font-stretch:normal;font-size:3.38666677px;line-height:0%;font-family:'Nimbus Sans L';-inkscape-font-specification:Sans;letter-spacing:0px;word-spacing:0px;fill:#000000;fill-opacity:1;stroke:none;stroke-width:0.28222224"
       xml:space="preserve"><tspan
         style="font-style:italic;font-variant:normal;font-weight:normal;font-stretch:normal;font-size:3.7642622px;line-height:1.25;font-family:'Nimbus Roman No9 L';-inkscape-font-specification:'Nimbus Roman No9 L Italic';stroke-width:0.28222224"
         y="36.214809"
         x="11.177588"
         id="tspan3997-5"
         sodipodi:role="line"><tspan
           id="tspan4684-0"
           style="font-style:normal;-inkscape-font-specification:'Nimbus Roman No9 L';stroke-width:0.28222224">$\Re(E)$</tspan></tspan></text>
    <text
       transform="scale(1.0005379,0.99946239)"
       id="text3995-7-2"
       y="7.9575152"
       x="11.171401"
       style="font-style:normal;font-variant:normal;font-weight:normal;font-stretch:normal;font-size:3.38848829px;line-height:0%;font-family:'Nimbus Sans L';-inkscape-font-specification:Sans;letter-spacing:0px;word-spacing:0px;fill:#000000;fill-opacity:1;stroke:none;stroke-width:0.28237402"
       xml:space="preserve"><tspan
         style="font-style:italic;font-variant:normal;font-weight:normal;font-stretch:normal;font-size:3.76628709px;line-height:1.25;font-family:'Nimbus Roman No9 L';-inkscape-font-specification:'Nimbus Roman No9 L Italic';stroke-width:0.28237402"
         y="7.9575152"
         x="11.171401"
         id="tspan3997-5-7"
         sodipodi:role="line"><tspan
           id="tspan4684-0-4"
           style="font-style:normal;-inkscape-font-specification:'Nimbus Roman No9 L';stroke-width:0.28237402">$\Re(E)$</tspan></tspan></text>
    <text
       id="text3995-3"
       y="63.479698"
       x="11.259771"
       style="font-style:normal;font-variant:normal;font-weight:normal;font-stretch:normal;font-size:3.38666654px;line-height:0%;font-family:'Nimbus Sans L';-inkscape-font-specification:Sans;letter-spacing:0px;word-spacing:0px;fill:#000000;fill-opacity:1;stroke:none;stroke-width:0.28222221"
       xml:space="preserve"><tspan
         style="font-style:italic;font-variant:normal;font-weight:normal;font-stretch:normal;font-size:3.79292369px;line-height:1.25;font-family:'Nimbus Roman No9 L';-inkscape-font-specification:'Nimbus Roman No9 L Italic';stroke-width:0.28222221"
         y="63.479698"
         x="11.259771"
         id="tspan3997-0"
         sodipodi:role="line">$|E|^2$<tspan
   id="tspan4037-6"
   style="font-size:2.46543527px;baseline-shift:super;stroke-width:0.28222221" /></tspan></text>
    <text
       id="text3995"
       y="94.196709"
       x="11.259771"
       style="font-style:normal;font-variant:normal;font-weight:normal;font-stretch:normal;font-size:3.38666677px;line-height:0%;font-family:'Nimbus Sans L';-inkscape-font-specification:Sans;letter-spacing:0px;word-spacing:0px;fill:#000000;fill-opacity:1;stroke:none;stroke-width:0.28222224"
       xml:space="preserve"><tspan
         style="font-style:italic;font-variant:normal;font-weight:normal;font-stretch:normal;font-size:3.79292393px;line-height:1.25;font-family:'Nimbus Roman No9 L';-inkscape-font-specification:'Nimbus Roman No9 L Italic';stroke-width:0.28222224"
         y="94.196709"
         x="11.259771"
         id="tspan3997"
         sodipodi:role="line">$|E|^2$<tspan
   id="tspan4037"
   style="font-size:2.46543527px;baseline-shift:super;stroke-width:0.28222224" /></tspan></text>
    <text
       xml:space="preserve"
       style="font-style:normal;font-variant:normal;font-weight:normal;font-stretch:normal;font-size:10.58333397px;line-height:1.25;font-family:'Nimbus Sans L';-inkscape-font-specification:'Nimbus Sans L';letter-spacing:0px;word-spacing:0px;fill:#000000;fill-opacity:1;stroke:none;stroke-width:0.26458335"
       x="-1.6531153"
       y="7.287209"
       id="text5194"><tspan
         sodipodi:role="line"
         id="tspan5192"
         x="-1.6531153"
         y="7.287209"
         style="font-size:7.05555582px;stroke-width:0.26458335">a)</tspan></text>
    <text
       xml:space="preserve"
       style="font-style:normal;font-variant:normal;font-weight:normal;font-stretch:normal;font-size:10.58333397px;line-height:1.25;font-family:'Nimbus Sans L';-inkscape-font-specification:'Nimbus Sans L';letter-spacing:0px;word-spacing:0px;fill:#000000;fill-opacity:1;stroke:none;stroke-width:0.26458335"
       x="-1.7377822"
       y="36.39138"
       id="text5194-2"><tspan
         sodipodi:role="line"
         id="tspan5192-8"
         x="-1.7377822"
         y="36.39138"
         style="font-size:7.0555563px;stroke-width:0.26458335">b)</tspan></text>
    <text
       xml:space="preserve"
       style="font-style:normal;font-variant:normal;font-weight:normal;font-stretch:normal;font-size:10.58333397px;line-height:1.25;font-family:'Nimbus Sans L';-inkscape-font-specification:'Nimbus Sans L';letter-spacing:0px;word-spacing:0px;fill:#000000;fill-opacity:1;stroke:none;stroke-width:0.26458335"
       x="-1.5755041"
       y="62.849712"
       id="text5194-2-0"><tspan
         sodipodi:role="line"
         id="tspan5192-8-3"
         x="-1.5755041"
         y="62.849712"
         style="font-size:7.05555677px;stroke-width:0.26458335">c)</tspan></text>
    <text
       xml:space="preserve"
       style="font-style:normal;font-variant:normal;font-weight:normal;font-stretch:normal;font-size:10.58333397px;line-height:1.25;font-family:'Nimbus Sans L';-inkscape-font-specification:'Nimbus Sans L';letter-spacing:0px;word-spacing:0px;fill:#000000;fill-opacity:1;stroke:none;stroke-width:0.26458335"
       x="-1.5402265"
       y="91.95388"
       id="text5194-2-0-7"><tspan
         sodipodi:role="line"
         id="tspan5192-8-3-0"
         x="-1.5402265"
         y="91.95388"
         style="font-size:7.05555725px;stroke-width:0.26458335">d)</tspan></text>
  </g>
</svg>
