<?xml version="1.0" encoding="UTF-8" standalone="no"?>
<!-- Created with Inkscape (http://www.inkscape.org/) -->

<svg
   xmlns:dc="http://purl.org/dc/elements/1.1/"
   xmlns:cc="http://creativecommons.org/ns#"
   xmlns:rdf="http://www.w3.org/1999/02/22-rdf-syntax-ns#"
   xmlns:svg="http://www.w3.org/2000/svg"
   xmlns="http://www.w3.org/2000/svg"
   xmlns:sodipodi="http://sodipodi.sourceforge.net/DTD/sodipodi-0.dtd"
   xmlns:inkscape="http://www.inkscape.org/namespaces/inkscape"
   width="731.86993"
   height="181.44536"
   id="svg7815"
   version="1.1"
   inkscape:version="0.92.5 (2060ec1f9f, 2020-04-08)"
   sodipodi:docname="04_Odprt_resonator.svg"
   inkscape:export-filename="/home/jetra/mojca/HomeMojca/MojcaNova/slike/04_Odprt_resonator.png"
   inkscape:export-xdpi="300"
   inkscape:export-ydpi="300"
   viewBox="0 0 686.12805 170.10503">
  <sodipodi:namedview
     id="base"
     pagecolor="#ffffff"
     bordercolor="#666666"
     borderopacity="1.0"
     inkscape:pageopacity="0.0"
     inkscape:pageshadow="2"
     inkscape:zoom="1.1222968"
     inkscape:cx="374.45285"
     inkscape:cy="160.53873"
     inkscape:document-units="px"
     inkscape:current-layer="layer1"
     showgrid="false"
     inkscape:window-width="1370"
     inkscape:window-height="954"
     inkscape:window-x="468"
     inkscape:window-y="44"
     inkscape:window-maximized="0"
     showguides="false"
     inkscape:guide-bbox="true"
     fit-margin-top="0"
     fit-margin-left="0"
     fit-margin-right="0"
     fit-margin-bottom="0">
    <sodipodi:guide
       id="guide3248"
       position="232.81005,-275.99822"
       orientation="1,0"
       inkscape:locked="false" />
    <sodipodi:guide
       id="guide3256"
       position="326.38148,-289.56965"
       orientation="1,0"
       inkscape:locked="false" />
    <sodipodi:guide
       id="guide21735"
       position="294.23862,-266.53394"
       orientation="0,1"
       inkscape:locked="false" />
    <sodipodi:guide
       id="guide21737"
       position="289.59576,-309.92679"
       orientation="0,1"
       inkscape:locked="false" />
    <sodipodi:guide
       id="guide21739"
       position="278.34576,-292.06965"
       orientation="0,1"
       inkscape:locked="false" />
    <sodipodi:guide
       id="guide21741"
       position="310.13147,-276.35536"
       orientation="0,1"
       inkscape:locked="false" />
    <sodipodi:guide
       id="guide21743"
       position="230.66719,-400.28394"
       orientation="0,1"
       inkscape:locked="false" />
    <sodipodi:guide
       id="guide21745"
       position="264.86238,-289.10273"
       orientation="0,1"
       inkscape:locked="false" />
    <sodipodi:guide
       id="guide21747"
       position="278.37317,-290.55482"
       orientation="0,1"
       inkscape:locked="false" />
  </sodipodi:namedview>
  <defs
     id="defs7817">
    <marker
       style="overflow:visible"
       id="Arrow1Mendly"
       refX="0"
       refY="0"
       orient="auto"
       inkscape:stockid="Arrow1Mendly">
      <path
         transform="matrix(-0.4,0,0,-0.4,-4,0)"
         style="fill:#800000;fill-rule:evenodd;stroke:#800000;stroke-width:1.00000003pt"
         d="M 0,0 5,-5 -12.5,0 5,5 Z"
         id="path4342"
         inkscape:connector-curvature="0" />
    </marker>
    <marker
       style="overflow:visible"
       id="marker7801"
       refX="0"
       refY="0"
       orient="auto"
       inkscape:stockid="Arrow1Mendly">
      <path
         transform="matrix(-0.4,0,0,-0.4,-4,0)"
         style="fill:#800000;fill-rule:evenodd;stroke:#800000;stroke-width:1.00000003pt"
         d="M 0,0 5,-5 -12.5,0 5,5 Z"
         id="path7803"
         inkscape:connector-curvature="0" />
    </marker>
    <marker
       style="overflow:visible"
       id="Arrow1Mendly-9"
       refX="0"
       refY="0"
       orient="auto"
       inkscape:stockid="Arrow1Mendly">
      <path
         transform="matrix(-0.4,0,0,-0.4,-4,0)"
         style="fill:#800000;fill-rule:evenodd;stroke:#800000;stroke-width:1.00000003pt"
         d="M 0,0 5,-5 -12.5,0 5,5 Z"
         id="path4342-7"
         inkscape:connector-curvature="0" />
    </marker>
    <marker
       style="overflow:visible"
       id="marker7906"
       refX="0"
       refY="0"
       orient="auto"
       inkscape:stockid="Arrow1Mendly">
      <path
         transform="matrix(-0.4,0,0,-0.4,-4,0)"
         style="fill:#800000;fill-rule:evenodd;stroke:#800000;stroke-width:1.00000003pt"
         d="M 0,0 5,-5 -12.5,0 5,5 Z"
         id="path7908"
         inkscape:connector-curvature="0" />
    </marker>
    <marker
       style="overflow:visible"
       id="DotM"
       refX="0"
       refY="0"
       orient="auto"
       inkscape:stockid="DotM">
      <path
         transform="matrix(0.4,0,0,0.4,2.96,0.4)"
         style="fill-rule:evenodd;stroke:#000000;stroke-width:1.00000003pt"
         d="m -2.5,-1 c 0,2.76 -2.24,5 -5,5 -2.76,0 -5,-2.24 -5,-5 0,-2.76 2.24,-5 5,-5 2.76,0 5,2.24 5,5 z"
         id="path3902"
         inkscape:connector-curvature="0" />
    </marker>
    <marker
       style="overflow:visible"
       id="Arrow1Mendly-0"
       refX="0"
       refY="0"
       orient="auto"
       inkscape:stockid="Arrow1Mendly">
      <path
         transform="matrix(-0.4,0,0,-0.4,-4,0)"
         style="fill:#800000;fill-rule:evenodd;stroke:#800000;stroke-width:1.00000003pt"
         d="M 0,0 5,-5 -12.5,0 5,5 Z"
         id="path4342-9"
         inkscape:connector-curvature="0" />
    </marker>
    <marker
       style="overflow:visible"
       id="marker8018"
       refX="0"
       refY="0"
       orient="auto"
       inkscape:stockid="Arrow1Mendly">
      <path
         transform="matrix(-0.4,0,0,-0.4,-4,0)"
         style="fill:#800000;fill-rule:evenodd;stroke:#800000;stroke-width:1.00000003pt"
         d="M 0,0 5,-5 -12.5,0 5,5 Z"
         id="path8020"
         inkscape:connector-curvature="0" />
    </marker>
    <marker
       style="overflow:visible"
       id="Arrow1Mendly-5"
       refX="0"
       refY="0"
       orient="auto"
       inkscape:stockid="Arrow1Mendly">
      <path
         transform="matrix(-0.4,0,0,-0.4,-4,0)"
         style="fill:#800000;fill-rule:evenodd;stroke:#800000;stroke-width:1.00000003pt"
         d="M 0,0 5,-5 -12.5,0 5,5 Z"
         id="path4342-6"
         inkscape:connector-curvature="0" />
    </marker>
    <marker
       style="overflow:visible"
       id="Arrow1Mend-9"
       refX="0"
       refY="0"
       orient="auto"
       inkscape:stockid="Arrow1Mend">
      <path
         transform="matrix(-0.4,0,0,-0.4,-4,0)"
         style="fill-rule:evenodd;stroke:#000000;stroke-width:1.00000003pt"
         d="M 0,0 5,-5 -12.5,0 5,5 Z"
         id="path3847-21"
         inkscape:connector-curvature="0" />
    </marker>
    <marker
       style="overflow:visible"
       id="marker8147"
       refX="0"
       refY="0"
       orient="auto"
       inkscape:stockid="Arrow1Mendly">
      <path
         transform="matrix(-0.4,0,0,-0.4,-4,0)"
         style="fill:#800000;fill-rule:evenodd;stroke:#800000;stroke-width:1.00000003pt"
         d="M 0,0 5,-5 -12.5,0 5,5 Z"
         id="path8149"
         inkscape:connector-curvature="0" />
    </marker>
    <marker
       style="overflow:visible"
       id="Arrow1Mstart-6"
       refX="0"
       refY="0"
       orient="auto"
       inkscape:stockid="Arrow1Mstart">
      <path
         transform="matrix(0.4,0,0,0.4,4,0)"
         style="fill-rule:evenodd;stroke:#000000;stroke-width:1.00000003pt"
         d="M 0,0 5,-5 -12.5,0 5,5 Z"
         id="path3844-2"
         inkscape:connector-curvature="0" />
    </marker>
    <marker
       style="overflow:visible"
       id="Arrow1Mend-9-6"
       refX="0"
       refY="0"
       orient="auto"
       inkscape:stockid="Arrow1Mend">
      <path
         transform="matrix(-0.4,0,0,-0.4,-4,0)"
         style="fill-rule:evenodd;stroke:#000000;stroke-width:1.00000003pt"
         d="M 0,0 5,-5 -12.5,0 5,5 Z"
         id="path3847-21-3"
         inkscape:connector-curvature="0" />
    </marker>
    <marker
       style="overflow:visible"
       id="Arrow1Mendly-4"
       refX="0"
       refY="0"
       orient="auto"
       inkscape:stockid="Arrow1Mendly">
      <path
         transform="matrix(-0.4,0,0,-0.4,-4,0)"
         style="fill:#800000;fill-rule:evenodd;stroke:#800000;stroke-width:1.00000003pt"
         d="M 0,0 5,-5 -12.5,0 5,5 Z"
         id="path4342-0"
         inkscape:connector-curvature="0" />
    </marker>
    <marker
       style="overflow:visible"
       id="marker8293"
       refX="0"
       refY="0"
       orient="auto"
       inkscape:stockid="Arrow1Mendly">
      <path
         transform="matrix(-0.4,0,0,-0.4,-4,0)"
         style="fill:#800000;fill-rule:evenodd;stroke:#800000;stroke-width:1.00000003pt"
         d="M 0,0 5,-5 -12.5,0 5,5 Z"
         id="path8295"
         inkscape:connector-curvature="0" />
    </marker>
    <marker
       style="overflow:visible"
       id="DotM-6"
       refX="0"
       refY="0"
       orient="auto"
       inkscape:stockid="DotM">
      <path
         transform="matrix(0.4,0,0,0.4,2.96,0.4)"
         style="fill-rule:evenodd;stroke:#000000;stroke-width:1.00000003pt"
         d="m -2.5,-1 c 0,2.76 -2.24,5 -5,5 -2.76,0 -5,-2.24 -5,-5 0,-2.76 2.24,-5 5,-5 2.76,0 5,2.24 5,5 z"
         id="path3902-9"
         inkscape:connector-curvature="0" />
    </marker>
    <marker
       style="overflow:visible"
       id="Arrow1Mstart-6-0"
       refX="0"
       refY="0"
       orient="auto"
       inkscape:stockid="Arrow1Mstart">
      <path
         transform="matrix(0.4,0,0,0.4,4,0)"
         style="fill-rule:evenodd;stroke:#000000;stroke-width:1.00000003pt"
         d="M 0,0 5,-5 -12.5,0 5,5 Z"
         id="path3844-2-9"
         inkscape:connector-curvature="0" />
    </marker>
    <clipPath
       id="cp1">
      <polygon
         id="polygon22293"
         points="-4.49423e+307,-4.49423e+307 -4.49423e+307,4.49423e+307 4.49423e+307,4.49423e+307 4.49423e+307,-4.49423e+307 " />
    </clipPath>
    <clipPath
       id="cp2">
      <polygon
         id="polygon22300"
         points="74,13 74,235 434,235 434,13 " />
    </clipPath>
  </defs>
  <metadata
     id="metadata7820">
    <rdf:RDF>
      <cc:Work
         rdf:about="">
        <dc:format>image/svg+xml</dc:format>
        <dc:type
           rdf:resource="http://purl.org/dc/dcmitype/StillImage" />
        <dc:title></dc:title>
      </cc:Work>
    </rdf:RDF>
  </metadata>
  <g
     transform="translate(-46.832809,-32.330368)"
     id="layer1"
     inkscape:groupmode="layer"
     inkscape:label="Layer 1">
    <text
       id="text4301"
       y="52.880047"
       x="193.66071"
       style="font-style:normal;font-variant:normal;font-weight:normal;font-stretch:normal;line-height:0%;font-family:msbm10;-inkscape-font-specification:msbm10;letter-spacing:0px;word-spacing:0px;fill:#000000;fill-opacity:1;stroke:none;stroke-width:1px;stroke-linecap:butt;stroke-linejoin:miter;stroke-opacity:1"
       xml:space="preserve"><tspan
         style="font-style:italic;font-variant:normal;font-weight:normal;font-stretch:normal;font-size:25px;line-height:1.25;font-family:'Nimbus Roman No9 L';-inkscape-font-specification:'Nimbus Roman No9 L Italic'"
         y="52.880047"
         x="193.66071"
         id="tspan4303"
         sodipodi:role="line">$L$</tspan></text>
    <text
       id="text4301-6"
       y="202.93539"
       x="159.77322"
       style="font-style:normal;font-variant:normal;font-weight:normal;font-stretch:normal;line-height:0%;font-family:msbm10;-inkscape-font-specification:msbm10;letter-spacing:0px;word-spacing:0px;fill:#000000;fill-opacity:1;stroke:none;stroke-width:1px;stroke-linecap:butt;stroke-linejoin:miter;stroke-opacity:1"
       xml:space="preserve"><tspan
         style="font-style:italic;font-variant:normal;font-weight:normal;font-stretch:normal;font-size:25px;line-height:1.25;font-family:'Nimbus Roman No9 L';-inkscape-font-specification:'Nimbus Roman No9 L Italic'"
         y="202.93539"
         x="159.77322"
         id="tspan4303-0"
         sodipodi:role="line">$k_n=n\pi/L$</tspan></text>
    <text
       xml:space="preserve"
       style="font-style:normal;font-weight:normal;font-size:37.5px;line-height:1.25;font-family:sans-serif;letter-spacing:0px;word-spacing:0px;fill:#000000;fill-opacity:1;stroke:none;stroke-width:0.9375"
       x="403.85446"
       y="48.861172"
       id="text77"><tspan
         sodipodi:role="line"
         id="tspan75"
         x="403.85446"
         y="48.861172"
         style="font-size:20px;stroke-width:0.9375">b)</tspan></text>
    <text
       xml:space="preserve"
       style="font-style:normal;font-weight:normal;font-size:37.5px;line-height:1.25;font-family:sans-serif;letter-spacing:0px;word-spacing:0px;fill:#000000;fill-opacity:1;stroke:none;stroke-width:0.9375"
       x="47.218445"
       y="47.688515"
       id="text77-3"><tspan
         sodipodi:role="line"
         id="tspan75-6"
         x="47.218445"
         y="47.688515"
         style="font-size:20px;stroke-width:0.9375">a)</tspan></text>
    <path
       sodipodi:nodetypes="cc"
       inkscape:connector-curvature="0"
       id="path4217-1"
       d="M 443.8328,185.88249 442.96877,48.698433"
       style="fill:none;stroke:#000000;stroke-width:5.31312275;stroke-miterlimit:4;stroke-dasharray:none" />
    <path
       sodipodi:nodetypes="cc"
       inkscape:connector-curvature="0"
       id="path4219-8"
       d="M 440.61735,185.77431 439.75331,48.590251"
       style="fill:none;stroke:#c1d5e9;stroke-width:5.31312275;stroke-miterlimit:4;stroke-dasharray:none" />
    <path
       style="fill:none;stroke:#000000;stroke-width:5.31312275;stroke-miterlimit:4;stroke-dasharray:none"
       d="m 683.21207,48.590298 0.86404,137.184052"
       id="path4350"
       inkscape:connector-curvature="0"
       sodipodi:nodetypes="cc" />
    <path
       style="fill:none;stroke:#c1d5e9;stroke-width:5.31312275;stroke-miterlimit:4;stroke-dasharray:none"
       d="M 686.42753,48.44593 687.29157,185.63"
       id="path4352"
       inkscape:connector-curvature="0"
       sodipodi:nodetypes="cc" />
    <path
       style="color:#000000;font-style:normal;font-variant:normal;font-weight:normal;font-stretch:normal;font-size:medium;line-height:normal;font-family:sans-serif;text-indent:0;text-align:start;text-decoration:none;text-decoration-line:none;letter-spacing:normal;word-spacing:normal;text-transform:none;writing-mode:lr-tb;direction:ltr;baseline-shift:baseline;text-anchor:start;display:inline;overflow:visible;visibility:visible;fill:#d40000;fill-opacity:1;fill-rule:nonzero;stroke:#d40000;stroke-width:0;stroke-miterlimit:4;stroke-dasharray:none;stroke-opacity:1;enable-background:accumulate"
       d="M 723.36007,42.000215 444.836,57.667953 l 0.006,3.019925 211.27472,11.229242 -211.28851,13.103407 0.0138,3.017958 211.27472,11.229242 -211.28851,13.103403 0.0138,3.01795 211.27472,11.22925 -211.28851,13.10341 0.0138,3.01796 211.27472,11.22923 -211.28851,13.10341 0.008,3.01796 108.46534,6.13435 0.17127,-3.01993 -82.99086,-4.69328 212.02281,-13.14869 -0.0138,-3.01993 -211.25897,-11.22924 211.27275,-13.10144 -0.0138,-3.01992 L 471.23215,113.76297 682.5049,100.66154 682.4911,97.641613 471.23213,86.412371 682.50488,73.310932 682.49108,70.291006 472.7086,59.140511 723.52938,45.018172 c -0.0564,-1.005986 -0.11287,-2.011971 -0.16931,-3.017957 z"
       id="path19331"
       inkscape:connector-curvature="0"
       sodipodi:nodetypes="cccccccccccccccccccccccccccccccc" />
    <path
       style="fill:#d40000;fill-opacity:1;fill-rule:evenodd;stroke:#d40000;stroke-width:0.86887604pt;stroke-opacity:1"
       d="m 536.67669,173.71899 4.52222,-4.15896 -15.37367,3.70489 15.01041,4.97628 z"
       id="path4335"
       inkscape:connector-curvature="0" />
    <path
       style="fill:#d40000;fill-opacity:1;fill-rule:evenodd;stroke:#d40000;stroke-width:1.13631296;stroke-miterlimit:4;stroke-dasharray:none;stroke-opacity:1"
       d="m 720.48035,43.659981 -4.3403,4.740951 15.69188,-5.241756 -16.09254,-3.839502 z"
       id="path4337"
       inkscape:connector-curvature="0" />
    <g
       id="g2342">
      <path
         style="fill:none;stroke:#000000;stroke-width:1.30762339;stroke-linecap:butt;stroke-linejoin:miter;stroke-miterlimit:4;stroke-dasharray:none;stroke-opacity:1;marker-start:url(#Arrow1Mstart-6-0);marker-end:url(#Arrow1Mend-9-6)"
         d="M 89.50149,56.349949 H 320.10233"
         id="path21794"
         inkscape:connector-curvature="0" />
      <path
         style="fill:none;stroke:#000000;stroke-width:5.31312275;stroke-miterlimit:4;stroke-dasharray:none"
         d="M 85.443818,185.98709 84.579788,48.80303"
         id="path4217-1-4"
         inkscape:connector-curvature="0"
         sodipodi:nodetypes="cc" />
      <path
         style="fill:none;stroke:#c1d5e9;stroke-width:5.31312275;stroke-miterlimit:4;stroke-dasharray:none"
         d="M 82.228368,185.87892 81.364318,48.694856"
         id="path4219-8-2"
         inkscape:connector-curvature="0"
         sodipodi:nodetypes="cc" />
      <path
         sodipodi:nodetypes="cc"
         inkscape:connector-curvature="0"
         id="path4350-0"
         d="m 324.82309,48.694898 0.86403,137.184062"
         style="fill:none;stroke:#000000;stroke-width:5.31312275;stroke-miterlimit:4;stroke-dasharray:none" />
      <path
         sodipodi:nodetypes="cc"
         inkscape:connector-curvature="0"
         id="path4352-6"
         d="M 328.03854,48.550534 328.90259,185.7346"
         style="fill:none;stroke:#c1d5e9;stroke-width:5.31312275;stroke-miterlimit:4;stroke-dasharray:none" />
      <rect
         style="opacity:1;fill:none;fill-opacity:1;stroke:#000000;stroke-width:2;stroke-linecap:butt;stroke-linejoin:miter;stroke-miterlimit:4;stroke-dasharray:none;stroke-dashoffset:0;stroke-opacity:0"
         id="rect4300"
         width="199.00005"
         height="72.73098"
         x="86.789032"
         y="72.86673" />
      <path
         inkscape:connector-curvature="0"
         style="fill:none;fill-opacity:1;stroke:#d40000;stroke-width:2.50031257;stroke-miterlimit:4;stroke-dasharray:none;stroke-dashoffset:0;stroke-opacity:1"
         d="m 86.216338,73.470997 c 0.800186,-0.874699 1.600373,-1.749315 2.400559,-2.59601 0.800187,-0.846696 1.600373,-1.665186 2.40056,-2.429598 0.800186,-0.764412 1.600373,-1.474318 2.400559,-2.107451 0.800187,-0.633127 1.600373,-1.188934 2.40056,-1.650195 0.800186,-0.461261 1.600373,-0.827347 2.400559,-1.087173 0.800187,-0.259819 1.600373,-0.41272 2.400565,-0.454447 0.80018,-0.04177 1.60037,0.02835 2.40056,0.2074 0.80018,0.179042 1.60037,0.467636 2.40055,0.855965 0.80019,0.388322 1.60038,0.876918 2.40056,1.449644 0.80019,0.572726 1.60038,1.229993 2.40056,1.950405 0.80019,0.720413 1.60038,1.504226 2.40056,2.326143 0.80019,0.82191 1.60038,1.68203 2.40056,2.552761 0.80019,0.870732 1.60038,1.752022 2.40056,2.615757 0.80019,0.863727 1.60038,1.709688 2.40056,2.511057 0.80019,0.801361 1.60037,1.557763 2.40056,2.245396 0.80019,0.687632 1.60037,1.305992 2.40056,1.835806 0.80019,0.529821 1.60037,0.970496 2.40056,1.308534 0.80019,0.338038 1.60037,0.572786 2.40056,0.697382 0.80019,0.124596 1.60037,0.138365 2.40056,0.04155 0.80019,-0.09684 1.60037,-0.304935 2.40055,-0.617003 0.8002,-0.312059 1.60038,-0.728676 2.40057,-1.235962 0.80018,-0.507285 1.60037,-1.105712 2.40056,-1.775705 0.80019,-0.669986 1.60037,-1.41187 2.40055,-2.201615 0.80019,-0.789745 1.60037,-1.627523 2.40057,-2.486398 0.80018,-0.858875 1.60037,-1.738853 2.40055,-2.611805 0.80019,-0.872943 1.60038,-1.738703 2.40057,-2.56977 0.80018,-0.831066 1.60036,-1.627111 2.40055,-2.363017 0.80019,-0.735906 1.60038,-1.411217 2.40056,-2.004791 0.80019,-0.593574 1.60037,-1.104857 2.40057,-1.518047 0.80018,-0.413197 1.60037,-0.727672 2.40055,-0.933997 0.80018,-0.206327 1.60038,-0.303842 2.40056,-0.290073 0.80019,0.0138 1.60037,0.139467 2.40056,0.372447 0.80019,0.232978 1.60038,0.573836 2.40056,1.011091 0.80018,0.437256 1.60037,0.971419 2.40056,1.584927 0.80019,0.6135 1.60037,1.306727 2.40056,2.057153 0.80018,0.750417 1.60038,1.558273 2.40056,2.397515 0.80019,0.839241 1.60037,1.709935 2.40055,2.584191 0.8002,0.874264 1.60038,1.751985 2.40057,2.60522 0.80018,0.853235 1.60037,1.681722 2.40056,2.459235 0.80019,0.777521 1.60037,1.503663 2.40055,2.155621 0.80019,0.651957 1.60038,1.229205 2.40057,1.713812 0.80018,0.484607 1.60037,0.875959 2.40055,1.162153 0.8002,0.286194 1.60038,0.466563 2.40057,0.535993 0.80018,0.06945 1.60036,0.02722 2.40056,-0.124528 0.80018,-0.151774 1.60037,-0.41379 2.40055,-0.777056 0.80019,-0.363266 1.60038,-0.828322 2.40057,-1.379787 0.80018,-0.551457 1.60036,-1.189751 2.40055,-1.894062 0.80019,-0.704303 1.60038,-1.474917 2.40056,-2.28692 0.80019,-0.812004 1.60037,-1.665531 2.40057,-2.533188 0.80018,-0.867649 1.60037,-1.749382 2.40055,-2.617069 0.80018,-0.867679 1.60038,-1.721094 2.40056,-2.53318 0.80019,-0.812093 1.60037,-1.58249 2.40056,-2.286928 0.80019,-0.704439 1.60038,-1.342425 2.40056,-1.894054 0.80019,-0.551638 1.60037,-1.016326 2.40056,-1.379787 0.80019,-0.363469 1.60037,-0.625065 2.40056,-0.777064 0.80018,-0.152001 1.60038,-0.193735 2.40056,-0.124523 0.80019,0.06922 1.60037,0.250012 2.40055,0.535996 0.8002,0.285977 1.60038,0.677725 2.40057,1.162145 0.80018,0.484427 1.60037,1.062005 2.40056,1.71382 0.80019,0.651807 1.60037,1.378197 2.40056,2.155613 0.80018,0.777415 1.60036,1.606053 2.40056,2.459243 0.80018,0.853182 1.60037,1.730948 2.40055,2.605212 0.80019,0.874271 1.60038,1.74489 2.40057,2.584199 0.80018,0.839301 1.60036,1.646977 2.40055,2.397515 0.80019,0.750538 1.60038,1.443495 2.40056,2.057152 0.80019,0.613666 1.60037,1.147477 2.40057,1.58492 0.80018,0.43745 1.60037,0.777903 2.40055,1.011091 0.80018,0.233195 1.60038,0.358459 2.40056,0.372453 0.80019,0.01402 1.60037,-0.08396 2.40056,-0.290072 0.80019,-0.206114 1.60038,-0.521002 2.40056,-0.933996 0.80018,-0.413003 1.60037,-0.924638 2.40056,-1.518047 0.80019,-0.593417 1.60037,-1.269005 2.40056,-2.004791 0.80018,-0.735787 1.60038,-1.532026 2.40056,-2.363018 0.80019,-0.830999 1.60037,-1.696841 2.40055,-2.569777 0.8002,-0.872929 1.60038,-1.752877 2.40057,-2.611797 0.80018,-0.858912 1.60037,-1.696556 2.40056,-2.486399 0.80019,-0.789842 1.60037,-1.531485 2.40056,-2.201614 0.80018,-0.670136 1.60037,-1.26824 2.40056,-1.775705 0.80018,-0.507473 1.60037,-0.923693 2.40055,-1.23597 0.8002,-0.31227 1.60038,-0.519937 2.40057,-0.616997 0.80018,-0.09706 1.60036,-0.08285 2.40056,0.04155 0.80018,0.124374 1.60037,0.359549 2.40055,0.697384 0.80019,0.337828 1.60038,0.778893 2.40057,1.308527 0.80018,0.529642 1.60037,1.148317 2.40055,1.835814 0.80019,0.68749 1.60038,1.444117 2.40056,2.245396 0.80019,0.801279 1.60037,1.64736 2.40057,2.511057 0.80018,0.863697 1.60037,1.744995 2.40055,2.615749 0.80018,0.870754 1.60038,1.730776 2.40056,2.552769 0.80019,0.821985 1.60037,1.605602 2.40056,2.326142 0.80019,0.720533 1.60038,1.377515 2.40056,1.950405 0.80019,0.572891 1.60037,1.061121 2.40056,1.449645 0.80019,0.388524 1.60037,0.676705 2.40056,0.855957 0.80018,0.17926 1.60038,0.248915 2.40056,0.207405 0.80019,-0.04155 1.60037,-0.194836 2.40055,-0.454452 0.8002,-0.259608 1.60038,-0.626092 2.40057,-1.087165 0.80018,-0.461074 1.60037,-1.017226 2.40056,-1.650203 0.80019,-0.632976 1.60037,-1.343136 2.40056,-2.107443 0.80018,-0.764307 1.60037,-1.582962 2.40056,-2.429598 0.80018,-0.846643 1.60037,-1.721312 2.40055,-2.596018"
         title="sin(4*x)"
         id="path966" />
      <path
         inkscape:connector-curvature="0"
         style="fill:none;fill-opacity:1;stroke:#d40000;stroke-width:2.50031257;stroke-miterlimit:4;stroke-dasharray:none;stroke-dashoffset:0;stroke-opacity:1"
         d="m 86.216338,97.844355 c 0.800186,-0.984041 1.600373,-1.967931 2.400559,-2.91215 0.800187,-0.944218 1.600373,-1.848322 2.40056,-2.676232 0.800186,-0.827902 1.600373,-1.578972 2.400559,-2.22349 0.800187,-0.644511 1.600373,-1.181704 2.40056,-1.590619 0.800186,-0.408908 1.600373,-0.688697 2.400559,-0.828887 0.800187,-0.14018 1.600373,-0.139902 2.400565,0 0.80018,0.139912 1.60037,0.420234 2.40056,0.828887 0.80018,0.40866 1.60037,0.946318 2.40055,1.590619 0.80019,0.644308 1.60038,1.395738 2.40056,2.22349 0.80019,0.827752 1.60038,1.732089 2.40056,2.676232 0.80019,0.944136 1.60038,1.928109 2.40056,2.91215 0.80019,0.984045 1.60038,1.967935 2.40056,2.912155 0.80019,0.94421 1.60038,1.84832 2.40056,2.67623 0.80019,0.8279 1.60038,1.57897 2.40056,2.22349 0.80019,0.64451 1.60037,1.1817 2.40056,1.59062 0.80019,0.4089 1.60037,0.68869 2.40056,0.82888 0.80019,0.14018 1.60037,0.1399 2.40056,0 0.80019,-0.13991 1.60037,-0.42023 2.40056,-0.82888 0.80019,-0.40866 1.60037,-0.94632 2.40056,-1.59062 0.80019,-0.64431 1.60037,-1.39574 2.40055,-2.22349 0.8002,-0.82775 1.60038,-1.73209 2.40057,-2.67623 0.80018,-0.94414 1.60037,-1.92811 2.40056,-2.912155 0.80019,-0.984041 1.60037,-1.967931 2.40055,-2.91215 0.80019,-0.944218 1.60038,-1.848322 2.40057,-2.676232 0.80018,-0.827902 1.60037,-1.578972 2.40055,-2.22349 0.80019,-0.644511 1.60038,-1.181704 2.40057,-1.590619 0.80018,-0.408908 1.60036,-0.688697 2.40055,-0.828887 0.80019,-0.14018 1.60038,-0.139902 2.40056,0 0.80019,0.139912 1.60037,0.420234 2.40057,0.828887 0.80018,0.40866 1.60037,0.946318 2.40055,1.590619 0.80018,0.644308 1.60038,1.395738 2.40056,2.22349 0.80019,0.827752 1.60037,1.732089 2.40056,2.676232 0.80019,0.944136 1.60038,1.928109 2.40056,2.91215 0.80018,0.984045 1.60037,1.967935 2.40056,2.912155 0.80019,0.94421 1.60037,1.84832 2.40056,2.67623 0.80018,0.8279 1.60038,1.57897 2.40056,2.22349 0.80019,0.64451 1.60037,1.1817 2.40055,1.59062 0.8002,0.4089 1.60038,0.68869 2.40057,0.82888 0.80018,0.14018 1.60037,0.1399 2.40056,0 0.80019,-0.13991 1.60037,-0.42023 2.40055,-0.82888 0.80019,-0.40866 1.60038,-0.94632 2.40057,-1.59062 0.80018,-0.64431 1.60037,-1.39574 2.40055,-2.22349 0.8002,-0.82775 1.60038,-1.73209 2.40057,-2.67623 0.80018,-0.94414 1.60036,-1.92811 2.40056,-2.912155 0.80018,-0.984041 1.60037,-1.967931 2.40055,-2.91215 0.80019,-0.944218 1.60038,-1.848322 2.40057,-2.676232 0.80018,-0.827902 1.60036,-1.578972 2.40055,-2.22349 0.80019,-0.644511 1.60038,-1.181704 2.40056,-1.590619 0.80019,-0.408908 1.60037,-0.688697 2.40057,-0.828887 0.80018,-0.14018 1.60037,-0.139902 2.40055,0 0.80018,0.139912 1.60038,0.420234 2.40056,0.828887 0.80019,0.40866 1.60037,0.946318 2.40056,1.590619 0.80019,0.644308 1.60038,1.395738 2.40056,2.22349 0.80019,0.827752 1.60037,1.732089 2.40056,2.676232 0.80019,0.944136 1.60037,1.928109 2.40056,2.91215 0.80018,0.984045 1.60038,1.967935 2.40056,2.912155 0.80019,0.94421 1.60037,1.84832 2.40055,2.67623 0.8002,0.8279 1.60038,1.57897 2.40057,2.22349 0.80018,0.64451 1.60037,1.1817 2.40056,1.59062 0.80019,0.4089 1.60037,0.68869 2.40056,0.82888 0.80018,0.14018 1.60037,0.1399 2.40056,0 0.80018,-0.13991 1.60037,-0.42023 2.40055,-0.82888 0.8002,-0.40866 1.60038,-0.94632 2.40057,-1.59062 0.80018,-0.64431 1.60036,-1.39574 2.40056,-2.22349 0.80018,-0.82775 1.60037,-1.73209 2.40055,-2.67623 0.80019,-0.94414 1.60038,-1.92811 2.40057,-2.912155 0.80018,-0.984041 1.60037,-1.967931 2.40055,-2.91215 0.80019,-0.944218 1.60038,-1.848322 2.40056,-2.676232 0.80019,-0.827902 1.60037,-1.578972 2.40057,-2.22349 0.80018,-0.644511 1.60037,-1.181704 2.40055,-1.590619 0.80018,-0.408908 1.60038,-0.688697 2.40056,-0.828887 0.80019,-0.14018 1.60037,-0.139902 2.40056,0 0.80019,0.139912 1.60038,0.420234 2.40056,0.828887 0.80019,0.40866 1.60037,0.946318 2.40056,1.590619 0.80019,0.644308 1.60037,1.395738 2.40056,2.22349 0.80018,0.827752 1.60038,1.732089 2.40056,2.676232 0.80019,0.944136 1.60037,1.928109 2.40056,2.91215 0.80019,0.984045 1.60037,1.967935 2.40056,2.912155 0.80018,0.94421 1.60037,1.84832 2.40056,2.67623 0.80019,0.8279 1.60037,1.57897 2.40056,2.22349 0.80018,0.64451 1.60037,1.1817 2.40056,1.59062 0.80018,0.4089 1.60037,0.68869 2.40055,0.82888 0.8002,0.14018 1.60038,0.1399 2.40057,0 0.80018,-0.13991 1.60037,-0.42023 2.40056,-0.82888 0.80018,-0.40866 1.60037,-0.94632 2.40055,-1.59062 0.80019,-0.64431 1.60038,-1.39574 2.40057,-2.22349 0.80018,-0.82775 1.60037,-1.73209 2.40055,-2.67623 0.80018,-0.94414 1.60038,-1.92811 2.40056,-2.912155 0.80019,-0.984041 1.60037,-1.967931 2.40056,-2.91215 0.80019,-0.944218 1.60038,-1.848322 2.40056,-2.676232 0.80019,-0.827902 1.60037,-1.578972 2.40056,-2.22349 0.80019,-0.644511 1.60037,-1.181704 2.40056,-1.590619 0.80018,-0.408908 1.60038,-0.688697 2.40056,-0.828887 0.80019,-0.14018 1.60037,-0.139902 2.40055,0 0.8002,0.139912 1.60038,0.420234 2.40057,0.828887 0.80018,0.40866 1.60037,0.946318 2.40056,1.590619 0.80019,0.644308 1.60037,1.395738 2.40056,2.22349 0.80018,0.827752 1.60037,1.732089 2.40056,2.676232 0.80018,0.944136 1.60037,1.928109 2.40055,2.91215"
         title="sin(4.5*x)"
         id="path1062" />
      <path
         inkscape:connector-curvature="0"
         style="fill:none;fill-opacity:1;stroke:#d40000;stroke-width:2.50031257;stroke-miterlimit:4;stroke-dasharray:none;stroke-dashoffset:0;stroke-opacity:1"
         d="m 86.216338,122.21771 c 0.800186,-1.09338 1.600373,-2.18651 2.400559,-3.22535 0.800187,-1.03885 1.600373,-2.02272 2.40056,-2.90329 0.800186,-0.88057 1.600373,-1.65693 2.400559,-2.29129 0.800187,-0.63437 1.600373,-1.12569 2.40056,-1.45049 0.800186,-0.32482 1.600373,-0.48203 2.400559,-0.46486 0.800187,0.0172 1.600373,0.20975 2.400565,0.5672 0.80018,0.35745 1.60037,0.8806 2.40056,1.54262 0.80018,0.66203 1.60037,1.46351 2.40055,2.364 0.80019,0.90049 1.60038,1.90027 2.40056,2.94931 0.80019,1.04904 1.60038,2.14728 2.40056,3.24011 0.80019,1.09284 1.60038,2.17986 2.40056,3.20736 0.80019,1.0275 1.60038,1.99477 2.40056,2.85434 0.80019,0.85955 1.60037,1.61048 2.40056,2.21627 0.80019,0.60579 1.60037,1.06538 2.40056,1.35691 0.80019,0.29152 1.60037,0.41389 2.40056,0.36204 0.80019,-0.0519 1.60037,-0.27893 2.40056,-0.66898 0.80019,-0.39005 1.60037,-0.9439 2.40056,-1.63319 0.80018,-0.6893 1.60037,-1.51461 2.40056,-2.43432 0.80019,-0.91972 1.60037,-1.93408 2.40056,-2.99238 0.80018,-1.05829 1.60037,-2.16041 2.40056,-3.25159 0.80019,-1.09119 1.60037,-2.17101 2.40056,-3.18614 0.80019,-1.01512 1.60038,-1.96482 2.40056,-2.80251 0.80019,-0.83769 1.60037,-1.56242 2.40056,-2.13903 0.80019,-0.5766 1.60037,-1.00401 2.40056,-1.26195 0.80018,-0.25794 1.60038,-0.34534 2.40056,-0.25886 0.80019,0.0865 1.60037,0.34781 2.40056,0.77008 0.80019,0.42226 1.60037,1.00625 2.40056,1.72212 0.80018,0.71588 1.60037,1.56419 2.40056,2.5022 0.80019,0.93802 1.60037,1.96594 2.40056,3.03241 0.80018,1.06648 1.60037,2.17137 2.40056,3.25982 0.80018,1.08844 1.60037,2.15997 2.40055,3.16169 0.8002,1.00173 1.60038,1.9329 2.40057,2.74786 0.80018,0.81498 1.60037,1.5128 2.40056,2.05964 0.80018,0.54684 1.60037,0.94163 2.40055,1.16573 0.80019,0.2241 1.60038,0.27643 2.40057,0.15542 0.80018,-0.12102 1.60037,-0.41636 2.40055,-0.87041 0.8002,-0.45405 1.60038,-1.06758 2.40056,-1.80932 0.80018,-0.74174 1.60037,-1.61219 2.40056,-2.56755 0.80018,-0.95537 1.60038,-1.99582 2.40056,-3.06941 0.80019,-1.07358 1.60036,-2.18014 2.40056,-3.26474 0.80018,-1.0846 1.60036,-2.14676 2.40055,-3.13408 0.80018,-0.98731 1.60038,-1.89901 2.40056,-2.69045 0.80019,-0.79143 1.60037,-1.46163 2.40056,-1.97816 0.80019,-0.51652 1.60037,-0.8783 2.40056,-1.06832 0.80018,-0.19004 1.60037,-0.20726 2.40056,-0.0518 0.80019,0.15544 1.60037,0.48448 2.40056,0.96986 0.80018,0.48538 1.60037,1.12784 2.40056,1.8947 0.80018,0.76685 1.60037,1.65857 2.40055,2.63032 0.8002,0.97176 1.60038,2.02369 2.40057,3.10331 0.80018,1.07961 1.60037,2.18671 2.40056,3.26638 0.80018,1.07968 1.60037,2.13139 2.40055,3.10331 0.80019,0.97191 1.60038,1.86322 2.40057,2.63033 0.80018,0.76709 1.60037,1.409 2.40055,1.89469 0.8002,0.48568 1.60038,0.81408 2.40056,0.96985 0.80019,0.15578 1.60037,0.13787 2.40057,-0.0518 0.80018,-0.18969 1.60037,-0.55211 2.40055,-1.06834 0.80019,-0.51621 1.60038,-1.18696 2.40056,-1.97815 0.80019,-0.79119 1.60037,-1.70328 2.40056,-2.69045 0.80019,-0.98716 1.60038,-2.04952 2.40056,-3.13407 0.80019,-1.08457 1.60037,-2.1911 2.40057,-3.26475 0.80018,-1.07365 1.60036,-2.11387 2.40055,-3.0694 0.80018,-0.95553 1.60038,-1.82557 2.40056,-2.56756 0.80019,-0.74199 1.60037,-1.35495 2.40056,-1.80932 0.80019,-0.45436 1.60037,-0.74905 2.40056,-0.8704 0.80018,-0.12137 1.60037,-0.0683 2.40056,0.15542 0.80019,0.22376 1.60037,0.61919 2.40056,1.16573 0.80018,0.54653 1.60038,1.24488 2.40056,2.05962 0.80018,0.81474 1.60037,1.74628 2.40055,2.74787 0.8002,1.00158 1.60038,2.07328 2.40057,3.16169 0.80018,1.08842 1.60037,2.19326 2.40055,3.25982 0.80019,1.06655 1.60038,2.09422 2.40056,3.03241 0.80019,0.93819 1.60037,1.78606 2.40057,2.5022 0.80018,0.71614 1.60037,1.29954 2.40055,1.72212 0.80019,0.42258 1.60038,0.68326 2.40056,0.77009 0.80019,0.0868 1.60037,-0.002 2.40056,-0.25887 0.80019,-0.25761 1.60038,-0.68564 2.40056,-1.26196 0.80019,-0.5763 1.60037,-1.30156 2.40057,-2.13902 0.80018,-0.83746 1.60036,-1.78752 2.40055,-2.80251 0.80018,-1.015 1.60038,-2.09497 2.40056,-3.18613 0.80019,-1.09117 1.60037,-2.19322 2.40056,-3.2516 0.80019,-1.05838 1.60037,-2.07247 2.40056,-2.99237 0.80018,-0.9199 1.60037,-1.74476 2.40056,-2.43432 0.80019,-0.68957 1.60037,-1.24282 2.40056,-1.6332 0.80018,-0.39037 1.60038,-0.61677 2.40056,-0.66898 0.80018,-0.0522 1.60037,0.0709 2.40055,0.36205 0.8002,0.29118 1.60038,0.7514 2.40057,1.3569 0.80018,0.6055 1.60037,1.35693 2.40056,2.21628 0.80018,0.85934 1.60037,1.82695 2.40055,2.85433 0.80019,1.02738 1.60038,2.11454 2.40057,3.20736 0.80018,1.09282 1.60037,2.19097 2.40055,3.24011 0.8002,1.04914 1.60038,2.04863 2.40056,2.94931 0.80019,0.90069 1.60037,1.7017 2.40057,2.364 0.80018,0.6623 1.60037,1.18485 2.40055,1.54262 0.80019,0.35777 1.60038,0.54968 2.40056,0.5672 0.80019,0.0175 1.60037,-0.14037 2.40056,-0.46485 0.80019,-0.32448 1.60038,-0.81641 2.40056,-1.45049 0.80019,-0.63409 1.60037,-1.41094 2.40057,-2.2913 0.80018,-0.88036 1.60036,-1.86455 2.40055,-2.90328 0.80018,-1.03874 1.60038,-2.13198 2.40056,-3.22536"
         title="sin(5*x)"
         id="path1159" />
      <path
         inkscape:connector-curvature="0"
         style="fill:none;fill-opacity:1;stroke:#d40000;stroke-width:2.50031257;stroke-miterlimit:4;stroke-dasharray:none;stroke-dashoffset:0;stroke-opacity:1"
         d="m 86.216338,146.59107 c 0.800184,-1.20272 1.600369,-2.40507 2.400553,-3.53532 0.800185,-1.13026 1.600379,-2.18744 2.400564,-3.10891 0.800184,-0.92147 1.600369,-1.70597 2.400553,-2.30751 0.800195,-0.60155 1.600379,-1.01875 2.400564,-1.22781 0.800184,-0.20906 1.600369,-0.20865 2.400563,0 0.800185,0.20864 1.60037,0.62663 2.400555,1.22781 0.80018,0.60117 1.60037,1.38631 2.40056,2.30751 0.80019,0.9212 1.60037,1.9788 2.40056,3.10891 0.80018,1.13011 1.60038,2.3326 2.40056,3.53532 0.80018,1.20271 1.60037,2.40506 2.40055,3.53532 0.8002,1.13026 1.60038,2.18744 2.40057,3.1089 0.80018,0.92148 1.60037,1.70598 2.40056,2.30753 0.80019,0.60153 1.60037,1.01874 2.40055,1.2278 0.80019,0.20905 1.60038,0.20864 2.40057,0 0.80018,-0.20864 1.60037,-0.62663 2.40055,-1.2278 0.8002,-0.60118 1.60038,-1.38632 2.40056,-2.30753 0.80019,-0.92119 1.60037,-1.97879 2.40057,-3.1089 0.80018,-1.13012 1.60037,-2.33261 2.40055,-3.53532 0.80019,-1.20272 1.60038,-2.40507 2.40057,-3.53532 0.80018,-1.13026 1.60036,-2.18744 2.40054,-3.10891 0.8002,-0.92147 1.60038,-1.70597 2.40057,-2.30751 0.80018,-0.60155 1.60037,-1.01875 2.40056,-1.22781 0.80019,-0.20906 1.60037,-0.20865 2.40055,0 0.80019,0.20864 1.60038,0.62663 2.40057,1.22781 0.80018,0.60117 1.60037,1.38631 2.40055,2.30751 0.8002,0.9212 1.60038,1.9788 2.40057,3.10891 0.80018,1.13011 1.60036,2.3326 2.40056,3.53532 0.80018,1.20271 1.60037,2.40506 2.40055,3.53532 0.80019,1.13026 1.60038,2.18744 2.40057,3.1089 0.80018,0.92148 1.60037,1.70598 2.40055,2.30753 0.80019,0.60153 1.60038,1.01874 2.40056,1.2278 0.80019,0.20905 1.60037,0.20864 2.40057,0 0.80018,-0.20864 1.60037,-0.62663 2.40055,-1.2278 0.80018,-0.60118 1.60038,-1.38632 2.40056,-2.30753 0.80019,-0.92119 1.60037,-1.97879 2.40056,-3.1089 0.80019,-1.13012 1.60038,-2.33261 2.40056,-3.53532 0.80019,-1.20272 1.60037,-2.40507 2.40056,-3.53532 0.80019,-1.13026 1.60037,-2.18744 2.40056,-3.10891 0.80018,-0.92147 1.60038,-1.70597 2.40056,-2.30751 0.80019,-0.60155 1.60037,-1.01875 2.40055,-1.22781 0.8002,-0.20906 1.60038,-0.20865 2.40057,0 0.80018,0.20864 1.60037,0.62663 2.40056,1.22781 0.80019,0.60117 1.60037,1.38631 2.40056,2.30751 0.80018,0.9212 1.60037,1.9788 2.40056,3.10891 0.80018,1.13011 1.60037,2.3326 2.40055,3.53532 0.8002,1.20271 1.60038,2.40506 2.40057,3.53532 0.80018,1.13026 1.60036,2.18744 2.40056,3.1089 0.80018,0.92148 1.60037,1.70598 2.40055,2.30753 0.80019,0.60153 1.60038,1.01874 2.40057,1.2278 0.80018,0.20905 1.60037,0.20864 2.40055,0 0.80019,-0.20864 1.60038,-0.62663 2.40056,-1.2278 0.80019,-0.60118 1.60037,-1.38632 2.40057,-2.30753 0.80018,-0.92119 1.60037,-1.97879 2.40055,-3.1089 0.80019,-1.13012 1.60038,-2.33261 2.40056,-3.53532 0.80019,-1.20272 1.60037,-2.40507 2.40056,-3.53532 0.80018,-1.13026 1.60038,-2.18744 2.40056,-3.10891 0.80019,-0.92147 1.60037,-1.70597 2.40055,-2.30751 0.8002,-0.60155 1.60038,-1.01875 2.40057,-1.22781 0.80018,-0.20906 1.60037,-0.20865 2.40056,0 0.80019,0.20864 1.60037,0.62663 2.40056,1.22781 0.80018,0.60117 1.60037,1.38631 2.40056,2.30751 0.80018,0.9212 1.60037,1.9788 2.40055,3.10891 0.8002,1.13011 1.60038,2.3326 2.40057,3.53532 0.80018,1.20271 1.60036,2.40506 2.40056,3.53532 0.80018,1.13026 1.60037,2.18744 2.40055,3.1089 0.80019,0.92148 1.60038,1.70598 2.40057,2.30753 0.80018,0.60153 1.60037,1.01874 2.40055,1.2278 0.80019,0.20905 1.60038,0.20864 2.40056,0 0.80019,-0.20864 1.60037,-0.62663 2.40057,-1.2278 0.80018,-0.60118 1.60037,-1.38632 2.40055,-2.30753 0.80018,-0.92119 1.60038,-1.97879 2.40056,-3.1089 0.80019,-1.13012 1.60037,-2.33261 2.40056,-3.53532 0.80019,-1.20272 1.60038,-2.40507 2.40056,-3.53532 0.80019,-1.13026 1.60037,-2.18744 2.40056,-3.10891 0.80019,-0.92147 1.60037,-1.70597 2.40056,-2.30751 0.80018,-0.60155 1.60038,-1.01875 2.40056,-1.22781 0.80019,-0.20906 1.60037,-0.20865 2.40056,0 0.80019,0.20864 1.60037,0.62663 2.40056,1.22781 0.80018,0.60117 1.60037,1.38631 2.40056,2.30751 0.80019,0.9212 1.60037,1.9788 2.40056,3.10891 0.80018,1.13011 1.60037,2.3326 2.40056,3.53532 0.80018,1.20271 1.60037,2.40506 2.40055,3.53532 0.8002,1.13026 1.60038,2.18744 2.40057,3.1089 0.80018,0.92148 1.60037,1.70598 2.40056,2.30753 0.80018,0.60153 1.60037,1.01874 2.40055,1.2278 0.80019,0.20905 1.60038,0.20864 2.40057,0 0.80018,-0.20864 1.60037,-0.62663 2.40055,-1.2278 0.80019,-0.60118 1.60038,-1.38632 2.40056,-2.30753 0.80019,-0.92119 1.60037,-1.97879 2.40057,-3.1089 0.80018,-1.13012 1.60037,-2.33261 2.40055,-3.53532 0.80019,-1.20272 1.60038,-2.40507 2.40056,-3.53532 0.80019,-1.13026 1.60037,-2.18744 2.40056,-3.10891 0.80019,-0.92147 1.60038,-1.70597 2.40056,-2.30751 0.80019,-0.60155 1.60037,-1.01875 2.40056,-1.22781 0.80019,-0.20906 1.60037,-0.20865 2.40056,0 0.80018,0.20864 1.60038,0.62663 2.40056,1.22781 0.80019,0.60117 1.60037,1.38631 2.40056,2.30751 0.80019,0.9212 1.60037,1.9788 2.40056,3.10891 0.80018,1.13011 1.60037,2.3326 2.40056,3.53532"
         title="sin(5.5*x)"
         id="path1257" />
      <path
         inkscape:connector-curvature="0"
         style="fill:none;fill-opacity:1;stroke:#d40000;stroke-width:2.50031257;stroke-miterlimit:4;stroke-dasharray:none;stroke-dashoffset:0;stroke-opacity:1"
         d="m 86.216338,170.96443 c 0.800186,-1.31205 1.600373,-2.62356 2.400559,-3.84172 0.800187,-1.21816 1.600373,-2.34159 2.40056,-3.29134 0.800186,-0.94975 1.600373,-1.72415 2.400559,-2.26942 0.800187,-0.54528 1.600373,-0.85971 2.40056,-0.92239 0.800186,-0.0627 1.600373,0.1279 2.400559,0.55679 0.800187,0.4289 1.600373,1.09719 2.400565,1.95621 0.80018,0.85903 1.60037,1.90929 2.40056,3.07537 0.80018,1.16609 1.60037,2.44786 2.40055,3.75395 0.80019,1.30609 1.60038,2.63573 2.40056,3.89471 0.80019,1.25898 1.60038,2.446 2.40056,3.47749 0.80019,1.0315 1.60038,1.90585 2.40056,2.5621 0.80019,0.65624 1.60038,1.09266 2.40056,1.27963 0.80019,0.18696 1.60037,0.12292 2.40057,-0.18616 0.80018,-0.30909 1.60037,-0.86442 2.40055,-1.62529 0.80018,-0.76086 1.60038,-1.72791 2.40056,-2.83155 0.80019,-1.10363 1.60037,-2.34387 2.40056,-3.63216 0.80019,-1.2883 1.60038,-2.62404 2.40056,-3.91243 0.80018,-1.28839 1.60037,-2.52826 2.40056,-3.63217 0.80019,-1.1039 1.60037,-2.07028 2.40056,-2.83155 0.80018,-0.76127 1.60038,-1.31571 2.40056,-1.62528 0.80019,-0.30957 1.60037,-0.37264 2.40056,-0.18616 0.80019,0.18648 1.60038,0.62382 2.40056,1.27963 0.80019,0.65581 1.60037,1.5309 2.40056,2.56209 0.80019,1.03119 1.60037,2.21866 2.40056,3.4775 0.80018,1.25884 1.60038,2.58857 2.40056,3.89471 0.80019,1.30614 1.60037,2.58763 2.40056,3.75394 0.80019,1.16631 1.60037,2.21597 2.40056,3.07537 0.80018,0.8594 1.60037,1.52685 2.40055,1.95621 0.8002,0.42937 1.60038,0.61898 2.40057,0.5568 0.80018,-0.0622 1.60037,-0.37757 2.40056,-0.92239 0.80018,-0.54482 1.60037,-1.32002 2.40055,-2.26942 0.80019,-0.94941 1.60038,-2.07337 2.40057,-3.29135 0.80018,-1.21797 1.60037,-2.52966 2.40055,-3.84172 0.80019,-1.31205 1.60038,-2.62356 2.40056,-3.84172 0.80019,-1.21816 1.60037,-2.34159 2.40057,-3.29134 0.80018,-0.94975 1.60037,-1.72415 2.40055,-2.26942 0.80019,-0.54528 1.60038,-0.85971 2.40056,-0.92239 0.80019,-0.0627 1.60037,0.1279 2.40056,0.55679 0.80019,0.4289 1.60038,1.09719 2.40056,1.95621 0.80019,0.85903 1.60037,1.90929 2.40056,3.07537 0.80019,1.16609 1.60037,2.44786 2.40056,3.75395 0.80018,1.30609 1.60038,2.63573 2.40056,3.89471 0.80019,1.25898 1.60037,2.446 2.40056,3.47749 0.80019,1.0315 1.60037,1.90585 2.40056,2.5621 0.80018,0.65624 1.60037,1.09266 2.40056,1.27963 0.80019,0.18696 1.60037,0.12292 2.40056,-0.18616 0.80018,-0.30909 1.60037,-0.86442 2.40056,-1.62529 0.80018,-0.76086 1.60037,-1.72791 2.40055,-2.83155 0.8002,-1.10363 1.60038,-2.34387 2.40057,-3.63216 0.80018,-1.2883 1.60037,-2.62404 2.40056,-3.91243 0.80018,-1.28839 1.60037,-2.52826 2.40055,-3.63217 0.80019,-1.1039 1.60038,-2.07028 2.40057,-2.83155 0.80018,-0.76127 1.60037,-1.31571 2.40055,-1.62528 0.80019,-0.30957 1.60038,-0.37264 2.40056,-0.18616 0.80019,0.18648 1.60037,0.62382 2.40057,1.27963 0.80018,0.65581 1.60037,1.5309 2.40055,2.56209 0.80019,1.03119 1.60038,2.21866 2.40056,3.4775 0.80019,1.25884 1.60037,2.58857 2.40056,3.89471 0.80019,1.30614 1.60038,2.58763 2.40056,3.75394 0.80019,1.16631 1.60037,2.21597 2.40057,3.07537 0.80018,0.8594 1.60036,1.52685 2.40055,1.95621 0.80018,0.42937 1.60038,0.61898 2.40056,0.5568 0.80019,-0.0622 1.60037,-0.37757 2.40056,-0.92239 0.80019,-0.54482 1.60037,-1.32002 2.40056,-2.26942 0.80018,-0.94941 1.60037,-2.07337 2.40056,-3.29135 0.80019,-1.21797 1.60037,-2.52966 2.40056,-3.84172 0.80018,-1.31205 1.60038,-2.62356 2.40056,-3.84172 0.80018,-1.21816 1.60037,-2.34159 2.40055,-3.29134 0.8002,-0.94975 1.60038,-1.72415 2.40057,-2.26942 0.80018,-0.54528 1.60037,-0.85971 2.40056,-0.92239 0.80018,-0.0627 1.60037,0.1279 2.40055,0.55679 0.80019,0.4289 1.60038,1.09719 2.40057,1.95621 0.80018,0.85903 1.60037,1.90929 2.40055,3.07537 0.8002,1.16609 1.60038,2.44786 2.40056,3.75395 0.80019,1.30609 1.60037,2.63573 2.40057,3.89471 0.80018,1.25898 1.60037,2.446 2.40055,3.47749 0.80019,1.0315 1.60038,1.90585 2.40057,2.5621 0.80018,0.65624 1.60036,1.09266 2.40055,1.27963 0.80018,0.18696 1.60038,0.12292 2.40056,-0.18616 0.80019,-0.30909 1.60037,-0.86442 2.40056,-1.62529 0.80019,-0.76086 1.60037,-1.72791 2.40056,-2.83155 0.80018,-1.10363 1.60037,-2.34387 2.40056,-3.63216 0.80019,-1.2883 1.60037,-2.62404 2.40056,-3.91243 0.80018,-1.28839 1.60038,-2.52826 2.40056,-3.63217 0.80018,-1.1039 1.60037,-2.07028 2.40055,-2.83155 0.8002,-0.76127 1.60038,-1.31571 2.40057,-1.62528 0.80018,-0.30957 1.60037,-0.37264 2.40056,-0.18616 0.80018,0.18648 1.60037,0.62382 2.40055,1.27963 0.80019,0.65581 1.60038,1.5309 2.40057,2.56209 0.80018,1.03119 1.60037,2.21866 2.40055,3.4775 0.8002,1.25884 1.60038,2.58857 2.40056,3.89471 0.80019,1.30614 1.60037,2.58763 2.40057,3.75394 0.80018,1.16631 1.60037,2.21597 2.40055,3.07537 0.80019,0.8594 1.60038,1.52685 2.40056,1.95621 0.80019,0.42937 1.60037,0.61898 2.40056,0.5568 0.80019,-0.0622 1.60038,-0.37757 2.40056,-0.92239 0.80019,-0.54482 1.60037,-1.32002 2.40057,-2.26942 0.80018,-0.94941 1.60036,-2.07337 2.40055,-3.29135 0.80018,-1.21797 1.60038,-2.52966 2.40056,-3.84172"
         title="sin(6*x)"
         id="path1356" />
    </g>
  </g>
</svg>
