<?xml version="1.0" encoding="UTF-8" standalone="no"?>
<!-- Created with Inkscape (http://www.inkscape.org/) -->

<svg
   xmlns:dc="http://purl.org/dc/elements/1.1/"
   xmlns:cc="http://creativecommons.org/ns#"
   xmlns:rdf="http://www.w3.org/1999/02/22-rdf-syntax-ns#"
   xmlns:svg="http://www.w3.org/2000/svg"
   xmlns="http://www.w3.org/2000/svg"
   xmlns:sodipodi="http://sodipodi.sourceforge.net/DTD/sodipodi-0.dtd"
   xmlns:inkscape="http://www.inkscape.org/namespaces/inkscape"
   sodipodi:docname="06_pulseML.svg"
   inkscape:version="0.92.5 (2060ec1f9f, 2020-04-08)"
   version="1.1"
   id="svg2"
   viewBox="0 0 1014.9635 288.12895"
   height="81.316399mm"
   width="286.44525mm">
  <sodipodi:namedview
     showguides="false"
     fit-margin-bottom="0"
     fit-margin-right="0"
     fit-margin-left="0"
     fit-margin-top="0"
     inkscape:window-maximized="0"
     inkscape:window-y="22"
     inkscape:window-x="623"
     inkscape:window-height="1015"
     inkscape:window-width="1295"
     showgrid="false"
     inkscape:current-layer="layer1"
     inkscape:document-units="px"
     inkscape:cy="188.1588"
     inkscape:cx="572.03926"
     inkscape:zoom="0.88281251"
     inkscape:pageshadow="2"
     inkscape:pageopacity="0.0"
     borderopacity="1.0"
     bordercolor="#666666"
     pagecolor="#ffffff"
     id="base" />
  <defs
     id="defs4">
    <marker
       inkscape:isstock="true"
       style="overflow:visible"
       id="marker2319"
       refX="0"
       refY="0"
       orient="auto"
       inkscape:stockid="Arrow1Sstart">
      <path
         transform="matrix(0.2,0,0,0.2,1.2,0)"
         style="fill:#000000;fill-opacity:1;fill-rule:evenodd;stroke:#000000;stroke-width:1.00000003pt;stroke-opacity:1"
         d="M 0,0 5,-5 -12.5,0 5,5 Z"
         id="path2317"
         inkscape:connector-curvature="0" />
    </marker>
    <marker
       inkscape:stockid="Arrow1Sstart"
       orient="auto"
       refY="0"
       refX="0"
       id="Arrow1Sstart"
       style="overflow:visible"
       inkscape:isstock="true"
       inkscape:collect="always">
      <path
         id="path1014"
         d="M 0,0 5,-5 -12.5,0 5,5 Z"
         style="fill:#000000;fill-opacity:1;fill-rule:evenodd;stroke:#000000;stroke-width:1.00000003pt;stroke-opacity:1"
         transform="matrix(0.2,0,0,0.2,1.2,0)"
         inkscape:connector-curvature="0" />
    </marker>
    <marker
       inkscape:stockid="Arrow1Send"
       orient="auto"
       refY="0"
       refX="0"
       id="marker1945"
       style="overflow:visible"
       inkscape:isstock="true">
      <path
         id="path1943"
         d="M 0,0 5,-5 -12.5,0 5,5 Z"
         style="fill:#000000;fill-opacity:1;fill-rule:evenodd;stroke:#000000;stroke-width:1.00000003pt;stroke-opacity:1"
         transform="matrix(-0.2,0,0,-0.2,-1.2,0)"
         inkscape:connector-curvature="0" />
    </marker>
    <marker
       inkscape:stockid="Arrow1Mstart"
       orient="auto"
       refY="0"
       refX="0"
       id="Arrow1Mstart"
       style="overflow:visible"
       inkscape:isstock="true">
      <path
         id="path1008"
         d="M 0,0 5,-5 -12.5,0 5,5 Z"
         style="fill:#000000;fill-opacity:1;fill-rule:evenodd;stroke:#000000;stroke-width:1.00000003pt;stroke-opacity:1"
         transform="matrix(0.4,0,0,0.4,4,0)"
         inkscape:connector-curvature="0" />
    </marker>
    <marker
       inkscape:stockid="Arrow1Send"
       orient="auto"
       refY="0"
       refX="0"
       id="marker1265"
       style="overflow:visible"
       inkscape:isstock="true">
      <path
         id="path1017"
         d="M 0,0 5,-5 -12.5,0 5,5 Z"
         style="fill:#000000;fill-opacity:1;fill-rule:evenodd;stroke:#000000;stroke-width:1.00000003pt;stroke-opacity:1"
         transform="matrix(-0.2,0,0,-0.2,-1.2,0)"
         inkscape:connector-curvature="0" />
    </marker>
    <marker
       inkscape:stockid="Arrow1Mend"
       orient="auto"
       refY="0"
       refX="0"
       id="marker5248"
       style="overflow:visible"
       inkscape:isstock="true">
      <path
         id="path5250"
         d="M 0,0 5,-5 -12.5,0 5,5 Z"
         style="fill:#000000;fill-opacity:1;fill-rule:evenodd;stroke:#000000;stroke-width:1.00000003pt;stroke-opacity:1"
         transform="matrix(-0.4,0,0,-0.4,-4,0)"
         inkscape:connector-curvature="0" />
    </marker>
    <marker
       inkscape:stockid="Arrow1Mend"
       orient="auto"
       refY="0"
       refX="0"
       id="Arrow1Mend"
       style="overflow:visible"
       inkscape:isstock="true">
      <path
         id="path4255"
         d="M 0,0 5,-5 -12.5,0 5,5 Z"
         style="fill:#d99238;fill-opacity:1;fill-rule:evenodd;stroke:#d99238;stroke-width:1.00000003pt;stroke-opacity:1"
         transform="matrix(-0.4,0,0,-0.4,-4,0)"
         inkscape:connector-curvature="0" />
    </marker>
    <marker
       inkscape:stockid="Arrow1Send"
       orient="auto"
       refY="0"
       refX="0"
       id="Arrow1Send"
       style="overflow:visible"
       inkscape:isstock="true">
      <path
         id="path4178"
         d="M 0,0 5,-5 -12.5,0 5,5 Z"
         style="fill:#d40000;fill-opacity:1;fill-rule:evenodd;stroke:#d40000;stroke-width:1.00000003pt;stroke-opacity:1"
         transform="matrix(-0.2,0,0,-0.2,-1.2,0)"
         inkscape:connector-curvature="0" />
    </marker>
    <marker
       inkscape:stockid="Arrow1Mend"
       orient="auto"
       refY="0"
       refX="0"
       id="Arrow1Mend-5"
       style="overflow:visible"
       inkscape:isstock="true">
      <path
         inkscape:connector-curvature="0"
         id="path4255-6"
         d="M 0,0 5,-5 -12.5,0 5,5 Z"
         style="fill:#d99238;fill-opacity:1;fill-rule:evenodd;stroke:#d99238;stroke-width:1.00000003pt;stroke-opacity:1"
         transform="matrix(-0.4,0,0,-0.4,-4,0)" />
    </marker>
    <marker
       inkscape:stockid="Arrow1Mend"
       orient="auto"
       refY="0"
       refX="0"
       id="Arrow1Mend-9"
       style="overflow:visible"
       inkscape:isstock="true">
      <path
         inkscape:connector-curvature="0"
         id="path4255-1"
         d="M 0,0 5,-5 -12.5,0 5,5 Z"
         style="fill:#d99238;fill-opacity:1;fill-rule:evenodd;stroke:#d99238;stroke-width:1.00000003pt;stroke-opacity:1"
         transform="matrix(-0.4,0,0,-0.4,-4,0)" />
    </marker>
    <marker
       inkscape:stockid="Arrow1Mend"
       orient="auto"
       refY="0"
       refX="0"
       id="Arrow1Mend-5-2"
       style="overflow:visible"
       inkscape:isstock="true">
      <path
         inkscape:connector-curvature="0"
         id="path4255-6-7"
         d="M 0,0 5,-5 -12.5,0 5,5 Z"
         style="fill:#d99238;fill-opacity:1;fill-rule:evenodd;stroke:#d99238;stroke-width:1.00000003pt;stroke-opacity:1"
         transform="matrix(-0.4,0,0,-0.4,-4,0)" />
    </marker>
    <marker
       inkscape:stockid="Arrow1Mend"
       orient="auto"
       refY="0"
       refX="0"
       id="Arrow1Mend-9-3"
       style="overflow:visible"
       inkscape:isstock="true">
      <path
         inkscape:connector-curvature="0"
         id="path4255-1-6"
         d="M 0,0 5,-5 -12.5,0 5,5 Z"
         style="fill:#d99238;fill-opacity:1;fill-rule:evenodd;stroke:#d99238;stroke-width:1.00000003pt;stroke-opacity:1"
         transform="matrix(-0.4,0,0,-0.4,-4,0)" />
    </marker>
    <marker
       inkscape:stockid="Arrow1Mend"
       orient="auto"
       refY="0"
       refX="0"
       id="Arrow1Mend-5-2-0"
       style="overflow:visible"
       inkscape:isstock="true">
      <path
         inkscape:connector-curvature="0"
         id="path4255-6-7-6"
         d="M 0,0 5,-5 -12.5,0 5,5 Z"
         style="fill:#d99238;fill-opacity:1;fill-rule:evenodd;stroke:#d99238;stroke-width:1.00000003pt;stroke-opacity:1"
         transform="matrix(-0.4,0,0,-0.4,-4,0)" />
    </marker>
    <marker
       inkscape:stockid="Arrow1Mend"
       orient="auto"
       refY="0"
       refX="0"
       id="Arrow1Mend-1"
       style="overflow:visible"
       inkscape:isstock="true">
      <path
         inkscape:connector-curvature="0"
         id="path4255-8"
         d="M 0,0 5,-5 -12.5,0 5,5 Z"
         style="fill:#d99238;fill-opacity:1;fill-rule:evenodd;stroke:#d99238;stroke-width:1.00000003pt;stroke-opacity:1"
         transform="matrix(-0.4,0,0,-0.4,-4,0)" />
    </marker>
    <marker
       inkscape:stockid="Arrow1Mend"
       orient="auto"
       refY="0"
       refX="0"
       id="Arrow1Mend-5-7"
       style="overflow:visible"
       inkscape:isstock="true">
      <path
         inkscape:connector-curvature="0"
         id="path4255-6-9"
         d="M 0,0 5,-5 -12.5,0 5,5 Z"
         style="fill:#d99238;fill-opacity:1;fill-rule:evenodd;stroke:#d99238;stroke-width:1.00000003pt;stroke-opacity:1"
         transform="matrix(-0.4,0,0,-0.4,-4,0)" />
    </marker>
    <marker
       inkscape:stockid="Arrow1Mend"
       orient="auto"
       refY="0"
       refX="0"
       id="Arrow1Mend-9-2"
       style="overflow:visible"
       inkscape:isstock="true">
      <path
         inkscape:connector-curvature="0"
         id="path4255-1-0"
         d="M 0,0 5,-5 -12.5,0 5,5 Z"
         style="fill:#d99238;fill-opacity:1;fill-rule:evenodd;stroke:#d99238;stroke-width:1.00000003pt;stroke-opacity:1"
         transform="matrix(-0.4,0,0,-0.4,-4,0)" />
    </marker>
    <marker
       inkscape:stockid="Arrow1Mend"
       orient="auto"
       refY="0"
       refX="0"
       id="Arrow1Mend-5-2-2"
       style="overflow:visible"
       inkscape:isstock="true">
      <path
         inkscape:connector-curvature="0"
         id="path4255-6-7-3"
         d="M 0,0 5,-5 -12.5,0 5,5 Z"
         style="fill:#d99238;fill-opacity:1;fill-rule:evenodd;stroke:#d99238;stroke-width:1.00000003pt;stroke-opacity:1"
         transform="matrix(-0.4,0,0,-0.4,-4,0)" />
    </marker>
    <marker
       inkscape:stockid="Arrow1Mend"
       orient="auto"
       refY="0"
       refX="0"
       id="Arrow1Mend-9-3-7"
       style="overflow:visible"
       inkscape:isstock="true">
      <path
         inkscape:connector-curvature="0"
         id="path4255-1-6-5"
         d="M 0,0 5,-5 -12.5,0 5,5 Z"
         style="fill:#d99238;fill-opacity:1;fill-rule:evenodd;stroke:#d99238;stroke-width:1.00000003pt;stroke-opacity:1"
         transform="matrix(-0.4,0,0,-0.4,-4,0)" />
    </marker>
    <marker
       inkscape:stockid="Arrow1Mend"
       orient="auto"
       refY="0"
       refX="0"
       id="Arrow1Mend-5-2-0-9"
       style="overflow:visible"
       inkscape:isstock="true">
      <path
         inkscape:connector-curvature="0"
         id="path4255-6-7-6-2"
         d="M 0,0 5,-5 -12.5,0 5,5 Z"
         style="fill:#d99238;fill-opacity:1;fill-rule:evenodd;stroke:#d99238;stroke-width:1.00000003pt;stroke-opacity:1"
         transform="matrix(-0.4,0,0,-0.4,-4,0)" />
    </marker>
    <marker
       inkscape:stockid="Arrow1Mend"
       orient="auto"
       refY="0"
       refX="0"
       id="marker5248-3"
       style="overflow:visible"
       inkscape:isstock="true">
      <path
         inkscape:connector-curvature="0"
         id="path5250-1"
         d="M 0,0 5,-5 -12.5,0 5,5 Z"
         style="fill:#000000;fill-opacity:1;fill-rule:evenodd;stroke:#000000;stroke-width:1.00000003pt;stroke-opacity:1"
         transform="matrix(-0.4,0,0,-0.4,-4,0)" />
    </marker>
    <marker
       inkscape:stockid="Arrow1Mend"
       orient="auto"
       refY="0"
       refX="0"
       id="marker5248-36"
       style="overflow:visible"
       inkscape:isstock="true">
      <path
         id="path5250-7"
         d="M 0,0 5,-5 -12.5,0 5,5 Z"
         style="fill:#000000;fill-opacity:1;fill-rule:evenodd;stroke:#000000;stroke-width:1.00000003pt;stroke-opacity:1"
         transform="matrix(-0.4,0,0,-0.4,-4,0)"
         inkscape:connector-curvature="0" />
    </marker>
    <marker
       inkscape:stockid="Arrow1Mend"
       orient="auto"
       refY="0"
       refX="0"
       id="marker5248-3-5"
       style="overflow:visible"
       inkscape:isstock="true">
      <path
         inkscape:connector-curvature="0"
         id="path5250-1-3"
         d="M 0,0 5,-5 -12.5,0 5,5 Z"
         style="fill:#000000;fill-opacity:1;fill-rule:evenodd;stroke:#000000;stroke-width:1.00000003pt;stroke-opacity:1"
         transform="matrix(-0.4,0,0,-0.4,-4,0)" />
    </marker>
    <marker
       inkscape:stockid="Arrow1Mend"
       orient="auto"
       refY="0"
       refX="0"
       id="marker5248-36-9"
       style="overflow:visible"
       inkscape:isstock="true">
      <path
         id="path5250-7-3"
         d="M 0,0 5,-5 -12.5,0 5,5 Z"
         style="fill:#000000;fill-opacity:1;fill-rule:evenodd;stroke:#000000;stroke-width:1.00000003pt;stroke-opacity:1"
         transform="matrix(-0.4,0,0,-0.4,-4,0)"
         inkscape:connector-curvature="0" />
    </marker>
    <marker
       inkscape:stockid="Arrow1Mend"
       orient="auto"
       refY="0"
       refX="0"
       id="marker5248-3-5-6"
       style="overflow:visible"
       inkscape:isstock="true">
      <path
         inkscape:connector-curvature="0"
         id="path5250-1-3-0"
         d="M 0,0 5,-5 -12.5,0 5,5 Z"
         style="fill:#000000;fill-opacity:1;fill-rule:evenodd;stroke:#000000;stroke-width:1.00000003pt;stroke-opacity:1"
         transform="matrix(-0.4,0,0,-0.4,-4,0)" />
    </marker>
    <marker
       inkscape:stockid="Arrow1Mend"
       orient="auto"
       refY="0"
       refX="0"
       id="marker5248-1"
       style="overflow:visible"
       inkscape:isstock="true">
      <path
         id="path5250-2"
         d="M 0,0 5,-5 -12.5,0 5,5 Z"
         style="fill:#000000;fill-opacity:1;fill-rule:evenodd;stroke:#000000;stroke-width:1.00000003pt;stroke-opacity:1"
         transform="matrix(-0.4,0,0,-0.4,-4,0)"
         inkscape:connector-curvature="0" />
    </marker>
    <marker
       inkscape:stockid="Arrow1Mend"
       orient="auto"
       refY="0"
       refX="0"
       id="marker5248-3-9"
       style="overflow:visible"
       inkscape:isstock="true">
      <path
         inkscape:connector-curvature="0"
         id="path5250-1-31"
         d="M 0,0 5,-5 -12.5,0 5,5 Z"
         style="fill:#000000;fill-opacity:1;fill-rule:evenodd;stroke:#000000;stroke-width:1.00000003pt;stroke-opacity:1"
         transform="matrix(-0.4,0,0,-0.4,-4,0)" />
    </marker>
    <clipPath
       id="clipPath">
      <rect
         y="322.63251"
         x="61.276173"
         height="289.02988"
         width="477.29706"
         id="rect1407"
         style="opacity:1;fill:#ffffff;fill-opacity:1;stroke:#d40000;stroke-width:1.87499988;stroke-linecap:round;stroke-linejoin:round;stroke-miterlimit:4;stroke-dasharray:none;stroke-dashoffset:0;stroke-opacity:1" />
    </clipPath>
    <clipPath
       id="clipPathD">
      <rect
         style="opacity:1;fill:#ffffff;fill-opacity:1;stroke:#d40000;stroke-width:1.87499988;stroke-linecap:round;stroke-linejoin:round;stroke-miterlimit:4;stroke-dasharray:none;stroke-dashoffset:0;stroke-opacity:1"
         id="rect2466"
         width="457.56409"
         height="285.00021"
         x="73.054169"
         y="325.28415" />
    </clipPath>
    <clipPath
       id="clipPathf">
      <rect
         y="506.92221"
         x="24.15307"
         height="403.05084"
         width="596.62134"
         id="rect2598"
         style="opacity:1;fill:#ffffff;fill-opacity:1;stroke:#d40000;stroke-width:1.87499988;stroke-linecap:round;stroke-linejoin:round;stroke-miterlimit:4;stroke-dasharray:none;stroke-dashoffset:0;stroke-opacity:1" />
    </clipPath>
    <clipPath
       id="clipPathz">
      <rect
         style="opacity:1;fill:#ffffff;fill-opacity:1;stroke:#d40000;stroke-width:1.87499988;stroke-linecap:round;stroke-linejoin:round;stroke-miterlimit:4;stroke-dasharray:none;stroke-dashoffset:0;stroke-opacity:1"
         id="rect2738"
         width="620.48615"
         height="462.71295"
         x="-215.82129"
         y="292.13852" />
    </clipPath>
    <clipPath
       id="clipPathM">
      <rect
         y="406.15945"
         x="-292.71915"
         height="551.54327"
         width="820.68573"
         id="rect2886"
         style="opacity:1;fill:#ffffff;fill-opacity:1;stroke:#d40000;stroke-width:1.87499988;stroke-linecap:round;stroke-linejoin:round;stroke-miterlimit:4;stroke-dasharray:none;stroke-dashoffset:0;stroke-opacity:1" />
    </clipPath>
    <marker
       inkscape:isstock="true"
       style="overflow:visible"
       id="marker2319-7"
       refX="0"
       refY="0"
       orient="auto"
       inkscape:stockid="Arrow1Sstart">
      <path
         inkscape:connector-curvature="0"
         transform="matrix(0.2,0,0,0.2,1.2,0)"
         style="fill:#000000;fill-opacity:1;fill-rule:evenodd;stroke:#000000;stroke-width:1.00000003pt;stroke-opacity:1"
         d="M 0,0 5,-5 -12.5,0 5,5 Z"
         id="path2317-5" />
    </marker>
  </defs>
  <metadata
     id="metadata7">
    <rdf:RDF>
      <cc:Work
         rdf:about="">
        <dc:format>image/svg+xml</dc:format>
        <dc:type
           rdf:resource="http://purl.org/dc/dcmitype/StillImage" />
        <dc:title></dc:title>
      </cc:Work>
    </rdf:RDF>
  </metadata>
  <g
     inkscape:label="Layer 1"
     inkscape:groupmode="layer"
     id="layer1"
     transform="translate(399.55145,-299.49638)">
    <text
       xml:space="preserve"
       style="font-style:italic;font-variant:normal;font-weight:normal;font-stretch:normal;font-size:23.43749809px;line-height:125%;font-family:msbm10;-inkscape-font-specification:'msbm10 Italic';letter-spacing:0px;word-spacing:0px;fill:#000000;fill-opacity:1;stroke:none;stroke-width:0.93749994px;stroke-linecap:butt;stroke-linejoin:miter;stroke-opacity:1"
       x="0.8884899"
       y="345.69266"
       id="text1234"><tspan
         sodipodi:role="line"
         id="tspan1232"
         x="0.8884899"
         y="366.42935"
         style="stroke-width:0.93749994px" /></text>
    <text
       xml:space="preserve"
       style="font-style:normal;font-variant:normal;font-weight:normal;font-stretch:normal;font-size:11.20055389px;line-height:0%;font-family:'Nimbus Sans L';-inkscape-font-specification:Sans;letter-spacing:0px;word-spacing:0px;fill:#000000;fill-opacity:1;stroke:none;stroke-width:1px;stroke-linecap:butt;stroke-linejoin:miter;stroke-opacity:1"
       x="91.777527"
       y="362.6073"
       id="text6089-1-8"
       transform="scale(1.0713756,0.93337952)"><tspan
         sodipodi:role="line"
         id="tspan6091-2-7"
         x="91.777527"
         y="362.6073"
         style="font-size:15.16741753px;line-height:1.25;stroke-width:1px">$P$</tspan></text>
    <text
       xml:space="preserve"
       style="font-style:normal;font-variant:normal;font-weight:normal;font-stretch:normal;font-size:11.20055389px;line-height:0%;font-family:'Nimbus Sans L';-inkscape-font-specification:Sans;letter-spacing:0px;word-spacing:0px;fill:#000000;fill-opacity:1;stroke:none;stroke-width:1px;stroke-linecap:butt;stroke-linejoin:miter;stroke-opacity:1"
       x="553.80035"
       y="627.65631"
       id="text6089-4-7-9"
       transform="scale(1.0713756,0.93337952)"><tspan
         sodipodi:role="line"
         id="tspan6091-7-0-2"
         x="553.80035"
         y="627.65631"
         style="font-size:15.16741753px;line-height:1.25;stroke-width:1px">$t$</tspan></text>
    <text
       xml:space="preserve"
       style="font-style:normal;font-variant:normal;font-weight:normal;font-stretch:normal;font-size:11.20055389px;line-height:0%;font-family:'Nimbus Sans L';-inkscape-font-specification:Sans;letter-spacing:0px;word-spacing:0px;fill:#000000;fill-opacity:1;stroke:none;stroke-width:1px;stroke-linecap:butt;stroke-linejoin:miter;stroke-opacity:1"
       x="215.75325"
       y="352.46863"
       id="text6089-1-8-3"
       transform="scale(1.0713756,0.93337952)"><tspan
         sodipodi:role="line"
         id="tspan6091-2-7-6"
         x="215.75325"
         y="352.46863"
         style="font-size:15.16741753px;line-height:1.25;stroke-width:1px">$T$</tspan></text>
    <text
       xml:space="preserve"
       style="font-style:normal;font-variant:normal;font-weight:normal;font-stretch:normal;font-size:11.20055389px;line-height:0%;font-family:'Nimbus Sans L';-inkscape-font-specification:Sans;letter-spacing:0px;word-spacing:0px;fill:#000000;fill-opacity:1;stroke:none;stroke-width:1px;stroke-linecap:butt;stroke-linejoin:miter;stroke-opacity:1"
       x="201.74117"
       y="585.88641"
       id="text6089-1-8-3-5"
       transform="scale(1.0713756,0.93337952)"><tspan
         sodipodi:role="line"
         id="tspan6091-2-7-6-6"
         x="201.74117"
         y="585.88641"
         style="font-size:15.16741753px;line-height:1.25;stroke-width:1px">$\tau$</tspan></text>
    <g
       id="g146"
       transform="matrix(1,0,0,0.87119732,14.999999,38.575935)"
       style="stroke-width:1.07137561">
      <path
         sodipodi:nodetypes="cc"
         inkscape:connector-curvature="0"
         id="path5246-6-2"
         d="m 73.05417,610.28435 502.99054,-10e-6"
         style="fill:none;fill-rule:evenodd;stroke:#000000;stroke-width:2.14275122;stroke-linecap:butt;stroke-linejoin:miter;stroke-miterlimit:4;stroke-dasharray:none;stroke-opacity:1;marker-end:url(#marker5248-36-9)" />
      <path
         sodipodi:nodetypes="cc"
         inkscape:connector-curvature="0"
         id="path5246-9-2-6"
         d="m 73.05417,610.28435 1e-5,-291.54479"
         style="fill:none;fill-rule:evenodd;stroke:#000000;stroke-width:2.14275122;stroke-linecap:butt;stroke-linejoin:miter;stroke-miterlimit:4;stroke-dasharray:none;stroke-opacity:1;marker-end:url(#marker5248-3-5-6)" />
    </g>
    <path
       id="path2963"
       clip-path="url(#clipPathM)"
       title="sin(8*x)*sin(8*x)/sin(x)/sin(x)"
       d="m -292.71915,406.15945 c 0.4567,0.007 0.9134,6.9004 1.37009,20.09354 0.4567,13.19314 0.9134,32.69088 1.3701,56.82777 0.45669,24.1369 0.91339,52.90923 1.37009,83.98653 0.4567,31.07729 0.91339,64.4374 1.37009,97.59271 0.4567,33.15531 0.9134,66.07315 1.3701,96.62344 0.45669,30.55028 0.91339,58.69932 1.37009,83.07009 0.4567,24.37077 0.91339,44.937 1.37009,61.26228 0.4567,16.32529 0.9134,28.396 1.37009,36.66642 0.4567,8.27042 0.9134,12.74049 1.3701,14.50253 0.4567,1.76203 0.91339,0.82643 1.37009,-1.44643 0.4567,-2.27286 0.9134,-5.86785 1.37009,-9.53479 0.4567,-3.66695 0.9134,-7.39231 1.3701,-10.32247 0.45669,-2.93016 0.91339,-5.05804 1.37009,-6.05683 0.4567,-0.99878 0.91339,-0.86996 1.37009,0.22535 0.4567,1.09531 0.9134,3.14808 1.3701,5.68034 0.45669,2.53227 0.91339,5.53094 1.37009,8.43375 0.4567,2.90282 0.91339,5.69716 1.37009,7.95049 0.4567,2.25334 0.9134,3.95752 1.37009,4.94154 0.4567,0.98403 0.9134,1.24632 1.3701,0.89739 0.4567,-0.34893 0.91339,-1.30441 1.37009,-2.55616 0.4567,-1.25175 0.9134,-2.79123 1.37009,-4.24978 0.4567,-1.45855 0.9134,-2.82724 1.3701,-3.82286 0.45669,-0.99562 0.91339,-1.61217 1.37009,-1.74707 0.4567,-0.13491 0.9134,0.21296 1.37009,0.94772 0.4567,0.73476 0.9134,1.85264 1.3701,3.11725 0.45669,1.26461 0.91339,2.66905 1.37009,3.94154 0.4567,1.27249 0.91339,2.40582 1.37009,3.20193 0.4567,0.79612 0.9134,1.25024 1.3701,1.31009 0.45669,0.0599 0.91339,-0.27527 1.37009,-0.90138 0.4567,-0.62611 0.91339,-1.53976 1.37009,-2.53159 0.4567,-0.99184 0.9134,-2.0558 1.37009,-2.96624 0.4567,-0.91044 0.9134,-1.66117 1.3701,-2.10119 0.45669,-0.44002 0.91339,-0.56546 1.37009,-0.35745 0.4567,0.20801 0.9134,0.74956 1.37009,1.50837 0.4567,0.75882 0.9134,1.73126 1.3701,2.71686 0.45669,0.98561 0.91339,1.97847 1.37009,2.77735 0.4567,0.79889 0.91339,1.39801 1.37009,1.67765 0.4567,0.27965 0.9134,0.23644 1.3701,-0.11918 0.45669,-0.35561 0.91339,-1.02324 1.37009,-1.86655 0.4567,-0.84331 0.91339,-1.85823 1.37009,-2.83798 0.4567,-0.97974 0.9134,-1.91814 1.37009,-2.62268 0.4567,-0.70454 0.9134,-1.16941 1.3701,-1.29676 0.4567,-0.12735 0.91339,0.0859 1.37009,0.59922 0.4567,0.51335 0.9134,1.32578 1.37009,2.27035 0.4567,0.94457 0.9134,2.01635 1.3701,2.98628 0.45669,0.96992 0.91339,1.83096 1.37009,2.38496 0.4567,0.55399 0.9134,0.79457 1.37009,0.63972 0.4567,-0.15484 0.9134,-0.70816 1.3701,-1.58335 0.45669,-0.87519 0.91339,-2.07048 1.37009,-3.37114 0.4567,-1.30065 0.91339,-2.7004 1.37009,-3.926 0.4567,-1.2256 0.9134,-2.26844 1.37009,-2.90791 0.4567,-0.63947 0.9134,-0.86793 1.3701,-0.61766 0.4567,0.25028 0.91339,0.98268 1.37009,2.06458 0.4567,1.08191 0.9134,2.51049 1.37009,3.98303 0.4567,1.47255 0.9134,2.98028 1.3701,4.15522 0.45669,1.17494 0.91339,2.00505 1.37009,2.20368 0.4567,0.19863 0.9134,-0.2452 1.37009,-1.40164 0.4567,-1.15644 0.9134,-3.03078 1.3701,-5.40886 0.45669,-2.37808 0.91339,-5.25631 1.37009,-8.17355 0.4567,-2.91725 0.91339,-5.86068 1.37009,-8.26884 0.4567,-2.40815 0.9134,-4.26201 1.3701,-5.12006 0.45669,-0.85804 0.91339,-0.70099 1.37009,0.56619 0.4567,1.26718 0.91339,3.65682 1.37009,6.76458 0.4567,3.10775 0.9134,6.93262 1.37009,10.55814 0.4567,3.62552 0.9134,7.03406 1.3701,8.9538 0.4567,1.91974 0.91339,2.31758 1.37009,-0.12887 0.4567,-2.44645 0.9134,-7.77996 1.37009,-16.99184 0.4567,-9.21188 0.9134,-22.34523 1.3701,-39.70525 0.45669,-17.36001 0.91339,-38.97956 1.37009,-64.25605 0.4567,-25.27649 0.9134,-54.22359 1.37009,-85.321 0.4567,-31.0974 0.9134,-64.33472 1.3701,-97.50015 0.45669,-33.16543 0.91339,-66.22523 1.37009,-96.69833 0.4567,-30.47311 0.91339,-58.30868 1.37009,-81.27775 0.4567,-22.96908 0.9134,-41.01408 1.37009,-52.64998 0.4567,-11.6359 0.9134,-16.81016 1.3701,-15.11853 0.4567,1.69163 0.91339,10.28641 1.37009,25.01355 0.4567,14.72714 0.9134,35.60245 1.37009,60.8531 0.4567,25.25065 0.9134,54.8703 1.3701,86.47962 0.45669,31.60932 0.91339,65.18435 1.37009,98.25536 0.4567,33.07101 0.9134,65.60466 1.37009,95.54701 0.4567,29.94234 0.9134,57.2602 1.3701,80.68872 0.45669,23.42852 0.91339,42.94283 1.37009,58.2253 0.4567,15.28247 0.91339,26.32123 1.37009,33.66752 0.4567,7.34628 0.9134,11.00157 1.3701,12.11317 0.45669,1.11161 0.91339,-0.30914 1.37009,-2.89598 0.4567,-2.58683 0.91339,-6.32448 1.37009,-9.99947 0.4567,-3.67499 0.9134,-7.27437 1.37009,-10.0068 0.4567,-2.73244 0.9134,-4.59188 1.3701,-5.31786 0.4567,-0.72599 0.91339,-0.32107 1.37009,1.00263 0.4567,1.32371 0.9134,3.55645 1.37009,6.19662 0.4567,2.64018 0.9134,5.67451 1.3701,8.54644 0.45669,2.87192 0.91339,5.56919 1.37009,7.68693 0.4567,2.11774 0.91339,3.64855 1.37009,4.45788 0.4567,0.80932 0.9134,0.89642 1.3701,0.40298 0.45669,-0.49343 0.91339,-1.56208 1.37009,-2.88003 0.4567,-1.31795 0.91339,-2.87641 1.37009,-4.3101 0.4567,-1.43368 0.9134,-2.73388 1.37009,-3.63618 0.4567,-0.90229 0.9134,-1.40122 1.3701,-1.41975 0.4567,-0.0185 0.91339,0.44384 1.37009,1.26914 0.4567,0.82529 0.9134,2.00924 1.37009,3.30475 0.4567,1.29551 0.9134,2.69549 1.3701,3.9318 0.45669,1.23631 0.91339,2.30191 1.37009,3.01416 0.4567,0.71225 0.9134,1.06681 1.37009,1.03173 0.4567,-0.0351 0.9134,-0.45994 1.3701,-1.15356 0.45669,-0.69363 0.91339,-1.65214 1.37009,-2.65885 0.4567,-1.00671 0.91339,-2.05541 1.37009,-2.92518 0.4567,-0.86977 0.9134,-1.5546 1.3701,-1.91785 0.45669,-0.36325 0.91339,-0.40147 1.37009,-0.11374 0.4567,0.28773 0.91339,0.90101 1.37009,1.70932 0.4567,0.80831 0.9134,1.8076 1.37009,2.79245 0.4567,0.98484 0.9134,1.9492 1.3701,2.69795 0.45669,0.74875 0.91339,1.27628 1.37009,1.47747 0.4567,0.20119 0.9134,0.0731 1.37009,-0.35673 0.4567,-0.42983 0.9134,-1.16047 1.3701,-2.04291 0.45669,-0.88243 0.91339,-1.91219 1.37009,-2.8794 0.4567,-0.9672 0.91339,-1.86558 1.37009,-2.51053 0.4567,-0.64494 0.9134,-1.03088 1.3701,-1.07589 0.45669,-0.045 0.91339,0.25349 1.37009,0.8374 0.4567,0.58391 0.91339,1.45164 1.37009,2.42408 0.4567,0.97245 0.9134,2.04429 1.37009,2.98501 0.4567,0.94072 0.9134,1.74323 1.3701,2.21979 0.4567,0.47656 0.91339,0.62108 1.37009,0.37026 0.4567,-0.25082 0.9134,-0.89949 1.37009,-1.84967 0.4567,-0.95017 0.9134,-2.19945 1.3701,-3.52045 0.45669,-1.321 0.91339,-2.70699 1.37009,-3.88503 0.4567,-1.17803 0.9134,-2.13942 1.37009,-2.6779 0.4567,-0.53849 0.9134,-0.64679 1.3701,-0.28109 0.45669,0.3657 0.91339,1.20808 1.37009,2.36993 0.4567,1.16184 0.91339,2.63951 1.37009,4.11511 0.4567,1.4756 0.9134,2.93975 1.37009,4.02632 0.4567,1.08657 0.9134,1.78336 1.3701,1.8243 0.4567,0.0409 0.91339,-0.58449 1.37009,-1.91271 0.4567,-1.32822 0.9134,-3.36354 1.37009,-5.8565 0.4567,-2.49297 0.9134,-5.4388 1.3701,-8.35378 0.45669,-2.91498 0.91339,-5.78528 1.37009,-8.05151 0.4567,-2.26623 0.9134,-3.90897 1.37009,-4.51835 0.4567,-0.60939 0.9134,-0.16663 1.3701,1.36693 0.45669,1.53356 0.91339,4.16887 1.37009,7.43488 0.4567,3.26601 0.91339,7.15975 1.37009,10.70829 0.4567,3.54854 0.9134,6.73216 1.3701,8.25361 0.45669,1.52145 0.913391,1.34601 1.370088,-1.82871 0.456698,-3.17472 0.913396,-9.3921 1.370093,-19.57534 0.456698,-10.18324 0.913396,-24.37474 1.370093,-42.77455 0.456698,-18.39982 0.913396,-41.03886 1.370094,-67.19549 0.456697,-26.15663 0.913395,-55.84167 1.370093,-87.43134 0.456697,-31.58968 0.913395,-65.07051 1.370093,-98.1708 0.456697,-33.10029 0.913395,-65.7837 1.370093,-95.57149 0.456697,-29.78779 0.913395,-56.62765 1.370093,-78.35877 0.456697,-21.73112 0.913395,-38.29593 1.370093,-48.33041 0.456697,-10.03448 0.913395,-13.48752 1.370093,-10.10211 0.456697,3.38541 0.913395,13.64407 1.370093,29.8652 0.456697,16.22114 0.913395,38.41771 1.370093,64.71582 0.456698,26.29811 0.913395,56.68886 1.370093,88.75232 0.456698,32.06345 0.913395,65.77397 1.370093,98.68776 0.456698,32.91378 0.913395,64.99702 1.370093,94.27781 0.456698,29.28078 0.913395,55.7266 1.370093,78.18726 0.456698,22.46067 0.913395,40.91275 1.370093,55.15616 0.456698,14.24342 0.913395,24.26803 1.370093,30.71764 0.456698,6.4496 0.913395,9.32719 1.370093,9.829 0.456698,0.50182 0.913395,-1.35996 1.370093,-4.21912 0.456698,-2.85915 0.913396,-6.70038 1.370093,-10.35118 0.456698,-3.6508 0.913396,-7.09888 1.370093,-9.6169 0.456698,-2.51803 0.913396,-4.10099 1.370093,-4.55384 0.456698,-0.45284 0.913396,0.22084 1.370093,1.76092 0.456698,1.54008 0.913396,3.9361 1.370093,6.66664 0.456698,2.73053 0.913396,5.78217 1.370093,8.60736 0.456698,2.82519 0.913396,5.41211 1.370093,7.38543 0.456698,1.97332 0.913396,3.32641 1.370093,3.96125 0.456698,0.63484 0.913396,0.5515 1.370093,-0.0786 0.456698,-0.63014 0.913396,-1.80115 1.370094,-3.17383 0.456697,-1.37268 0.913395,-2.93805 1.370093,-4.33645 0.456697,-1.3984 0.913395,-2.62138 1.370093,-3.42472 0.456697,-0.80333 0.913395,-1.18213 1.370093,-1.08498 0.456697,0.0972 0.913395,0.67008 1.370093,1.57983 0.456697,0.90976 0.913395,2.15158 1.370093,3.46942 0.456697,1.31784 0.913395,2.70445 1.370093,3.89708 0.456697,1.19262 0.913395,2.18444 1.370093,2.80924 0.456697,0.6248 0.913395,0.87873 1.370093,0.75019 0.456698,-0.12854 0.913395,-0.63915 1.370093,-1.39469 0.456698,-0.75554 0.913395,-1.75172 1.370093,-2.76603 0.456698,-1.0143 0.913395,-2.0404 1.370093,-2.86353 0.456698,-0.82313 0.913395,-1.4375 1.370093,-1.72166 0.456698,-0.28416 0.913395,-0.2351 1.370093,0.13024 0.456698,0.36534 0.913395,1.04605 1.370093,1.89828 0.456698,0.85222 0.913395,1.87156 1.370093,2.84897 0.456698,0.97741 0.913395,1.90676 1.370093,2.60034 0.456698,0.69357 0.913396,1.14597 1.370093,1.26736 0.456698,0.12138 0.913396,-0.0907 1.370093,-0.59189 0.456698,-0.50115 0.913396,-1.28991 1.370093,-2.20552 0.456698,-0.9156 0.913396,-1.95324 1.370093,-2.90132 0.456698,-0.94807 0.913396,-1.80026 1.370093,-2.38111 0.456698,-0.58085 0.913396,-0.88506 1.370093,-0.84725 0.456698,0.0378 0.913396,0.41974 1.370093,1.07033 0.456698,0.65058 0.913396,1.56772 1.370093,2.56125 0.456698,0.99353 0.913396,2.05776 1.370093,2.96228 0.456698,0.90452 0.913396,1.6422 1.370094,2.03704 0.456697,0.39485 0.913395,0.44111 1.370093,0.0947 0.456697,-0.34638 0.913395,-1.08732 1.370093,-2.10719 0.456697,-1.01987 0.913395,-2.31567 1.370093,-3.64871 0.456697,-1.33304 0.913395,-2.69619 1.370093,-3.81861 0.456697,-1.12241 0.913395,-1.99538 1.370093,-2.42855 0.456697,-0.43317 0.913395,-0.41968 1.370093,0.0598 0.456697,0.47944 0.913395,1.42677 1.370093,2.66082 0.456697,1.23404 0.913395,2.75034 1.370093,4.21766 0.456698,1.46732 0.913395,2.87571 1.370093,3.86325 0.456698,0.98755 0.913395,1.542 1.370093,1.41992 0.456698,-0.12207 0.9133953,-0.93064 1.3700929,-2.42747 0.4566977,-1.49682 0.9133954,-3.68518 1.3700931,-6.28115 0.4566977,-2.59597 0.9133953,-5.59356 1.370093,-8.48903 0.4566977,-2.89547 0.9133954,-5.67403 1.3700931,-7.78196 0.4566976,-2.10793 0.9133953,-3.52553 1.370093,-3.87816 0.4566977,-0.35263 0.9133954,0.37792 1.370093,2.17164 0.4566977,1.79372 0.9133954,4.6601 1.37009308,8.06148 0.45669768,3.40138 0.91339536,7.33277 1.37009304,10.76759 0.45669768,3.43481 0.91339538,6.35126 1.37009308,7.43177 0.4566976,1.08051 0.9133953,0.28883 1.370093,-3.65129 0.4566977,-3.94013 0.9133954,-11.07251 1.370093,-22.24675 0.4566977,-11.17423 0.9133954,-26.43182 1.3700931,-45.86453 0.4566977,-19.4327 0.9133953,-43.0693 1.370093,-70.06942 0.4566977,-27.00011 0.9133954,-57.37165 1.370093,-89.39138 0.4566977,-32.01973 0.9133954,-65.67113 1.3700926,-98.62961 0.456698,-32.95849 0.913396,-65.18526 1.370094,-94.21225 0.456697,-29.02698 0.913395,-54.80059 1.370093,-75.23581 0.456697,-20.43522 0.913395,-35.47464 1.370093,-43.88026 0.456697,-8.40562 0.913395,-10.12787 1.370093,-5.05799 0.456697,5.06987 0.913395,16.96417 1.370093,34.63536 0.456697,17.6712 0.913395,41.12943 1.370093,68.40637 0.456697,27.27694 0.913395,58.36123 1.370093,90.80065 0.456697,32.43941 0.913395,66.20678 1.370093,98.89215 0.456697,32.68537 0.913395,64.25459 1.370093,92.82337 0.456698,28.56878 0.913395,54.10539 1.370093,75.57633 0.456698,21.47094 0.913395,38.85431 1.370093,52.06582 0.456698,13.21151 0.913395,22.24276 1.370093,27.82545 0.456698,5.58268 0.913395,7.72121 1.370093,7.65467 0.456698,-0.0666 0.913395,-2.32525 1.370093,-5.41576 0.456698,-3.0905 0.913395,-6.99755 1.370093,-10.59364 0.456698,-3.59608 0.913395,-6.86963 1.370093,-9.15867 0.456698,-2.28903 0.913395,-3.58962 1.370093,-3.77083 0.456698,-0.18121 0.913395,0.75237 1.370093,2.49569 0.456698,1.74332 0.913396,4.28532 1.370093,7.0885 0.456698,2.80318 0.913396,5.85408 1.370093,8.61733 0.456698,2.76325 0.913396,5.22752 1.370093,7.04869 0.456698,1.82117 0.913396,2.99342 1.370093,3.45506 0.456698,0.46165 0.913396,0.21362 1.370093,-0.54471 0.456698,-0.75834 0.913396,-2.02049 1.370093,-3.43631 0.456698,-1.41582 0.913396,-2.9762 1.370093,-4.32932 0.456698,-1.35312 0.913396,-2.49083 1.370093,-3.19033 0.456698,-0.6995 0.913396,-0.95649 1.370094,-0.74515 0.456697,0.21135 0.913395,0.89022 1.370093,1.87786 0.456697,0.98763 0.913395,2.27883 1.370093,3.61037 0.456697,1.33154 0.913395,2.69607 1.370093,3.83787 0.456697,1.14181 0.913395,2.05431 1.370093,2.58869 0.456697,0.53438 0.913395,0.68728 1.370093,0.46735 0.456697,-0.21993 0.913395,-0.81175 1.370093,-1.62323 0.456697,-0.81149 0.913395,-1.83797 1.370093,-2.85259 0.456697,-1.01462 0.913395,-2.01097 1.370093,-2.78185 0.456698,-0.77088 0.913395,-1.31072 1.370093,-1.51401 0.456698,-0.20329 0.913395,-0.0675 1.370093,0.37282 0.456698,0.4403 0.913395,1.1837 1.370093,2.07398 0.456698,0.89029 0.913395,1.92273 1.370093,2.88608 0.456698,0.96336 0.913395,1.85146 1.370093,2.48519 0.456698,0.63373 0.913395,1.00797 1.370093,1.04874 0.456698,0.0408 0.913395,-0.25398 1.370093,-0.82308 0.456698,-0.5691 0.913395,-1.41068 1.370093,-2.35327 0.456698,-0.9426 0.913395,-1.98109 1.370093,-2.90357 0.456698,-0.92247 0.913396,-1.72259 1.370093,-2.23528 0.456698,-0.51268 0.913396,-0.73291 1.370093,-0.61236 0.456698,0.12055 0.913396,0.58347 1.370093,1.29639 0.456698,0.71292 0.913396,1.67319 1.370093,2.68082 0.456698,1.00762 0.913396,2.05659 1.370093,2.9181 0.456698,0.8615 0.913396,1.52842 1.370093,1.83778 0.456698,0.30937 0.913396,0.25578 1.370093,-0.18508 0.456698,-0.44087 0.913396,-1.27035 1.370093,-2.35411 0.456698,-1.08377 0.913396,-2.41821 1.370094,-3.75483 0.456697,-1.33661 0.913395,-2.6679 1.370093,-3.72694 0.456697,-1.05904 0.913395,-1.83715 1.370093,-2.16134 0.456697,-0.32419 0.913395,-0.18808 1.370093,0.40262 0.456697,0.59069 0.913395,1.63714 1.370093,2.935 0.456697,1.29787 0.913395,2.84191 1.370093,4.28943 0.456697,1.44753 0.913395,2.78809 1.370093,3.66639 0.456697,0.87829 0.913395,1.2821 1.370093,0.99263 0.456697,-0.28948 0.913395,-1.28158 1.370093,-2.94269 0.456698,-1.66111 0.913395,-3.99342 1.370093,-6.67959 0.456698,-2.68617 0.913395,-5.719 1.370093,-8.57743 0.456698,-2.85843 0.913395,-5.52677 1.370093,-7.46067 0.456698,-1.93391 0.913395,-3.11346 1.370093,-3.20274 0.456698,-0.0893 0.913391,0.92921 1.370091,2.97482 0.4567,2.04561 0.9134,5.12628 1.3701,8.63815 0.45669,3.51187 0.91339,7.44788 1.37009,10.73096 0.4567,3.28307 0.91339,5.88939 1.37009,6.48631 0.4567,0.59693 0.9134,-0.85317 1.37009,-5.59426 0.4567,-4.74109 0.9134,-12.81728 1.3701,-24.99921 0.45669,-12.18194 0.91339,-28.51009 1.37009,-48.96508 0.4567,-20.45499 0.9134,-45.06336 1.37009,-72.86673 0.4567,-27.80337 0.9134,-58.80667 1.3701,-91.19171 0.45669,-32.38505 0.91339,-66.13228 1.37009,-98.87154 0.4567,-32.73927 0.91339,-64.4294 1.37009,-92.62142 0.4567,-28.19203 0.9134,-52.83122 1.3701,-71.9158 0.45669,-19.08458 0.91339,-32.55749 1.37009,-39.31122 0.4567,-6.75372 0.91339,-6.74043 1.37009,0 0.4567,6.74043 0.9134,20.23766 1.37009,39.31122 0.4567,19.07356 0.9134,43.73075 1.3701,71.9158 0.4567,28.18505 0.91339,59.88422 1.37009,92.62142 0.4567,32.73719 0.9134,66.48384 1.37009,98.87154 0.4567,32.3877 0.9134,63.38209 1.3701,91.19171 0.45669,27.80963 0.91339,52.40362 1.37009,72.86673 0.4567,20.46311 0.9134,36.77502 1.37009,48.96508 0.4567,12.19005 0.9134,20.25158 1.3701,24.99921 0.45669,4.74764 0.91339,6.18715 1.37009,5.59426 0.4567,-0.59288 0.91339,-3.20461 1.37009,-6.48631 0.4567,-3.2817 0.9134,-7.21831 1.37009,-10.73096 0.4567,-3.51265 0.9134,-6.59056 1.3701,-8.63815 0.4567,-2.04758 0.91339,-3.06198 1.37009,-2.97482 0.4567,0.0872 0.9134,1.27029 1.37009,3.20274 0.4567,1.93245 0.9134,4.60261 1.3701,7.46067 0.45669,2.85806 0.91339,5.89059 1.37009,8.57743 0.4567,2.68684 0.9134,5.01719 1.37009,6.67959 0.4567,1.6624 0.9134,2.65186 1.3701,2.94269 0.45669,0.29083 0.91339,-0.11525 1.37009,-0.99263 0.4567,-0.87739 0.91339,-2.21907 1.37009,-3.66639 0.4567,-1.44731 0.9134,-2.99109 1.3701,-4.28943 0.45669,-1.29833 0.91339,-2.34343 1.37009,-2.935 0.4567,-0.59157 0.91339,-0.72593 1.37009,-0.40262 0.4567,0.32331 0.9134,1.10284 1.37009,2.16134 0.4567,1.0585 0.9134,2.39033 1.3701,3.72694 0.4567,1.33661 0.91339,2.67058 1.37009,3.75483 0.4567,1.08425 0.9134,1.91249 1.37009,2.35411 0.4567,0.44161 0.9134,0.49375 1.3701,0.18508 0.45669,-0.30866 0.91339,-0.97665 1.37009,-1.83778 0.4567,-0.86113 0.91339,-1.91039 1.37009,-2.9181 0.4567,-1.00771 0.9134,-1.96742 1.3701,-2.68082 0.45669,-0.7134 0.91339,-1.17518 1.37009,-1.29639 0.4567,-0.12121 0.91339,0.10024 1.37009,0.61236 0.4567,0.51213 0.9134,1.31304 1.37009,2.23528 0.4567,0.92225 0.9134,1.96078 1.3701,2.90357 0.4567,0.94278 0.91339,1.78364 1.37009,2.35327 0.4567,0.56963 0.9134,0.8632 1.37009,0.82308 0.4567,-0.0401 0.9134,-0.4155 1.3701,-1.04874 0.45669,-0.63324 0.91339,-1.52197 1.37009,-2.48519 0.4567,-0.96321 0.9134,-1.99551 1.37009,-2.88608 0.4567,-0.89056 0.9134,-1.63309 1.3701,-2.07398 0.45669,-0.44089 0.91339,-0.57546 1.37009,-0.37282 0.4567,0.20264 0.91339,0.74357 1.37009,1.51401 0.4567,0.77044 0.9134,1.76726 1.3701,2.78185 0.45669,1.01459 0.91339,2.04068 1.37009,2.85259 0.4567,0.81191 0.91339,1.40258 1.37009,1.62323 0.4567,0.22065 0.9134,0.0663 1.37009,-0.46735 0.4567,-0.53365 0.9134,-1.44731 1.3701,-2.58869 0.4567,-1.14137 0.91339,-2.50626 1.37009,-3.83787 0.4567,-1.33162 0.9134,-2.62214 1.37009,-3.61037 0.4567,-0.98824 0.9134,-1.6656 1.3701,-1.87786 0.45669,-0.21225 0.91339,0.0465 1.37009,0.74515 0.4567,0.69865 0.91339,1.83761 1.37009,3.19033 0.4567,1.35272 0.9134,2.91321 1.3701,4.32932 0.45669,1.41612 0.91339,2.67698 1.37009,3.43631 0.4567,0.75932 0.91339,1.00499 1.37009,0.54471 0.4567,-0.46027 0.9134,-1.63514 1.37009,-3.45506 0.4567,-1.81992 0.9134,-4.28599 1.3701,-7.04869 0.4567,-2.76269 0.91339,-5.81364 1.37009,-8.61733 0.4567,-2.80369 0.9134,-5.34361 1.37009,-7.0885 0.4567,-1.74489 0.9134,-2.67473 1.3701,-2.49569 0.45669,0.17905 0.91339,1.48368 1.37009,3.77083 0.4567,2.28716 0.9134,5.56314 1.37009,9.15867 0.4567,3.59553 0.9134,7.50146 1.3701,10.59364 0.45669,3.09219 0.91339,5.34483 1.37009,5.41576 0.4567,0.0709 0.91339,-2.0788 1.37009,-7.65467 0.4567,-5.57588 0.9134,-14.62215 1.3701,-27.82545 0.45669,-13.20329 0.91339,-30.60288 1.37009,-52.06582 0.4567,-21.46295 0.91339,-47.01344 1.37009,-75.57633 0.4567,-28.56289 0.9134,-60.14011 1.37009,-92.82337 0.4567,-32.68326 0.9134,-66.45005 1.3701,-98.89215 0.45669,-32.44211 0.91339,-63.51616 1.37009,-90.80065 0.4567,-27.28449 0.9134,-50.72376 1.37009,-68.40637 0.4567,-17.68261 0.9134,-29.55206 1.3701,-34.63536 0.45669,-5.08331 0.91339,-3.3345 1.37009,5.05799 0.4567,8.39249 0.91339,23.45563 1.37009,43.88026 0.4567,20.42463 0.9134,46.21521 1.3701,75.23581 0.45669,29.0206 0.91339,61.2552 1.37009,94.21225 0.4567,32.95704 0.91339,66.6067 1.37009,98.62961 0.4567,32.02292 0.9134,62.38468 1.37009,89.39138 0.4567,27.00671 0.9134,50.62849 1.3701,70.06942 0.4567,19.44093 0.91339,34.6823 1.37009,45.86453 0.4567,11.18224 0.9134,18.30035 1.37009,22.24675 0.4567,3.94639 0.9134,4.7281 1.3701,3.65129 0.45669,-1.07681 0.91339,-3.99802 1.37009,-7.43177 0.4567,-3.43376 0.9134,-7.36522 1.37009,-10.76759 0.4567,-3.40237 0.9134,-6.26571 1.3701,-8.06148 0.45669,-1.79577 0.91339,-2.52218 1.37009,-2.17164 0.4567,0.35055 0.91339,1.77156 1.37009,3.87816 0.4567,2.1066 0.9134,4.88672 1.37009,7.78196 0.4567,2.89524 0.9134,5.89229 1.3701,8.48903 0.4567,2.59674 0.91339,4.78299 1.37009,6.28115 0.4567,1.49816 0.9134,2.30407 1.37009,2.42747 0.4567,0.1234 0.9134,-0.43321 1.3701,-1.41992 0.45669,-0.98671 0.91339,-2.39604 1.37009,-3.86325 0.4567,-1.46721 0.9134,-2.98308 1.37009,-4.21766 0.4567,-1.23459 0.9134,-2.18048 1.3701,-2.66082 0.45669,-0.48034 0.91339,-0.49207 1.37009,-0.0598 0.4567,0.43231 0.91339,1.30661 1.37009,2.42855 0.4567,1.12194 0.9134,2.48551 1.3701,3.81861 0.45669,1.33311 0.91339,2.62831 1.37009,3.64871 0.4567,1.02041 0.91339,1.76005 1.37009,2.10719 0.4567,0.34714 0.9134,0.29945 1.37009,-0.0947 0.4567,-0.39417 0.9134,-1.13283 1.3701,-2.03704 0.4567,-0.9042 0.91339,-1.96861 1.37009,-2.96228 0.4567,-0.99367 0.9134,-1.91015 1.37009,-2.56125 0.4567,-0.65111 0.9134,-1.03186 1.3701,-1.07033 0.45669,-0.0385 0.91339,0.26693 1.37009,0.84725 0.4567,0.58032 0.9134,1.43322 1.37009,2.38111 0.4567,0.9479 0.9134,1.98548 1.3701,2.90132 0.45669,0.91585 0.91339,1.70381 1.37009,2.20552 0.4567,0.5017 0.91339,0.71263 1.37009,0.59189 0.4567,-0.12075 0.9134,-0.57425 1.37009,-1.26736 0.4567,-0.69311 0.9134,-1.62302 1.3701,-2.60034 0.4567,-0.97732 0.91339,-1.99642 1.37009,-2.84897 0.4567,-0.85256 0.9134,-1.53233 1.37009,-1.89828 0.4567,-0.36595 0.9134,-0.41376 1.3701,-0.13024 0.45669,0.28352 0.91339,0.89892 1.37009,1.72166 0.4567,0.82274 0.9134,1.8492 1.37009,2.86353 0.4567,1.01434 0.9134,2.01002 1.3701,2.76603 0.45669,0.75602 0.91339,1.26541 1.37009,1.39469 0.4567,0.12928 0.91339,-0.1261 1.37009,-0.75019 0.4567,-0.62409 0.9134,-1.61699 1.3701,-2.80924 0.45669,-1.19225 0.91339,-2.5791 1.37009,-3.89708 0.4567,-1.31798 0.91339,-2.55901 1.37009,-3.46942 0.4567,-0.9104 0.9134,-1.48176 1.37009,-1.57983 0.4567,-0.0981 0.9134,0.28246 1.3701,1.08498 0.4567,0.80252 0.91339,2.02664 1.37009,3.42472 0.4567,1.39808 0.9134,2.96337 1.37009,4.33645 0.4567,1.37307 0.9134,2.54263 1.3701,3.17383 0.45669,0.6312 0.91339,0.71208 1.37009,0.0786 0.4567,-0.63344 0.91339,-1.98912 1.37009,-3.96125 0.4567,-1.97214 0.9134,-4.56068 1.3701,-7.38543 0.45669,-2.82475 0.91339,-5.87618 1.37009,-8.60736 0.4567,-2.73119 0.91339,-5.12488 1.37009,-6.66664 0.4567,-1.54175 0.9134,-2.21158 1.37009,-1.76092 0.4567,0.45067 0.9134,2.03759 1.3701,4.55384 0.4567,2.51625 0.91339,5.96642 1.37009,9.6169 0.4567,3.65048 0.9134,7.49001 1.37009,10.35118 0.4567,2.86117 0.9134,4.71622 1.3701,4.21912 0.45669,-0.4971 0.91339,-3.38645 1.37009,-9.829 0.4567,-6.44256 0.9134,-16.48251 1.37009,-30.71764 0.4567,-14.23512 0.9134,-32.70333 1.3701,-55.15616 0.45669,-22.45282 0.91339,-48.91198 1.37009,-78.18726 0.4567,-29.27529 0.91339,-61.36557 1.37009,-94.27781 0.4567,-32.91224 0.9134,-66.62099 1.3701,-98.68776 0.45669,-32.06677 0.91339,-62.4461 1.37009,-88.75232 0.4567,-26.30621 0.91339,-48.4829 1.37009,-64.71582 0.4567,-16.23291 0.9134,-26.46627 1.37009,-29.8652 0.4567,-3.39893 0.9134,0.0806 1.3701,10.10211 0.45669,10.02156 0.91339,26.60943 1.37009,48.33041 0.4567,21.72098 0.9134,48.57677 1.37009,78.35877 0.4567,29.782 0.9134,62.47203 1.3701,95.57149 0.45669,33.09946 0.91339,66.57743 1.37009,98.1708 0.4567,31.59336 0.91339,61.26781 1.37009,87.43134 0.4567,26.16353 0.9134,48.78737 1.3701,67.19549 0.45669,18.40811 0.91339,32.58345 1.37009,42.77455 0.4567,10.19109 0.91339,16.39464 1.37009,19.57534 0.4567,3.1807 0.9134,3.3468 1.37009,1.82871 0.4567,-1.51809 0.9134,-4.70583 1.3701,-8.25361 0.4567,-3.54778 0.91339,-7.44111 1.37009,-10.70829 0.4567,-3.26719 0.9134,-5.89921 1.37009,-7.43488 0.4567,-1.53567 0.9134,-1.9743 1.3701,-1.36693 0.45669,0.60736 0.91339,2.25332 1.37009,4.51835 0.4567,2.26502 0.9134,5.13662 1.37009,8.05151 0.4567,2.9149 0.9134,5.85994 1.3701,8.35378 0.45669,2.49384 0.91339,4.52692 1.37009,5.8565 0.4567,1.32958 0.91339,1.95236 1.37009,1.91271 0.4567,-0.0397 0.9134,-0.73848 1.3701,-1.8243 0.45669,-1.08582 0.91339,-2.55074 1.37009,-4.02632 0.4567,-1.47558 0.91339,-2.95266 1.37009,-4.11511 0.4567,-1.16246 0.9134,-2.00331 1.37009,-2.36993 0.4567,-0.36662 0.9134,-0.25657 1.3701,0.28109 0.45669,0.53766 0.91339,1.50028 1.37009,2.6779 0.4567,1.17762 0.9134,2.5639 1.37009,3.88503 0.4567,1.32113 0.9134,2.5697 1.3701,3.52045 0.45669,0.95076 0.91339,1.59808 1.37009,1.84967 0.4567,0.25159 0.91339,0.10566 1.37009,-0.37026 0.4567,-0.47592 0.9134,-1.27933 1.3701,-2.21979 0.45669,-0.94046 0.91339,-2.01236 1.37009,-2.98501 0.4567,-0.97264 0.91339,-1.83962 1.37009,-2.42408 0.4567,-0.58446 0.9134,-0.88175 1.37009,-0.8374 0.4567,0.0444 0.9134,0.43145 1.3701,1.07589 0.4567,0.64445 0.91339,1.54346 1.37009,2.51053 0.4567,0.96708 0.9134,1.99668 1.37009,2.8794 0.4567,0.88273 0.9134,1.6125 1.3701,2.04291 0.45669,0.43041 0.91339,0.55729 1.37009,0.35673 0.4567,-0.20056 0.9134,-0.72914 1.37009,-1.47747 0.4567,-0.74832 0.9134,-1.71314 1.3701,-2.69795 0.45669,-0.98481 0.91339,-1.98377 1.37009,-2.79245 0.4567,-0.80868 0.91339,-1.42096 1.37009,-1.70932 0.4567,-0.28836 0.9134,-0.24889 1.37009,0.11374 0.4567,0.36263 0.9134,1.04843 1.3701,1.91785 0.4567,0.86942 0.91339,1.91838 1.37009,2.92518 0.4567,1.0068 0.9134,1.9647 1.37009,2.65885 0.4567,0.69414 0.9134,1.11773 1.3701,1.15356 0.45669,0.0358 0.91339,-0.32017 1.37009,-1.03173 0.4567,-0.71157 0.9134,-1.77817 1.37009,-3.01416 0.4567,-1.23599 0.9134,-2.63608 1.3701,-3.9318 0.45669,-1.29572 0.91339,-2.47876 1.37009,-3.30475 0.4567,-0.826 0.91339,-1.28673 1.37009,-1.26914 0.4567,0.0176 0.9134,0.51823 1.3701,1.41975 0.45669,0.90153 0.91339,2.20274 1.37009,3.63618 0.4567,1.43345 0.91339,2.99167 1.37009,4.3101 0.4567,1.31843 0.9134,2.38547 1.37009,2.88003 0.4567,0.49456 0.9134,0.40494 1.3701,-0.40298 0.4567,-0.80793 0.91339,-2.34126 1.37009,-4.45788 0.4567,-2.11662 0.9134,-4.81532 1.37009,-7.68693 0.4567,-2.87162 0.9134,-5.90547 1.3701,-8.54644 0.45669,-2.64097 0.91339,-4.87113 1.37009,-6.19662 0.4567,-1.32548 0.91339,-1.72643 1.37009,-1.00263 0.4567,0.7238 0.9134,2.58707 1.3701,5.31786 0.45669,2.73078 0.91339,6.33187 1.37009,10.0068 0.4567,3.67492 0.91339,7.4103 1.37009,9.99947 0.4567,2.58918 0.9134,4.00255 1.37009,2.89598 0.4567,-1.10656 0.9134,-4.77418 1.3701,-12.11317 0.4567,-7.339 0.91339,-18.39338 1.37009,-33.66752 0.4567,-15.27414 0.9134,-34.80442 1.37009,-58.2253 0.4567,-23.42087 0.9134,-50.75146 1.3701,-80.68872 0.45669,-29.93726 0.91339,-62.47697 1.37009,-95.54701 0.4567,-33.07004 0.9134,-66.64209 1.37009,-98.25536 0.4567,-31.61326 0.9134,-61.22032 1.3701,-86.47962 0.45669,-25.2593 0.91339,-46.11385 1.37009,-60.8531 0.4567,-14.73925 0.91339,-23.30835 1.37009,-25.01355 0.4567,-1.70521 0.9134,3.49532 1.3701,15.11853 0.45669,11.62321 0.91339,29.69057 1.37009,52.64998 0.4567,22.95941 0.91339,50.80982 1.37009,81.27775 0.4567,30.46792 0.9134,63.53312 1.37009,96.69833 0.4567,33.16521 0.9134,66.39857 1.3701,97.50015 0.45669,31.10159 0.91339,60.03733 1.37009,85.321 0.4567,25.28366 0.9134,46.8877 1.37009,64.25605 0.4567,17.36836 0.9134,30.48569 1.3701,39.70525 0.45669,9.21957 0.91339,14.53971 1.37009,16.99184 0.4567,2.45213 0.91339,2.0456 1.37009,0.12887 0.4567,-1.91672 0.9134,-5.32875 1.3701,-8.9538 0.45669,-3.62504 0.91339,-7.44904 1.37009,-10.55814 0.4567,-3.10911 0.91339,-5.49525 1.37009,-6.76458 0.4567,-1.26933 0.9134,-1.42228 1.37009,-0.56619 0.4567,0.85609 0.9134,2.71298 1.3701,5.12006 0.4567,2.40709 0.91339,5.35154 1.37009,8.26884 0.4567,2.91729 0.9134,5.7945 1.37009,8.17355 0.4567,2.37904 0.9134,4.25104 1.3701,5.40886 0.45669,1.15783 0.91339,1.59903 1.37009,1.40164 0.4567,-0.1974 0.9134,-1.0294 1.37009,-2.20368 0.4567,-1.17428 0.9134,-2.6826 1.3701,-4.15522 0.45669,-1.47261 0.91339,-2.90045 1.37009,-3.98303 0.4567,-1.08257 0.91339,-1.81338 1.37009,-2.06458 0.4567,-0.2512 0.9134,-0.021 1.3701,0.61766 0.45669,0.63868 0.91339,1.68265 1.37009,2.90791 0.4567,1.22525 0.91339,2.62515 1.37009,3.926 0.4567,1.30086 0.9134,2.49533 1.37009,3.37114 0.4567,0.87581 0.9134,1.42774 1.3701,1.58335 0.45669,0.15561 0.91339,-0.0863 1.37009,-0.63972 0.4567,-0.55339 0.9134,-1.41525 1.37009,-2.38496 0.4567,-0.96972 0.9134,-2.04146 1.3701,-2.98628 0.45669,-0.94482 0.91339,-1.75642 1.37009,-2.27035 0.4567,-0.51393 0.91339,-0.72591 1.37009,-0.59922 0.4567,0.1267 0.9134,0.59268 1.3701,1.29676 0.45669,0.70408 0.91339,1.64301 1.37009,2.62268 0.4567,0.97968 0.91339,1.99434 1.37009,2.83798 0.4567,0.84365 0.9134,1.51033 1.37009,1.86655 0.4567,0.35623 0.9134,0.3982 1.3701,0.11918 0.4567,-0.27902 0.91339,-0.87914 1.37009,-1.67765 0.4567,-0.7985 0.9134,-1.79172 1.37009,-2.77735 0.4567,-0.98562 0.9134,-1.95762 1.3701,-2.71686 0.45669,-0.75923 0.91339,-1.29972 1.37009,-1.50837 0.4567,-0.20865 0.9134,-0.082 1.37009,0.35745 0.4567,0.43942 0.9134,1.19105 1.3701,2.10119"
       style="opacity:1;fill:none;fill-opacity:1;stroke:#d40000;stroke-width:3.72684908;stroke-linecap:round;stroke-linejoin:round;stroke-miterlimit:4;stroke-dasharray:none;stroke-dashoffset:0;stroke-opacity:1"
       inkscape:connector-curvature="0"
       transform="matrix(0.58577343,0,0,0.43210496,259.52127,156.42604)"
       sodipodi:nodetypes="csssssssccscccscsccsscccccsccscccscccccsccscccccccscccccsccsscsscsscsssssscssssssssscsscccccscssccccccsccsscssccscccccsccssccccccsccsccsccsscsssssssssssssssssscssscscssccsscccsccsscssscsccccccccssccssccccscccsssssssssssssssssssssssssscssssssssccsscccsccscssscccscscccscccccccsscccccsssccscscccsssssssssssssscccscccccscccccsscssccsscscccscccccsscsscccccssccccssccscccsssssssscssssssssccscccscssccscccsccsccsccscccccscccsccsscsccsscccccscsssccssssssssccsssssssscssccsccsccscccsccssccscccccsccsscsscccccccccsccscccscsscssssssssccsssssscsccsscssccccccsccccccccscccccscccscc" />
    <g
       id="g3759"
       transform="matrix(1,0,0,0.87119732,14.999999,38.575935)"
       style="stroke-width:1.07137561">
      <path
         sodipodi:nodetypes="cc"
         inkscape:connector-curvature="0"
         id="path69"
         d="m 194.62218,337.72392 h 57.09334"
         style="fill:none;fill-rule:evenodd;stroke:#000000;stroke-width:2.00882912;stroke-linecap:butt;stroke-linejoin:miter;stroke-miterlimit:4;stroke-dasharray:none;stroke-opacity:1;marker-start:url(#Arrow1Sstart);marker-end:url(#marker1945)" />
      <path
         inkscape:connector-curvature="0"
         id="path2297"
         d="m 204.32568,590.34348 h 22.03124"
         style="fill:none;fill-rule:evenodd;stroke:#000000;stroke-width:2.00882912;stroke-linecap:butt;stroke-linejoin:miter;stroke-miterlimit:4;stroke-dasharray:none;stroke-opacity:1;marker-start:url(#marker2319)" />
      <path
         inkscape:connector-curvature="0"
         id="path2297-3"
         d="M 182.02722,590.34348 H 159.99598"
         style="fill:none;fill-rule:evenodd;stroke:#000000;stroke-width:2.00882888;stroke-linecap:butt;stroke-linejoin:miter;stroke-miterlimit:4;stroke-dasharray:none;stroke-opacity:1;marker-start:url(#marker2319-7)" />
    </g>
    <path
       style="fill:none;fill-rule:evenodd;stroke:#737373;stroke-width:0.93749988;stroke-linecap:butt;stroke-linejoin:miter;stroke-miterlimit:4;stroke-dasharray:5.62499953, 1.87499985;stroke-dashoffset:0;stroke-opacity:1"
       d="M -170.20525,572.47059 V 309.56773"
       id="path457"
       inkscape:connector-curvature="0"
       sodipodi:nodetypes="cc" />
    <path
       inkscape:connector-curvature="0"
       id="path2175"
       title="cos(x*2)"
       d="m -359.08634,312.05787 c 1.26626,2e-5 2.53252,0.0227 3.79878,0.068 1.26628,0.0452 2.53252,0.11317 3.79879,0.20302 1.26625,0.0898 2.53253,0.20175 3.79878,0.33472 1.26627,0.13297 2.53253,0.28712 3.7988,0.46106 1.26625,0.17395 2.53252,0.36783 3.79879,0.57996 1.26625,0.21213 2.53251,0.44264 3.79877,0.68955 1.26627,0.2469 2.53254,0.5103 3.79879,0.78801 1.26627,0.27772 2.53254,0.56979 3.7988,0.87384 1.26626,0.30403 2.53253,0.62008 3.79878,0.94556 1.26626,0.32547 2.53252,0.66042 3.79879,1.00209 1.26627,0.34167 2.53252,0.69012 3.79879,1.0425 1.26626,0.35237 2.53253,0.7087 3.79878,1.06612 1.26628,0.35741 2.53252,0.7159 3.79879,1.0726 1.26625,0.35669 2.53253,0.71158 3.79879,1.06182 1.26626,0.35023 2.53252,0.6958 3.79879,1.03394 1.26626,0.33815 2.53252,0.66883 3.79879,0.98943 1.26625,0.32063 2.53251,0.6311 3.79878,0.92903 1.26626,0.29792 2.53253,0.58321 3.79878,0.85364 1.26627,0.27044 2.53253,0.52593 3.7988,0.76454 1.26625,0.23859 2.53253,0.46019 3.79877,0.66312 1.26627,0.20291 2.53254,0.38705 3.7988,0.55104 1.26626,0.16397 2.53252,0.30768 3.79878,0.43008 1.26626,0.1224 2.53253,0.22338 3.79879,0.30223 1.26627,0.0788 2.53252,0.13545 3.79878,0.1695 1.26628,0.0341 2.53253,0.0454 3.7988,0.0341 1.26625,-0.0112 2.53252,-0.0455 3.79877,-0.10195 1.26628,-0.0565 2.53253,-0.13554 3.79881,-0.23632 1.26625,-0.1008 2.53251,-0.22347 3.79878,-0.3669 1.26626,-0.14344 2.53252,-0.30777 3.79878,-0.49156 1.26626,-0.18379 2.53253,-0.38714 3.79879,-0.6083 1.26626,-0.22117 2.53253,-0.46027 3.79879,-0.71527 1.26625,-0.255 2.53253,-0.526 3.79878,-0.81072 1.26627,-0.28473 2.53252,-0.58326 3.79879,-0.89313 1.26626,-0.30986 2.53253,-0.63114 3.79878,-0.96116 1.26628,-0.33003 2.53253,-0.66885 3.79879,-1.01374 1.26627,-0.34487 2.53253,-0.69581 3.79879,-1.05 1.26626,-0.35417 2.53252,-0.71158 3.79879,-1.06936 1.26626,-0.35776 2.53253,-0.7159 3.79879,-1.07151 1.26626,-0.35562 2.53251,-0.7087 3.79879,-1.05644 1.26625,-0.34775 2.53252,-0.6901 3.79877,-1.02435 1.26627,-0.33426 2.53253,-0.6604 3.7988,-0.9758 1.26626,-0.31541 2.53252,-0.62005 3.79878,-0.91154 1.26627,-0.29148 2.53253,-0.56973 3.79879,-0.83258 1.26626,-0.26287 2.53252,-0.51026 3.79878,-0.74029 1.26627,-0.23001 2.53253,-0.44257 3.7988,-0.63602 1.26625,-0.19347 2.53252,-0.36775 3.79878,-0.52156 1.26627,-0.15381 2.53252,-0.28703 3.79879,-0.3987 1.26625,-0.11169 2.53252,-0.20168 3.79879,-0.26942 1.26626,-0.0679 2.53252,-0.11309 3.79878,-0.1358 1.26626,-0.0227 2.53253,-0.0226 3.79879,0 1.26626,0.0226 2.53252,0.0681 3.79878,0.1358 1.26627,0.0677 2.53254,0.15779 3.79879,0.26942 1.26627,0.11163 2.53252,0.24494 3.79879,0.3987 1.26626,0.15376 2.53253,0.32812 3.79878,0.52156 1.26627,0.19343 2.53253,0.40604 3.7988,0.63602 1.26626,0.22999 2.53252,0.47744 3.79878,0.74029 1.26626,0.26282 2.53252,0.54113 3.79879,0.83258 1.26626,0.29147 2.53252,0.59614 3.79878,0.91154 1.26627,0.31539 2.53253,0.64155 3.7988,0.9758 1.26625,0.33423 2.53252,0.67663 3.79877,1.02435 1.26628,0.34773 2.53253,0.70083 3.79879,1.05644 1.26626,0.35561 2.53253,0.71374 3.79879,1.07151 1.26627,0.35778 2.53253,0.71519 3.79879,1.06936 1.26626,0.35419 2.53252,0.70511 3.79879,1.05 1.26626,0.34489 2.53251,0.68369 3.79879,1.01374 1.26625,0.33003 2.53252,0.65127 3.79878,0.96116 1.26627,0.3099 2.53252,0.60839 3.79879,0.89313 1.26626,0.28475 2.53252,0.55568 3.79879,0.81072 1.266258,0.25503 2.532519,0.49405 3.798782,0.71527 1.266262,0.2212 2.532525,0.42447 3.798787,0.6083 1.266262,0.18382 2.532524,0.34807 3.798787,0.49156 1.266262,0.14348 2.532525,0.26605 3.798787,0.3669 1.266262,0.10078 2.532524,0.17977 3.798787,0.23632 1.266262,0.0566 2.532524,0.0906 3.798787,0.10195 1.266263,0.0113 2.532523,-4e-5 3.798787,-0.0341 1.266262,-0.034 2.532525,-0.0907 3.798787,-0.1695 1.266262,-0.0789 2.532524,-0.17987 3.798787,-0.30223 1.266261,-0.12236 2.532525,-0.26616 3.798787,-0.43008 1.266262,-0.16394 2.532525,-0.34816 3.798786,-0.55104 1.266263,-0.2029 2.532526,-0.42456 3.798787,-0.66312 1.266263,-0.23857 2.532526,-0.49414 3.798786,-0.76454 1.266264,-0.27041 2.532525,-0.55575 3.798788,-0.85364 1.266263,-0.2979 2.532525,-0.60842 3.798788,-0.92903 1.266261,-0.32058 2.532524,-0.6513 3.798788,-0.98943 1.266261,-0.33813 2.532524,-0.68372 3.798787,-1.03394 1.266261,-0.35023 2.532523,-0.70513 3.798786,-1.06182 1.266262,-0.3567 2.532526,-0.71518 3.798787,-1.0726 1.266263,-0.35742 2.532525,-0.71374 3.798787,-1.06612 1.266262,-0.35238 2.532525,-0.70083 3.798787,-1.0425 1.266263,-0.34168 2.532524,-0.67661 3.798787,-1.00209 1.266263,-0.32549 2.532525,-0.64152 3.798787,-0.94556 1.266262,-0.30406 2.532525,-0.5961 3.7987871,-0.87384 1.2662624,-0.27772 2.5325247,-0.54108 3.7987871,-0.78801 1.2662623,-0.24695 2.5325246,-0.47737 3.7987871,-0.68955 1.26626214,-0.21217 2.53252462,-0.40598 3.7987869,-0.57996 1.2662623,-0.17399 2.5325247,-0.32805 3.7987871,-0.46106 1.2662617,-0.13301 2.5325236,-0.24483 3.7987866,-0.33472 1.2662621,-0.0898 2.5325251,-0.1577 3.7987871,-0.20302 1.266261,-0.0453 2.532524,-0.068 3.798787,-0.068"
       style="opacity:1;fill:none;fill-opacity:1;fill-rule:nonzero;stroke:#aa0000;stroke-width:1.875;stroke-linecap:round;stroke-linejoin:round;stroke-miterlimit:4;stroke-dasharray:none;stroke-dashoffset:0;stroke-opacity:1" />
    <path
       inkscape:connector-curvature="0"
       style="opacity:1;fill:none;fill-opacity:1;fill-rule:nonzero;stroke:#ec0000;stroke-width:1.875;stroke-linecap:round;stroke-linejoin:round;stroke-miterlimit:4;stroke-dasharray:none;stroke-dashoffset:0;stroke-opacity:1"
       d="m -359.08634,353.47399 c 1.26626,-5e-5 2.53252,-0.0513 3.79878,-0.15284 1.26628,-0.10152 2.53252,-0.25352 3.79879,-0.45294 1.26625,-0.19943 2.53253,-0.44659 3.79878,-0.73672 1.26627,-0.29013 2.53253,-0.62349 3.7988,-0.99384 1.26625,-0.37035 2.53252,-0.77789 3.79879,-1.21506 1.26625,-0.43718 2.53251,-0.90416 3.79877,-1.39236 1.26627,-0.4882 2.53254,-0.99774 3.79879,-1.51932 1.26627,-0.52159 2.53254,-1.05528 3.7988,-1.59139 1.26626,-0.53611 2.53253,-1.07465 3.79878,-1.60593 1.26626,-0.53127 2.53252,-1.05521 3.79879,-1.56244 1.26627,-0.50722 2.53252,-0.99762 3.79879,-1.46246 1.26626,-0.46484 2.53253,-0.90397 3.79878,-1.30963 1.26628,-0.40567 2.53252,-0.77765 3.79879,-1.10948 1.26625,-0.33182 2.53253,-0.62324 3.79879,-0.86921 1.26626,-0.24599 2.53252,-0.44629 3.79879,-0.59755 1.26626,-0.15126 2.53252,-0.25319 3.79879,-0.30426 1.26625,-0.0511 2.53251,-0.051 3.79878,0 1.26626,0.051 2.53253,0.15311 3.79878,0.30426 1.26627,0.15116 2.53253,0.35165 3.7988,0.59755 1.26625,0.24589 2.53253,0.53746 3.79877,0.86921 1.26627,0.33175 2.53254,0.70389 3.7988,1.10948 1.26626,0.4056 2.53252,0.84483 3.79878,1.30963 1.26626,0.46479 2.53253,0.95527 3.79879,1.46246 1.26627,0.5072 2.53252,1.03118 3.79878,1.56244 1.26628,0.53125 2.53253,1.0698 3.7988,1.60593 1.26625,0.53612 2.53252,1.06977 3.79877,1.59139 1.26628,0.52161 2.53253,1.03107 3.79881,1.51932 1.26625,0.48825 2.53251,0.95513 3.79878,1.39236 1.26626,0.43723 2.53252,0.84463 3.79878,1.21506 1.26626,0.37041 2.53253,0.70363 3.79879,0.99384 1.26626,0.2902 2.53253,0.53719 3.79879,0.73672 1.26625,0.19952 2.53253,0.35133 3.79878,0.45294 1.26627,0.10164 2.53252,0.15279 3.79879,0.15284 1.26626,5e-5 2.53253,-0.0513 3.79878,-0.15284 1.26628,-0.10152 2.53253,-0.25352 3.79879,-0.45294 1.26627,-0.19943 2.53253,-0.44659 3.79879,-0.73672 1.26626,-0.29013 2.53252,-0.62349 3.79879,-0.99384 1.26626,-0.37035 2.53253,-0.77789 3.79879,-1.21506 1.26626,-0.43718 2.53251,-0.90416 3.79879,-1.39236 1.26625,-0.4882 2.53252,-0.99774 3.79877,-1.51932 1.26627,-0.52159 2.53253,-1.05528 3.7988,-1.59139 1.26626,-0.53611 2.53252,-1.07465 3.79878,-1.60593 1.26627,-0.53127 2.53253,-1.05521 3.79879,-1.56244 1.26626,-0.50722 2.53252,-0.99762 3.79878,-1.46246 1.26627,-0.46484 2.53253,-0.90397 3.7988,-1.30963 1.26625,-0.40567 2.53252,-0.77765 3.79878,-1.10948 1.26627,-0.33182 2.53252,-0.62324 3.79879,-0.86921 1.26625,-0.24599 2.53252,-0.44629 3.79879,-0.59755 1.26626,-0.15126 2.53252,-0.25319 3.79878,-0.30426 1.26626,-0.0511 2.53253,-0.051 3.79879,0 1.26626,0.051 2.53252,0.15311 3.79878,0.30426 1.26627,0.15116 2.53254,0.35165 3.79879,0.59755 1.26627,0.24589 2.53252,0.53746 3.79879,0.86921 1.26626,0.33175 2.53253,0.70389 3.79878,1.10948 1.26627,0.4056 2.53253,0.84483 3.7988,1.30963 1.26626,0.46479 2.53252,0.95527 3.79878,1.46246 1.26626,0.5072 2.53252,1.03118 3.79879,1.56244 1.26626,0.53125 2.53252,1.0698 3.79878,1.60593 1.26627,0.53612 2.53253,1.06977 3.7988,1.59139 1.26625,0.52161 2.53252,1.03107 3.79877,1.51932 1.26628,0.48825 2.53253,0.95513 3.79879,1.39236 1.26626,0.43723 2.53253,0.84463 3.79879,1.21506 1.26627,0.37041 2.53253,0.70363 3.79879,0.99384 1.26626,0.2902 2.53252,0.53719 3.79879,0.73672 1.26626,0.19952 2.53251,0.35133 3.79879,0.45294 1.26625,0.10164 2.53252,0.15279 3.79878,0.15284 1.26627,5e-5 2.53252,-0.0513 3.79879,-0.15284 1.26626,-0.10152 2.53252,-0.25352 3.79879,-0.45294 1.266258,-0.19943 2.532519,-0.44659 3.798782,-0.73672 1.266262,-0.29013 2.532525,-0.62349 3.798787,-0.99384 1.266262,-0.37035 2.532524,-0.77789 3.798787,-1.21506 1.266262,-0.43718 2.532525,-0.90416 3.798787,-1.39236 1.266262,-0.4882 2.532524,-0.99774 3.798787,-1.51932 1.266262,-0.52159 2.532524,-1.05528 3.798787,-1.59139 1.266263,-0.53611 2.532523,-1.07465 3.798787,-1.60593 1.266262,-0.53127 2.532525,-1.05521 3.798787,-1.56244 1.266262,-0.50722 2.532524,-0.99762 3.798787,-1.46246 1.266261,-0.46484 2.532525,-0.90397 3.798787,-1.30963 1.266262,-0.40567 2.532525,-0.77765 3.798786,-1.10948 1.266263,-0.33182 2.532526,-0.62324 3.798787,-0.86921 1.266263,-0.24599 2.532526,-0.44629 3.798786,-0.59755 1.266264,-0.15126 2.532525,-0.25319 3.798788,-0.30426 1.266263,-0.0511 2.532525,-0.051 3.798788,0 1.266261,0.051 2.532524,0.15311 3.798788,0.30426 1.266261,0.15116 2.532524,0.35165 3.798787,0.59755 1.266261,0.24589 2.532523,0.53746 3.798786,0.86921 1.266262,0.33175 2.532526,0.70389 3.798787,1.10948 1.266263,0.4056 2.532525,0.84483 3.798787,1.30963 1.266262,0.46479 2.532525,0.95527 3.798787,1.46246 1.266263,0.5072 2.532524,1.03118 3.798787,1.56244 1.266263,0.53125 2.532525,1.0698 3.798787,1.60593 1.266262,0.53612 2.532525,1.06977 3.7987871,1.59139 1.2662624,0.52161 2.5325247,1.03107 3.7987871,1.51932 1.2662623,0.48825 2.5325246,0.95513 3.7987871,1.39236 1.26626214,0.43723 2.53252462,0.84463 3.7987869,1.21506 1.2662623,0.37041 2.5325247,0.70363 3.7987871,0.99384 1.2662617,0.2902 2.5325236,0.53719 3.7987866,0.73672 1.2662621,0.19952 2.5325251,0.35133 3.7987871,0.45294 1.266261,0.10164 2.532524,0.15279 3.798787,0.15284"
       title="cos(x*3)"
       id="path2373" />
    <path
       inkscape:connector-curvature="0"
       id="path2573"
       title="cos(x*4)"
       d="m -359.08634,361.06274 c 1.26626,10e-5 2.53252,0.0914 3.79878,0.27107 1.26628,0.17963 2.53252,0.44792 3.79879,0.79578 1.26625,0.34786 2.53253,0.77573 3.79878,1.2695 1.26627,0.49378 2.53253,1.0538 3.7988,1.66186 1.26625,0.60804 2.53252,1.2643 3.79879,1.94765 1.26625,0.68334 2.53251,1.39379 3.79877,2.10862 1.26627,0.71481 2.53254,1.43392 3.79879,2.13441 1.26627,0.7005 2.53254,1.38215 3.7988,2.02337 1.26626,0.64128 2.53253,1.24178 3.79878,1.78267 1.26626,0.54091 2.53252,1.02177 3.79879,1.42766 1.26627,0.40588 2.53252,0.73629 3.79879,0.98113 1.26626,0.24486 2.53253,0.4036 3.79878,0.47172 1.26628,0.0681 2.53252,0.045 3.79879,-0.0679 1.26625,-0.11298 2.53253,-0.31639 3.79879,-0.60323 1.26626,-0.28685 2.53252,-0.65756 3.79879,-1.09986 1.26626,-0.44231 2.53252,-0.95655 3.79879,-1.52598 1.26625,-0.56943 2.53251,-1.19425 3.79878,-1.8543 1.26626,-0.66002 2.53253,-1.35539 3.79878,-2.06373 1.26627,-0.70833 2.53253,-1.42964 3.7988,-2.14087 1.26625,-0.71124 2.53253,-1.41226 3.79877,-2.0808 1.26627,-0.66854 2.53254,-1.30432 3.7988,-1.88733 1.26626,-0.58299 2.53252,-1.1128 3.79878,-1.57287 1.26626,-0.46006 2.53253,-0.84992 3.79879,-1.15759 1.26627,-0.30765 2.53252,-0.53259 3.79878,-0.66811 1.26628,-0.13553 2.53253,-0.1811 3.7988,-0.1358 1.26625,0.0453 2.53252,0.182 3.79877,0.40522 1.26628,0.22321 2.53253,0.53342 3.79881,0.92025 1.26625,0.38682 2.53251,0.85067 3.79878,1.37631 1.26626,0.52564 2.53252,1.11336 3.79878,1.74413 1.26626,0.63075 2.53253,1.3047 3.79879,2.00015 1.26626,0.69545 2.53253,1.41241 3.79879,2.12795 1.26625,0.71556 2.53253,1.42958 3.79878,2.11936 1.26627,0.68979 2.53252,1.35509 3.79879,1.9749 1.26626,0.6198 2.53253,1.19375 3.79878,1.70384 1.26628,0.5101 2.53253,0.95589 3.79879,1.32357 1.26627,0.36769 2.53253,0.65676 3.79879,0.85846 1.26626,0.2017 2.53252,0.3155 3.79879,0.3383 1.26626,0.0228 2.53253,-0.0459 3.79879,-0.20353 1.26626,-0.15758 2.53251,-0.40447 3.79879,-0.73231 1.26625,-0.32785 2.53252,-0.73706 3.79877,-1.21416 1.26627,-0.47711 2.53253,-1.02241 3.7988,-1.61817 1.26626,-0.59578 2.53252,-1.24222 3.79878,-1.91847 1.26627,-0.67624 2.53253,-1.38238 3.79879,-2.09575 1.26626,-0.71339 2.53252,-1.43395 3.79878,-2.13873 1.26627,-0.70478 2.53253,-1.39359 3.7988,-2.0446 1.26625,-0.65099 2.53252,-1.26388 3.79878,-1.81938 1.26627,-0.55549 2.53252,-1.05319 3.79879,-1.47757 1.26625,-0.42437 2.53252,-0.77495 3.79879,-1.04101 1.26626,-0.26606 2.53252,-0.44706 3.79878,-0.53774 1.26626,-0.0907 2.53253,-0.0905 3.79879,0 1.26626,0.0905 2.53252,0.27185 3.79878,0.53774 1.26627,0.26588 2.53254,0.61678 3.79879,1.04101 1.26627,0.42425 2.53252,0.92219 3.79879,1.47757 1.26626,0.55538 2.53253,1.16846 3.79878,1.81938 1.26627,0.65094 2.53253,1.33984 3.7988,2.0446 1.26626,0.70475 2.53252,1.42533 3.79878,2.13873 1.26626,0.71338 2.53252,1.41945 3.79879,2.09575 1.26626,0.67631 2.53252,1.3226 3.79878,1.91847 1.26627,0.59587 2.53253,1.14094 3.7988,1.61817 1.26625,0.47724 2.53252,0.88616 3.79877,1.21416 1.26628,0.328 2.53253,0.57457 3.79879,0.73231 1.26626,0.15775 2.53253,0.22615 3.79879,0.20353 1.26627,-0.0227 2.53253,-0.13677 3.79879,-0.3383 1.26626,-0.20153 2.53252,-0.49093 3.79879,-0.85846 1.26626,-0.36752 2.53251,-0.8136 3.79879,-1.32357 1.26625,-0.50997 2.53252,-1.08412 3.79878,-1.70384 1.26627,-0.61971 2.53252,-1.28516 3.79879,-1.9749 1.26626,-0.68974 2.53252,-1.40381 3.79879,-2.11936 1.266258,-0.71554 2.532519,-1.43247 3.798782,-2.12795 1.266262,-0.69548 2.532525,-1.36932 3.798787,-2.00015 1.266262,-0.63085 2.532524,-1.21838 3.798787,-1.74413 1.266262,-0.52577 2.532525,-0.98933 3.798787,-1.37631 1.266262,-0.38697 2.532524,-0.69686 3.798787,-0.92025 1.266262,-0.22339 2.532524,-0.35974 3.798787,-0.40522 1.266263,-0.0455 2.532523,3.1e-4 3.798787,0.1358 1.266262,0.13535 2.532525,0.36061 3.798787,0.66811 1.266262,0.30749 2.532524,0.69766 3.798787,1.15759 1.266261,0.45994 2.532525,0.98998 3.798787,1.57287 1.266262,0.58289 2.532525,1.21885 3.798786,1.88733 1.266263,0.66847 2.532526,1.36958 3.798787,2.0808 1.266263,0.71121 2.532526,1.43251 3.798786,2.14087 1.266264,0.70838 2.532525,1.40364 3.798788,2.06373 1.266263,0.66011 2.532525,1.28476 3.798788,1.8543 1.266261,0.56953 2.532524,1.08354 3.798788,1.52598 1.266261,0.44246 2.532524,0.81285 3.798787,1.09986 1.266261,0.287 2.532523,0.49008 3.798786,0.60323 1.266262,0.11316 2.532526,0.13588 3.798787,0.0679 1.266263,-0.0679 2.532525,-0.22703 3.798787,-0.47172 1.266262,-0.24467 2.532525,-0.57539 3.798787,-0.98113 1.266263,-0.40574 2.532524,-0.88687 3.798787,-1.42766 1.266263,-0.54077 2.532525,-1.14148 3.798787,-1.78267 1.266262,-0.64115 2.532525,-1.32292 3.7987871,-2.02337 1.2662624,-0.70044 2.5325247,-1.41959 3.7987871,-2.13441 1.2662623,-0.71483 2.5325246,-1.42522 3.7987871,-2.10862 1.26626214,-0.6834 2.53252462,-1.33952 3.7987869,-1.94765 1.2662623,-0.60816 2.5325247,-1.16796 3.7987871,-1.66186 1.2662617,-0.49392 2.5325236,-0.92149 3.7987866,-1.2695 1.2662621,-0.34802 2.5325251,-0.61598 3.7987871,-0.79578 1.266261,-0.17983 2.532524,-0.27097 3.798787,-0.27107"
       style="opacity:1;fill:none;fill-opacity:1;fill-rule:nonzero;stroke:#ec3800;stroke-width:1.875;stroke-linecap:round;stroke-linejoin:round;stroke-miterlimit:4;stroke-dasharray:none;stroke-dashoffset:0;stroke-opacity:1" />
    <path
       inkscape:connector-curvature="0"
       style="opacity:1;fill:none;fill-opacity:1;fill-rule:nonzero;stroke:#ec5900;stroke-width:1.875;stroke-linecap:round;stroke-linejoin:round;stroke-miterlimit:4;stroke-dasharray:none;stroke-dashoffset:0;stroke-opacity:1"
       d="m -359.08634,402.47883 c 1.26626,-1.4e-4 2.53252,-0.14324 3.79878,-0.42225 1.26628,-0.27899 2.53252,-0.69429 3.79879,-1.22455 1.26625,-0.53027 2.53253,-1.176 3.79878,-1.9046 1.26627,-0.7286 2.53253,-1.5403 3.7988,-2.39445 1.26625,-0.85416 2.53252,-1.75075 3.79879,-2.64519 1.26625,-0.89445 2.53251,-1.78639 3.79877,-2.6318 1.26627,-0.84538 2.53254,-1.64365 3.79879,-2.35558 1.26627,-0.71194 2.53254,-1.33679 3.7988,-1.84417 1.26626,-0.50738 2.53253,-0.89641 3.79878,-1.14858 1.26626,-0.25216 2.53252,-0.36654 3.79879,-0.3383 1.26627,0.0283 2.53252,0.19994 3.79879,0.50575 1.26626,0.30583 2.53253,0.74645 3.79878,1.29931 1.26628,0.55286 2.53252,1.21843 3.79879,1.96313 1.26625,0.74468 2.53253,1.56872 3.79879,2.43089 1.26626,0.86216 2.53252,1.76238 3.79879,2.65592 1.26626,0.89354 2.53252,1.78005 3.79879,2.61575 1.26625,0.83568 2.53251,1.61996 3.79878,2.31436 1.26626,0.69438 2.53253,1.29811 3.79878,1.78186 1.26627,0.48375 2.53253,0.84664 3.7988,1.07144 1.26625,0.2248 2.53253,0.31062 3.79877,0.25403 1.26627,-0.0566 2.53254,-0.25641 3.7988,-0.58875 1.26626,-0.33234 2.53252,-0.79786 3.79878,-1.37275 1.26626,-0.57491 2.53253,-1.25962 3.79879,-2.01967 1.26627,-0.76003 2.53252,-1.59559 3.79878,-2.46488 1.26628,-0.86929 2.53253,-1.77225 3.7988,-2.66399 1.26625,-0.89174 2.53252,-1.77192 3.79877,-2.59705 1.26628,-0.82516 2.53253,-1.59467 3.79881,-2.2708 1.26625,-0.67616 2.53251,-1.25817 3.79878,-1.7178 1.26626,-0.45962 2.53252,-0.79601 3.79878,-0.99322 1.26626,-0.19722 2.53253,-0.25438 3.79879,-0.16949 1.26626,0.0848 2.53253,0.31263 3.79879,0.67115 1.26625,0.35853 2.53253,0.84846 3.79878,1.44482 1.26627,0.59635 2.53252,1.29954 3.79879,2.07416 1.26626,0.77464 2.53253,1.62086 3.79878,2.49642 1.26628,0.87555 2.53253,1.78031 3.79879,2.66936 1.26627,0.88904 2.53253,1.76199 3.79879,2.57576 1.26626,0.81376 2.53252,1.56774 3.79879,2.22495 1.26626,0.65722 2.53253,1.21692 3.79879,1.65197 1.26626,0.43505 2.53251,0.74457 3.79879,0.914 1.26625,0.16944 2.53252,0.1979 3.79877,0.0849 1.26627,-0.1131 2.53253,-0.36855 3.7988,-0.7529 1.26626,-0.38435 2.53252,-0.8982 3.79878,-1.5154 1.26627,-0.6172 2.53253,-1.33816 3.79879,-2.12659 1.26626,-0.78843 2.53252,-1.64448 3.79878,-2.52542 1.26627,-0.88092 2.53253,-1.78659 3.7988,-2.67205 1.26625,-0.88546 2.53252,-1.75031 3.79878,-2.55187 1.26627,-0.80157 2.53252,-1.53924 3.79879,-2.17687 1.26625,-0.63765 2.53252,-1.17445 3.79879,-1.58448 1.26626,-0.41003 2.53252,-0.6924 3.79878,-0.83388 1.26626,-0.14148 2.53253,-0.14119 3.79879,0 1.26626,0.14121 2.53252,0.42409 3.79878,0.83388 1.26627,0.40977 2.53254,0.94703 3.79879,1.58448 1.26627,0.63745 2.53252,1.37542 3.79879,2.17687 1.26626,0.80144 2.53253,1.66644 3.79878,2.55187 1.26627,0.88542 2.53253,1.79107 3.7988,2.67205 1.26626,0.88098 2.53252,1.73684 3.79878,2.52542 1.26626,0.78857 2.53252,1.50918 3.79879,2.12659 1.26626,0.6174 2.53252,1.1308 3.79878,1.5154 1.26627,0.38461 2.53253,0.63951 3.7988,0.7529 1.26625,0.11339 2.53252,0.0843 3.79877,-0.0849 1.26628,-0.16914 2.53253,-0.47921 3.79879,-0.914 1.26626,-0.43481 2.53253,-0.99494 3.79879,-1.65197 1.26627,-0.65701 2.53253,-1.4113 3.79879,-2.22495 1.26626,-0.81365 2.53252,-1.68674 3.79879,-2.57576 1.26626,-0.88902 2.53251,-1.79376 3.79879,-2.66936 1.26625,-0.87562 2.53252,-1.72164 3.79878,-2.49642 1.26627,-0.77477 2.53252,-1.47761 3.79879,-2.07416 1.26626,-0.59657 2.53252,-1.08603 3.79879,-1.44482 1.266258,-0.35878 2.532519,-0.58598 3.798782,-0.67115 1.266262,-0.0853 2.532525,-0.0275 3.798787,0.16949 1.266262,0.19694 2.532524,0.53384 3.798787,0.99322 1.266262,0.45939 2.532525,1.04182 3.798787,1.7178 1.266262,0.67595 2.532524,1.44576 3.798787,2.2708 1.266262,0.82502 2.532524,1.70532 3.798787,2.59705 1.266263,0.89172 2.532523,1.79463 3.798787,2.66399 1.266262,0.86936 2.532525,1.70469 3.798787,2.46488 1.266262,0.7602 2.532524,1.44455 3.798787,2.01967 1.266261,0.57511 2.532525,1.04015 3.798787,1.37275 1.266262,0.3326 2.532525,0.53187 3.798786,0.58875 1.266263,0.0569 2.532526,-0.0294 3.798787,-0.25403 1.266263,-0.22452 2.532526,-0.58793 3.798786,-1.07144 1.266264,-0.48351 2.532525,-1.08765 3.798788,-1.78186 1.266263,-0.69422 2.532525,-1.47878 3.798788,-2.31436 1.266261,-0.83559 2.532524,-1.72223 3.798788,-2.61575 1.266261,-0.89353 2.532524,-1.79369 3.798787,-2.65592 1.266261,-0.86224 2.532523,-1.68605 3.798786,-2.43089 1.266262,-0.74486 2.532526,-1.41004 3.798787,-1.96313 1.266263,-0.55307 2.532525,-0.99322 3.798787,-1.29931 1.266262,-0.30608 2.532525,-0.47723 3.798787,-0.50575 1.266263,-0.0285 2.532524,0.0864 3.798787,0.3383 1.266263,0.2519 2.532525,0.64144 3.798787,1.14858 1.266262,0.50715 2.532525,1.13241 3.7987871,1.84417 1.2662624,0.71177 2.5325247,1.51028 3.7987871,2.35558 1.2662623,0.84531 2.5325246,1.73736 3.7987871,2.6318 1.26626214,0.89444 2.53252462,1.79095 3.7987869,2.64519 1.2662623,0.85425 2.5325247,1.66568 3.7987871,2.39445 1.2662617,0.72875 2.5325236,1.37409 3.7987866,1.9046 1.2662621,0.53048 2.5325251,0.94529 3.7987871,1.22455 1.266261,0.27928 2.532524,0.42211 3.798787,0.42225"
       title="cos(x*5)"
       id="path2775" />
    <path
       inkscape:connector-curvature="0"
       id="path2979"
       title="cos(x*6)"
       d="m -359.08634,410.06784 c 1.26626,2.1e-4 2.53252,0.20701 3.79878,0.60577 1.26628,0.39879 2.53252,0.98995 3.79879,1.73058 1.26625,0.74061 2.53253,1.63104 3.79878,2.6074 1.26627,0.97637 2.53253,2.03848 3.7988,3.11073 1.26625,1.07222 2.53252,2.15387 3.79879,3.16835 1.26625,1.01448 2.53251,1.96071 3.79877,2.7721 1.26627,0.8114 2.53254,1.48662 3.79879,1.9787 1.26627,0.49206 2.53254,0.79956 3.7988,0.90181 1.26626,0.10226 2.53253,-0.002 3.79878,-0.30427 1.26626,-0.30223 2.53252,-0.80336 3.79879,-1.46676 1.26627,-0.66341 2.53252,-1.48958 3.79879,-2.41912 1.26626,-0.92953 2.53253,-1.96239 3.79878,-3.02489 1.26628,-1.0625 2.53252,-2.15406 3.79879,-3.19731 1.26625,-1.04325 2.53253,-2.03715 3.79879,-2.91169 1.26626,-0.87452 2.53252,-1.62838 3.79879,-2.20891 1.26626,-0.58053 2.53252,-0.98631 3.79879,-1.18967 1.26625,-0.20334 2.53251,-0.20294 3.79878,0 1.26626,0.20296 2.53253,0.6095 3.79878,1.18967 1.26627,0.58019 2.53253,1.33462 3.7988,2.20891 1.26625,0.8743 2.53253,1.86854 3.79877,2.91169 1.26627,1.04314 2.53254,2.13475 3.7988,3.19731 1.26626,1.06255 2.53252,2.09516 3.79878,3.02489 1.26626,0.92974 2.53253,1.75539 3.79879,2.41912 1.26627,0.66373 2.53252,1.16412 3.79878,1.46676 1.26628,0.30262 2.53253,0.40608 3.7988,0.30427 1.26625,-0.10184 2.53252,-0.41012 3.79877,-0.90181 1.26628,-0.49172 2.53253,-1.16757 3.79881,-1.9787 1.26625,-0.81112 2.53251,-1.75775 3.79878,-2.7721 1.26626,-1.01434 2.53252,-2.09611 3.79878,-3.16835 1.26626,-1.07226 2.53253,-2.13419 3.79879,-3.11073 1.26626,-0.97653 2.53253,-1.86648 3.79879,-2.6074 1.26625,-0.74092 2.53253,-1.33143 3.79878,-1.73058 1.26627,-0.39914 2.53252,-0.60556 3.79879,-0.60577 1.26626,-2e-4 2.53253,0.20701 3.79878,0.60577 1.26628,0.39879 2.53253,0.98995 3.79879,1.73058 1.26627,0.74061 2.53253,1.63104 3.79879,2.6074 1.26626,0.97637 2.53252,2.03848 3.79879,3.11073 1.26626,1.07222 2.53253,2.15387 3.79879,3.16835 1.26626,1.01448 2.53251,1.96071 3.79879,2.7721 1.26625,0.8114 2.53252,1.48662 3.79877,1.9787 1.26627,0.49206 2.53253,0.79956 3.7988,0.90181 1.26626,0.10226 2.53252,-0.002 3.79878,-0.30427 1.26627,-0.30223 2.53253,-0.80336 3.79879,-1.46676 1.26626,-0.66341 2.53252,-1.48958 3.79878,-2.41912 1.26627,-0.92953 2.53253,-1.96239 3.7988,-3.02489 1.26625,-1.0625 2.53252,-2.15406 3.79878,-3.19731 1.26627,-1.04325 2.53252,-2.03715 3.79879,-2.91169 1.26625,-0.87452 2.53252,-1.62838 3.79879,-2.20891 1.26626,-0.58053 2.53252,-0.98631 3.79878,-1.18967 1.26626,-0.20334 2.53253,-0.20294 3.79879,0 1.26626,0.20296 2.53252,0.6095 3.79878,1.18967 1.26627,0.58019 2.53254,1.33462 3.79879,2.20891 1.26627,0.8743 2.53252,1.86854 3.79879,2.91169 1.26626,1.04314 2.53253,2.13475 3.79878,3.19731 1.26627,1.06255 2.53253,2.09516 3.7988,3.02489 1.26626,0.92974 2.53252,1.75539 3.79878,2.41912 1.26626,0.66373 2.53252,1.16412 3.79879,1.46676 1.26626,0.30262 2.53252,0.40608 3.79878,0.30427 1.26627,-0.10184 2.53253,-0.41012 3.7988,-0.90181 1.26625,-0.49172 2.53252,-1.16757 3.79877,-1.9787 1.26628,-0.81112 2.53253,-1.75775 3.79879,-2.7721 1.26626,-1.01434 2.53253,-2.09611 3.79879,-3.16835 1.26627,-1.07226 2.53253,-2.13419 3.79879,-3.11073 1.26626,-0.97653 2.53252,-1.86648 3.79879,-2.6074 1.26626,-0.74092 2.53251,-1.33143 3.79879,-1.73058 1.26625,-0.39914 2.53252,-0.60556 3.79878,-0.60577 1.26627,-2e-4 2.53252,0.20701 3.79879,0.60577 1.26626,0.39879 2.53252,0.98995 3.79879,1.73058 1.266258,0.74061 2.532519,1.63104 3.798782,2.6074 1.266262,0.97637 2.532525,2.03848 3.798787,3.11073 1.266262,1.07222 2.532524,2.15387 3.798787,3.16835 1.266262,1.01448 2.532525,1.96071 3.798787,2.7721 1.266262,0.8114 2.532524,1.48662 3.798787,1.9787 1.266262,0.49206 2.532524,0.79956 3.798787,0.90181 1.266263,0.10226 2.532523,-0.002 3.798787,-0.30427 1.266262,-0.30223 2.532525,-0.80336 3.798787,-1.46676 1.266262,-0.66341 2.532524,-1.48958 3.798787,-2.41912 1.266261,-0.92953 2.532525,-1.96239 3.798787,-3.02489 1.266262,-1.0625 2.532525,-2.15406 3.798786,-3.19731 1.266263,-1.04325 2.532526,-2.03715 3.798787,-2.91169 1.266263,-0.87452 2.532526,-1.62838 3.798786,-2.20891 1.266264,-0.58053 2.532525,-0.98631 3.798788,-1.18967 1.266263,-0.20334 2.532525,-0.20294 3.798788,0 1.266261,0.20296 2.532524,0.6095 3.798788,1.18967 1.266261,0.58019 2.532524,1.33462 3.798787,2.20891 1.266261,0.8743 2.532523,1.86854 3.798786,2.91169 1.266262,1.04314 2.532526,2.13475 3.798787,3.19731 1.266263,1.06255 2.532525,2.09516 3.798787,3.02489 1.266262,0.92974 2.532525,1.75539 3.798787,2.41912 1.266263,0.66373 2.532524,1.16412 3.798787,1.46676 1.266263,0.30262 2.532525,0.40608 3.798787,0.30427 1.266262,-0.10184 2.532525,-0.41012 3.7987871,-0.90181 1.2662624,-0.49172 2.5325247,-1.16757 3.7987871,-1.9787 1.2662623,-0.81112 2.5325246,-1.75775 3.7987871,-2.7721 1.26626214,-1.01434 2.53252462,-2.09611 3.7987869,-3.16835 1.2662623,-1.07226 2.5325247,-2.13419 3.7987871,-3.11073 1.2662617,-0.97653 2.5325236,-1.86648 3.7987866,-2.6074 1.2662621,-0.74092 2.5325251,-1.33143 3.7987871,-1.73058 1.266261,-0.39914 2.532524,-0.60556 3.798787,-0.60577"
       style="opacity:1;fill:none;fill-opacity:1;fill-rule:nonzero;stroke:#ec7a00;stroke-width:1.875;stroke-linecap:round;stroke-linejoin:round;stroke-miterlimit:4;stroke-dasharray:none;stroke-dashoffset:0;stroke-opacity:1" />
    <path
       inkscape:connector-curvature="0"
       style="opacity:1;fill:none;fill-opacity:1;fill-rule:nonzero;stroke:#d40000;stroke-width:2.75994778;stroke-linecap:round;stroke-linejoin:round;stroke-miterlimit:4;stroke-dasharray:none;stroke-dashoffset:0;stroke-opacity:1"
       d="m -358.55771,572.11913 c 1.26784,0 2.53567,0.003 3.8035,-0.009 1.26785,-0.0113 2.53568,-0.0388 3.80351,-0.1144 1.26783,-0.0755 2.53568,-0.20191 3.8035,-0.3882 1.26784,-0.1863 2.53568,-0.43327 3.80351,-0.70397 1.26783,-0.27071 2.53568,-0.56293 3.80351,-0.8081 1.26783,-0.24516 2.53567,-0.43959 3.80351,-0.52815 1.26782,-0.0886 2.53567,-0.0688 3.8035,0.0591 1.26783,0.12796 2.53566,0.36342 3.80351,0.6466 1.26783,0.28317 2.53566,0.61072 3.8035,0.90178 1.26784,0.29106 2.53566,0.54223 3.80351,0.70565 1.26783,0.16343 2.53566,0.23823 3.8035,0.23831 1.26784,7e-5 2.53567,-0.0723 3.80351,-0.15963 1.26784,-0.0873 2.53567,-0.186 3.8035,-0.24423 1.26784,-0.0582 2.53568,-0.0742 3.8035,-0.0425 1.26785,0.0317 2.53568,0.10976 3.80352,0.19412 1.26783,0.0843 2.53567,0.17166 3.8035,0.21709 1.26784,0.0454 2.53567,0.0466 3.80351,-8.7e-4 1.26783,-0.0479 2.53567,-0.14404 3.8035,-0.24513 1.26784,-0.10107 2.53567,-0.20337 3.80351,-0.25479 1.26783,-0.0514 2.53567,-0.0485 3.8035,0.0138 1.26784,0.0623 2.53567,0.18383 3.80351,0.30003 1.26783,0.11619 2.53568,0.22254 3.8035,0.22265 1.26784,1.1e-4 2.53568,-0.11196 3.80351,-0.38728 1.26783,-0.27531 2.53567,-0.71665 3.8035,-1.27183 1.26784,-0.55518 2.53567,-1.22114 3.80352,-1.85527 1.26782,-0.63414 2.53566,-1.22912 3.8035,-1.63655 1.26783,-0.40744 2.53567,-0.6208 3.80351,-0.5856 1.26783,0.0352 2.53566,0.31982 3.80351,0.77476 1.26783,0.45496 2.53566,1.0747 3.80349,1.70156 1.26785,0.62685 2.53567,1.25333 3.80351,1.75452 1.26784,0.50119 2.53567,0.87401 3.8035,1.10637 1.26785,0.23235 2.53568,0.32872 3.80351,0.36828 1.26784,0.0396 2.53568,0.031 3.8035,0.031 1.26785,0 2.53568,0.0133 3.80351,-0.0387 1.26783,-0.052 2.53568,-0.17534 3.80351,-0.58265 1.26783,-0.40731 2.53567,-1.1147 3.80351,-2.31437 1.26782,-1.19969 2.53567,-2.90802 3.8035,-5.07519 1.26783,-2.16717 2.53567,-4.79628 3.80351,-7.47797 1.26783,-2.6817 2.53567,-5.3983 3.8035,-7.50815 1.26784,-2.10984 2.53566,-3.58024 3.80351,-3.90085 1.26783,-0.3206 2.53566,0.53815 3.8035,2.54418 1.26784,2.00604 2.53568,5.16501 3.80351,8.7187 1.26784,3.5537 2.53567,7.47397 3.80351,10.50693 1.26783,3.03294 2.53567,5.12599 3.8035,5.12804 1.26784,0.002 2.53567,-2.13805 3.80351,-6.79253 1.26783,-4.65448 2.53567,-11.84432 3.8035,-20.79679 1.26784,-8.95249 2.53567,-19.64363 3.80351,-30.35624 1.26783,-10.71261 2.53567,-21.38673 3.8035,-30.08301 1.26785,-8.69629 2.53567,-15.34768 3.80351,-18.69055 1.26783,-3.34288 2.53567,-3.33643 3.8035,0 1.26784,3.33642 2.53567,9.99817 3.80351,18.69055 1.26783,8.69237 2.53568,19.37045 3.8035,30.08301 1.26784,10.71257 2.53568,21.40042 3.80351,30.35624 1.26783,8.95582 2.53568,16.13745 3.8035,20.79679 1.26784,4.65934 2.53567,6.79048 3.80352,6.79253 1.26782,0.002 2.53566,-2.0969 3.8035,-5.12804 1.26783,-3.03115 2.53567,-6.95255 3.80351,-10.50693 1.26783,-3.55438 2.53566,-6.71048 3.80351,-8.7187 1.26783,-2.0082 2.53566,-2.86254 3.8035,-2.54418 1.26784,0.31837 2.53566,1.79222 3.8035,3.90085 1.26784,2.10862 2.53567,4.8264 3.8035,7.50815 1.26785,2.68173 2.53568,5.30995 3.80351,7.47797 1.26784,2.16804 2.53568,3.87454 3.8035,5.07519 1.26785,1.20064 2.53568,1.90647 3.80351,2.31437 1.26784,0.40788 2.53568,0.53048 3.80351,0.58265 1.26783,0.0521 2.53567,0.0387 3.80351,0.0387 1.26782,0 2.53567,0.009 3.8035,-0.031 1.26783,-0.0395 2.53567,-0.1362 3.80351,-0.36828 1.26783,-0.23209 2.535665,-0.60541 3.803501,-1.10637 1.267835,-0.50095 2.53567,-1.12765 3.803505,-1.75452 1.267836,-0.62688 2.535671,-1.24628 3.803506,-1.70156 1.267835,-0.45526 2.535671,-0.73908 3.803506,-0.77476 1.267835,-0.0357 2.53567,0.17853 3.803506,0.5856 1.267835,0.40706 2.53567,1.00248 3.803505,1.63655 1.267835,0.63406 2.535671,1.29988 3.803506,1.85527 1.267835,0.55539 2.535671,0.9962 3.803506,1.27183 1.267835,0.27563 2.53567,0.38717 3.803505,0.38728 1.267835,1.1e-4 2.535671,-0.10648 3.803506,-0.22265 1.267835,-0.11618 2.535671,-0.23763 3.803506,-0.30003 1.267835,-0.0624 2.53567,-0.0651 3.803505,-0.0138 1.267835,0.0513 2.535671,0.15372 3.803506,0.25479 1.267836,0.10109 2.535671,0.19711 3.803506,0.24513 1.267835,0.048 2.53567,0.0467 3.803505,8.7e-4 1.267836,-0.0453 2.535671,-0.13272 3.803507,-0.21709 1.267835,-0.0843 2.53567,-0.16231 3.803505,-0.19412 1.267835,-0.0318 2.53567,-0.0157 3.803505,0.0425 1.267836,0.0582 2.535672,0.15692 3.803507,0.24423 1.267835,0.0873 2.53567,0.15955 3.803505,0.15963 1.267835,7e-5 2.53567,-0.075 3.803505,-0.23831 1.267836,-0.16326 2.535672,-0.41466 3.803507,-0.70565 1.267835,-0.29099 2.53567,-0.61852 3.803505,-0.90178 1.267835,-0.28327 2.5356709,-0.51843 3.8035059,-0.6466 1.2678352,-0.12816 2.5356704,-0.14748 3.8035056,-0.0591 1.2678352,0.0883 2.5356706,0.28309 3.8035058,0.52815 1.26783527,0.24508 2.5356705,0.53736 3.8035057,0.8081 1.2678355,0.27073 2.5356706,0.51755 3.8035058,0.70397 1.2678351,0.1864 2.5356702,0.31254 3.8035052,0.3882 1.267835,0.0756 2.535671,0.10308 3.803507,0.1144 1.267835,0.0112 2.53567,0.009 3.803505,0.009"
       title="(cos(x*6)+cos(5*x)+cos(4*x)+cos(3*x)+cos(2*x)+cos(7*x))**2"
       id="path3975" />
    <path
       id="path4174"
       title="cos(7*x)"
       d="m -359.08633,451.30597 c 1.26961,-3e-4 2.53922,-0.29771 3.80883,-0.86384 1.26961,-0.56612 2.53922,-1.40116 3.80883,-2.42378 1.26961,-1.02262 2.53921,-2.23258 3.80882,-3.51316 1.26961,-1.28059 2.53922,-2.63056 3.80883,-3.92048 1.26961,-1.28993 2.53922,-2.51781 3.80883,-3.56665 1.26961,-1.04883 2.53922,-1.91624 3.80883,-2.52034 1.26961,-0.60412 2.53922,-0.94265 3.80883,-0.98475 1.26961,-0.0421 2.53921,0.21397 3.80882,0.74205 1.26961,0.52807 2.53922,1.32904 3.80883,2.32477 1.26961,0.99574 2.53922,2.18608 3.80883,3.45615 1.26961,1.27008 2.53922,2.61871 3.80883,3.91654 1.26961,1.29783 2.53922,2.5429 3.80883,3.61652 1.26961,1.07362 2.53921,1.97342 3.80882,2.61439 1.26961,0.64096 2.53922,1.02079 3.80883,1.10466 1.26961,0.0839 2.53922,-0.13001 3.80883,-0.61952 1.26961,-0.48951 2.53922,-1.25558 3.80883,-2.22342 1.26961,-0.96785 2.53922,-2.13738 3.80883,-3.39566 1.2696,-1.25829 2.53921,-2.60422 3.80882,-3.90864 1.26961,-1.30443 2.53922,-2.56545 3.80883,-3.66277 1.26961,-1.09733 2.53922,-2.02861 3.80883,-2.70578 1.26961,-0.67718 2.53922,-1.09792 3.80883,-1.22348 1.26961,-0.12555 2.53922,0.0459 3.80883,0.49637 1.2696,0.45044 2.53921,1.18085 3.80882,2.11984 1.26961,0.93898 2.53922,2.08652 3.80883,3.33174 1.26961,1.24523 2.53922,2.5871 3.80883,3.89682 1.26961,1.30971 2.53922,2.5854 3.80883,3.70532 1.26961,1.11993 2.53922,2.08175 3.80883,2.79445 1.2696,0.7127 2.53921,1.17394 3.80882,1.34106 1.26961,0.16711 2.53922,0.0382 3.80883,-0.37272 1.26961,-0.41092 2.53922,-1.10494 3.80883,-2.01411 1.26961,-0.90918 2.53922,-2.03357 3.80883,-3.26448 1.26961,-1.23092 2.53922,-2.56739 3.80883,-3.88107 1.2696,-1.31367 2.53921,-2.60274 3.80882,-3.74414 1.26961,-1.1414 2.53922,-2.1328 3.80883,-2.88032 1.26961,-0.74751 2.53922,-1.24877 3.80883,-1.45728 1.26961,-0.2085 2.53922,-0.12229 3.80883,0.24869 1.26961,0.37099 2.53922,1.02791 3.80883,1.90637 1.2696,0.87844 2.53921,1.97856 3.80882,3.19392 1.26961,1.21537 2.53922,2.54508 3.80883,3.86141 1.26961,1.31632 2.53922,2.61748 3.80883,3.77919 1.26961,1.16173 2.53922,2.18171 3.80883,2.96328 1.26961,0.78157 2.53922,1.32235 3.80883,1.57204 1.2696,0.24968 2.53921,0.20627 3.80882,-0.12441 1.26961,-0.33068 2.53922,-0.94985 3.80883,-1.79669 1.26961,-0.84685 2.53922,-1.92157 3.80883,-3.12017 1.26961,-1.19858 2.53922,-2.52021 3.80883,-3.83785 1.26961,-1.31764 2.53922,-2.62957 3.80883,-3.81045 1.2696,-1.18086 2.53921,-2.2284 3.80882,-3.04325 1.26961,-0.81484 2.53922,-1.39459 3.80883,-1.68521 1.26961,-0.29061 2.53922,-0.29004 3.80883,0 1.26961,0.29004 2.53922,0.87084 3.80883,1.68521 1.26961,0.81439 2.53922,1.86264 3.80882,3.04325 1.26961,1.18061 2.53922,2.49282 3.80883,3.81045 1.26961,1.31763 2.53922,2.63903 3.80883,3.83785 1.26961,1.19884 2.53922,2.27288 3.80883,3.12017 1.26961,0.84729 2.53922,1.46544 3.80883,1.79669 1.26961,0.33125 2.53922,0.37352 3.80882,0.12441 1.26961,-0.24911 2.53922,-0.79095 3.80883,-1.57204 1.26961,-0.7811 2.53922,-1.80183 3.80883,-2.96328 1.26961,-1.16143 2.53922,-2.4629 3.80883,-3.77919 1.26961,-1.3163 2.53922,-2.64581 3.80883,-3.86141 1.26961,-1.21559 2.53922,-2.31504 3.80882,-3.19392 1.26961,-0.87889 2.53922,-1.53482 3.80883,-1.90637 1.26961,-0.37155 2.53922,-0.45661 3.80883,-0.24869 1.26961,0.20793 2.53922,0.71026 3.80883,1.45728 1.26961,0.74704 2.53922,1.73922 3.80883,2.88032 1.26961,1.1411 2.53922,2.43051 3.80882,3.74414 1.26961,1.31364 2.53922,2.64994 3.80883,3.88107 1.269612,1.23112 2.539221,2.35488 3.808831,3.26448 1.269609,0.9096 2.539218,1.60263 3.808828,2.01411 1.269609,0.41148 2.539218,0.53924 3.808828,0.37272 1.269609,-0.16653 2.539218,-0.62884 3.808828,-1.34106 1.269609,-0.71221 2.539218,-1.67484 3.808828,-2.79445 1.269609,-1.11962 2.539218,-2.39567 3.808828,-3.70532 1.269609,-1.30965 2.539218,-2.6514 3.808827,-3.89682 1.26961,-1.24542 2.539219,-2.39235 3.808828,-3.33174 1.26961,-0.9394 2.539219,-1.66885 3.808828,-2.11984 1.26961,-0.45099 2.539219,-0.62134 3.808828,-0.49637 1.26961,0.12498 2.539219,0.5468 3.808828,1.22348 1.26961,0.67667 2.539219,1.60878 3.808828,2.70578 1.26961,1.097 2.539219,2.35842 3.808828,3.66277 1.26961,1.30434 2.539219,2.65018 3.808828,3.90864 1.26961,1.25845 2.539219,2.42742 3.808828,3.39566 1.26961,0.96825 2.539219,1.73337 3.808828,2.22342 1.26961,0.49005 2.539219,0.70281 3.808828,0.61952 1.26961,-0.0833 2.539219,-0.46421 3.808828,-1.10466 1.26961,-0.64046 2.539219,-1.54111 3.808828,-2.61439 1.26961,-1.07328 2.539219,-2.31879 3.808828,-3.61652 1.26961,-1.29773 2.539219,-2.6463 3.808828,-3.91654 1.26961,-1.27022 2.539219,-2.46003 3.808828,-3.45615 1.26961,-0.99612 2.539219,-1.79616 3.808828,-2.32477 1.269609,-0.52862 2.5392188,-0.78357 3.8088281,-0.74205 1.2696094,0.0416 2.5392187,0.38115 3.808828,0.98475 1.2696093,0.60359 2.5392187,1.47187 3.808828,2.52034 1.26960933,1.04848 2.5392187,2.27684 3.808828,3.56665 1.2696093,1.2898 2.5392186,2.63976 3.808828,3.92048 1.2696093,1.28072 2.5392186,2.49017 3.8088279,3.51316 1.269609,1.023 2.539219,1.85714 3.808828,2.42378 1.269609,0.56666 2.539219,0.86354 3.808828,0.86384"
       style="opacity:1;fill:none;fill-opacity:1;fill-rule:nonzero;stroke:#ec9b00;stroke-width:1.875;stroke-linecap:round;stroke-linejoin:round;stroke-miterlimit:4;stroke-dasharray:none;stroke-dashoffset:0;stroke-opacity:1"
       inkscape:connector-curvature="0" />
    <text
       xml:space="preserve"
       style="font-style:normal;font-weight:normal;font-size:35.00172424px;line-height:1.25;font-family:sans-serif;letter-spacing:0px;word-spacing:0px;fill:#000000;fill-opacity:1;stroke:none;stroke-width:0.93749988"
       x="-374.33456"
       y="338.60184"
       id="text583"
       transform="scale(1.0713756,0.93337952)"><tspan
         sodipodi:role="line"
         id="tspan581"
         x="-374.33456"
         y="338.60184"
         style="font-size:23.33448601px;stroke-width:0.93749988">a)</tspan></text>
    <text
       xml:space="preserve"
       style="font-style:normal;font-weight:normal;font-size:35.00172043px;line-height:1.25;font-family:sans-serif;letter-spacing:0px;word-spacing:0px;fill:#000000;fill-opacity:1;stroke:none;stroke-width:0.93749988"
       x="44.354038"
       y="338.60184"
       id="text583-3"
       transform="scale(1.0713756,0.93337952)"><tspan
         sodipodi:role="line"
         id="tspan581-5"
         x="44.354038"
         y="338.60184"
         style="font-size:23.33448601px;stroke-width:0.93749988">b)</tspan></text>
    <flowRoot
       xml:space="preserve"
       id="flowRoot1014"
       style="font-style:normal;font-weight:normal;font-size:40px;line-height:1.25;font-family:sans-serif;letter-spacing:0px;word-spacing:0px;fill:#000000;fill-opacity:1;stroke:none"
       transform="matrix(0.93749994,0,0,0.93749994,-361.19832,311.05674)"><flowRegion
         id="flowRegion1016"><rect
           id="rect1018"
           width="641.13275"
           height="445.16812"
           x="405.52213"
           y="-48.085999" /></flowRegion><flowPara
         id="flowPara1020" /></flowRoot>  </g>
</svg>
