<?xml version="1.0" encoding="UTF-8" standalone="no"?>
<!-- Created with Inkscape (http://www.inkscape.org/) -->

<svg
   xmlns:dc="http://purl.org/dc/elements/1.1/"
   xmlns:cc="http://creativecommons.org/ns#"
   xmlns:rdf="http://www.w3.org/1999/02/22-rdf-syntax-ns#"
   xmlns:svg="http://www.w3.org/2000/svg"
   xmlns="http://www.w3.org/2000/svg"
   xmlns:sodipodi="http://sodipodi.sourceforge.net/DTD/sodipodi-0.dtd"
   xmlns:inkscape="http://www.inkscape.org/namespaces/inkscape"
   width="3300.7673"
   height="526.1084"
   id="svg2"
   version="1.1"
   inkscape:version="0.92.5 (2060ec1f9f, 2020-04-08)"
   sodipodi:docname="09_AMFM.svg">
  <defs
     id="defs4">
    <inkscape:path-effect
       effect="spiro"
       id="path-effect3506"
       is_visible="true" />
    <inkscape:path-effect
       effect="spiro"
       id="path-effect4385"
       is_visible="true" />
    <marker
       inkscape:stockid="Arrow1Mend"
       orient="auto"
       refY="0"
       refX="0"
       id="Arrow1Mend"
       style="overflow:visible">
      <path
         id="path3900"
         d="M 0,0 5,-5 -12.5,0 5,5 Z"
         style="fill-rule:evenodd;stroke:#000000;stroke-width:1.00000003pt"
         transform="matrix(-0.4,0,0,-0.4,-4,0)"
         inkscape:connector-curvature="0" />
    </marker>
    <inkscape:path-effect
       effect="spiro"
       id="path-effect3117"
       is_visible="true" />
    <marker
       inkscape:stockid="Arrow1Mend"
       orient="auto"
       refY="0"
       refX="0"
       id="Arrow1Mend-3"
       style="overflow:visible">
      <path
         inkscape:connector-curvature="0"
         id="path3900-6"
         d="M 0,0 5,-5 -12.5,0 5,5 Z"
         style="fill-rule:evenodd;stroke:#000000;stroke-width:1.00000003pt"
         transform="matrix(-0.4,0,0,-0.4,-4,0)" />
    </marker>
    <inkscape:path-effect
       effect="spiro"
       id="path-effect3117-7"
       is_visible="true" />
    <marker
       inkscape:stockid="Arrow1Mend"
       orient="auto"
       refY="0"
       refX="0"
       id="Arrow1Mend-3-6"
       style="overflow:visible">
      <path
         inkscape:connector-curvature="0"
         id="path3900-6-2"
         d="M 0,0 5,-5 -12.5,0 5,5 Z"
         style="fill-rule:evenodd;stroke:#000000;stroke-width:1.00000003pt"
         transform="matrix(-0.4,0,0,-0.4,-4,0)" />
    </marker>
    <inkscape:path-effect
       effect="spiro"
       id="path-effect4385-9"
       is_visible="true" />
    <marker
       inkscape:stockid="Arrow1Mend"
       orient="auto"
       refY="0"
       refX="0"
       id="Arrow1Mend-36"
       style="overflow:visible">
      <path
         id="path3900-7"
         d="M 0,0 5,-5 -12.5,0 5,5 Z"
         style="fill-rule:evenodd;stroke:#000000;stroke-width:1.00000003pt"
         transform="matrix(-0.4,0,0,-0.4,-4,0)"
         inkscape:connector-curvature="0" />
    </marker>
    <inkscape:path-effect
       effect="spiro"
       id="path-effect3117-5"
       is_visible="true" />
    <marker
       inkscape:stockid="Arrow1Mend"
       orient="auto"
       refY="0"
       refX="0"
       id="Arrow1Mend-3-3"
       style="overflow:visible">
      <path
         inkscape:connector-curvature="0"
         id="path3900-6-5"
         d="M 0,0 5,-5 -12.5,0 5,5 Z"
         style="fill-rule:evenodd;stroke:#000000;stroke-width:1.00000003pt"
         transform="matrix(-0.4,0,0,-0.4,-4,0)" />
    </marker>
    <inkscape:path-effect
       effect="spiro"
       id="path-effect4385-6"
       is_visible="true" />
    <marker
       inkscape:stockid="Arrow1Mend"
       orient="auto"
       refY="0"
       refX="0"
       id="Arrow1Mend-3-3-6"
       style="overflow:visible">
      <path
         inkscape:connector-curvature="0"
         id="path3900-6-5-2"
         d="M 0,0 5,-5 -12.5,0 5,5 Z"
         style="fill-rule:evenodd;stroke:#000000;stroke-width:1.00000003pt"
         transform="matrix(-0.4,0,0,-0.4,-4,0)" />
    </marker>
    <inkscape:path-effect
       effect="spiro"
       id="path-effect3506-6"
       is_visible="true" />
    <marker
       inkscape:stockid="Arrow1Mend"
       orient="auto"
       refY="0"
       refX="0"
       id="Arrow1Mend-3-1"
       style="overflow:visible">
      <path
         inkscape:connector-curvature="0"
         id="path3900-6-8"
         d="M 0,0 5,-5 -12.5,0 5,5 Z"
         style="fill-rule:evenodd;stroke:#000000;stroke-width:1.00000003pt"
         transform="matrix(-0.4,0,0,-0.4,-4,0)" />
    </marker>
    <inkscape:path-effect
       effect="spiro"
       id="path-effect4385-6-7"
       is_visible="true" />
    <marker
       inkscape:stockid="Arrow1Mend"
       orient="auto"
       refY="0"
       refX="0"
       id="Arrow1Mend-9"
       style="overflow:visible">
      <path
         id="path3900-2"
         d="M 0,0 5,-5 -12.5,0 5,5 Z"
         style="fill-rule:evenodd;stroke:#000000;stroke-width:1.00000003pt"
         transform="matrix(-0.4,0,0,-0.4,-4,0)"
         inkscape:connector-curvature="0" />
    </marker>
    <inkscape:path-effect
       effect="spiro"
       id="path-effect3117-5-0"
       is_visible="true" />
    <marker
       inkscape:stockid="Arrow1Mend"
       orient="auto"
       refY="0"
       refX="0"
       id="marker4599"
       style="overflow:visible">
      <path
         inkscape:connector-curvature="0"
         id="path4601"
         d="M 0,0 5,-5 -12.5,0 5,5 Z"
         style="fill-rule:evenodd;stroke:#000000;stroke-width:1.00000003pt"
         transform="matrix(-0.4,0,0,-0.4,-4,0)" />
    </marker>
    <inkscape:path-effect
       effect="spiro"
       id="path-effect4385-2"
       is_visible="true" />
    <marker
       inkscape:stockid="Arrow1Mend"
       orient="auto"
       refY="0"
       refX="0"
       id="marker4604"
       style="overflow:visible">
      <path
         id="path4606"
         d="M 0,0 5,-5 -12.5,0 5,5 Z"
         style="fill-rule:evenodd;stroke:#000000;stroke-width:1.00000003pt"
         transform="matrix(-0.4,0,0,-0.4,-4,0)"
         inkscape:connector-curvature="0" />
    </marker>
    <inkscape:path-effect
       effect="spiro"
       id="path-effect3117-3"
       is_visible="true" />
    <marker
       inkscape:stockid="Arrow1Mend"
       orient="auto"
       refY="0"
       refX="0"
       id="Arrow1Mend-367"
       style="overflow:visible">
      <path
         id="path3900-5"
         d="M 0,0 5,-5 -12.5,0 5,5 Z"
         style="fill-rule:evenodd;stroke:#000000;stroke-width:1.00000003pt"
         transform="matrix(-0.4,0,0,-0.4,-4,0)"
         inkscape:connector-curvature="0" />
    </marker>
    <inkscape:path-effect
       effect="spiro"
       id="path-effect3117-35"
       is_visible="true" />
    <marker
       inkscape:stockid="Arrow1Mend"
       orient="auto"
       refY="0"
       refX="0"
       id="Arrow1Mend-3-62"
       style="overflow:visible">
      <path
         inkscape:connector-curvature="0"
         id="path3900-6-9"
         d="M 0,0 5,-5 -12.5,0 5,5 Z"
         style="fill-rule:evenodd;stroke:#000000;stroke-width:1.00000003pt"
         transform="matrix(-0.4,0,0,-0.4,-4,0)" />
    </marker>
    <inkscape:path-effect
       effect="spiro"
       id="path-effect4385-1"
       is_visible="true" />
  </defs>
  <sodipodi:namedview
     id="base"
     pagecolor="#ffffff"
     bordercolor="#666666"
     borderopacity="1.0"
     inkscape:pageopacity="0.0"
     inkscape:pageshadow="2"
     inkscape:zoom="0.39588312"
     inkscape:cx="1380.4001"
     inkscape:cy="-79.202121"
     inkscape:document-units="px"
     inkscape:current-layer="layer1"
     showgrid="false"
     fit-margin-top="0"
     fit-margin-left="0"
     fit-margin-right="0"
     fit-margin-bottom="0"
     inkscape:window-width="1917"
     inkscape:window-height="947"
     inkscape:window-x="1"
     inkscape:window-y="51"
     inkscape:window-maximized="0" />
  <metadata
     id="metadata7">
    <rdf:RDF>
      <cc:Work
         rdf:about="">
        <dc:format>image/svg+xml</dc:format>
        <dc:type
           rdf:resource="http://purl.org/dc/dcmitype/StillImage" />
        <dc:title></dc:title>
      </cc:Work>
    </rdf:RDF>
  </metadata>
  <g
     inkscape:label="Layer 1"
     inkscape:groupmode="layer"
     id="layer1"
     transform="translate(986.39215,-700.44904)">
    <path
       style="fill:none;stroke:#000000;stroke-width:4.97114658;stroke-linecap:butt;stroke-linejoin:miter;stroke-miterlimit:4;stroke-dasharray:none;stroke-opacity:1;marker-end:url(#Arrow1Mend)"
       d="M -858.74916,1016.8661 H 603.82364"
       id="path3115"
       inkscape:path-effect="#path-effect3117"
       inkscape:original-d="M -858.74916,1016.8661 H 603.82364"
       inkscape:connector-curvature="0"
       sodipodi:nodetypes="cc" />
    <path
       style="fill:none;stroke:#000000;stroke-width:4.97114658;stroke-linecap:butt;stroke-linejoin:miter;stroke-miterlimit:4;stroke-dasharray:none;stroke-opacity:1;marker-end:url(#Arrow1Mend-3)"
       d="M -856.32276,1019.1522 V 715.0845"
       id="path4383"
       inkscape:path-effect="#path-effect4385"
       inkscape:original-d="M -856.32276,1019.1522 V 715.0845"
       inkscape:connector-curvature="0"
       sodipodi:nodetypes="cc" />
    <path
       style="fill:none;stroke:#000000;stroke-width:4.97114658;stroke-linecap:butt;stroke-linejoin:miter;stroke-miterlimit:4;stroke-dasharray:none;stroke-opacity:1;marker-end:url(#Arrow1Mend)"
       d="M 739.04424,1016.8661 H 2201.617"
       id="path3115-7"
       inkscape:path-effect="#path-effect3117-35"
       inkscape:original-d="M 739.04424,1016.8661 H 2201.617"
       inkscape:connector-curvature="0"
       sodipodi:nodetypes="cc" />
    <path
       style="fill:none;stroke:#000000;stroke-width:4.97114658;stroke-linecap:butt;stroke-linejoin:miter;stroke-miterlimit:4;stroke-dasharray:none;stroke-opacity:1;marker-end:url(#Arrow1Mend-3)"
       d="M 741.47064,1019.1522 V 715.0845"
       id="path4383-0"
       inkscape:path-effect="#path-effect4385-1"
       inkscape:original-d="M 741.47064,1019.1522 V 715.0845"
       inkscape:connector-curvature="0"
       sodipodi:nodetypes="cc" />
    <path
       style="fill:none;fill-opacity:1;stroke:#d40000;stroke-width:5;stroke-linecap:butt;stroke-linejoin:miter;stroke-miterlimit:4;stroke-dasharray:none;stroke-opacity:1"
       inkscape:connector-curvature="0"
       id="path12-7"
       d="m 741.19938,1013.7005 1.37282,-20.36646 1.37261,-20.16718 1.3728,-19.7701 1.37264,-19.17838 1.37279,-18.39706 1.37244,-17.43173 1.37281,-16.29074 1.37263,-14.98309 1.37279,-13.51956 1.3728,-11.91235 1.37264,-10.17524 1.37281,-8.323 1.37243,-6.37166 1.37279,-4.33902 1.37262,-2.24343 1.37282,-0.10451 1.37261,2.05739 1.37282,4.22064 1.3728,6.36369 1.37243,8.46391 1.37281,10.49845 1.37261,12.44481 1.37282,14.28011 1.37262,15.98163 1.37279,17.5278 1.37264,18.89744 1.37261,20.07044 1.37282,21.02837 1.37261,21.75399 1.37281,22.23274 1.37263,22.4513 1.37279,22.3997 1.37263,22.0708 1.37281,21.4595 1.37244,20.5657 1.37281,19.3914 1.3728,17.9435 1.37261,16.2322 1.3728,14.2715 1.37264,12.0806 1.3728,9.6816 1.37244,7.1014 1.3728,4.3709 1.37262,1.5241 1.37282,-1.401 1.3728,-4.364 1.37262,-7.3209 1.37281,-10.2264 1.37243,-13.0347 1.37281,-15.6967 1.37261,-18.1659 1.37282,-20.396 1.37263,-22.3418 1.37278,-23.9612 1.37283,-25.2167 1.37242,-26.0738 1.37281,-26.5053 1.37263,-26.48874 1.37279,-26.01064 1.37263,-25.06391 1.37281,-23.65112 1.37244,-21.78358 1.37281,-19.48169 1.3728,-16.77577 1.37263,-13.70534 1.3728,-10.31875 1.37261,-6.67311 1.37281,-2.83359 1.37244,1.12836 1.3728,5.13596 1.37262,9.1074 1.37281,12.9596 1.3728,16.60777 1.37262,19.96921 1.3728,22.96392 1.37262,25.51771 1.37263,27.56329 1.3726,29.04279 1.37283,29.90943 1.37263,30.1292 1.37279,29.6823 1.37281,28.5637 1.37262,26.7845 1.37283,24.3726 1.3724,21.3707 1.37281,17.8384 1.37264,13.8498 1.3728,9.4917 1.37262,4.8626 1.37281,0.07 1.37281,-4.77 1.37244,-9.5407 1.3728,-14.1225 1.37262,-18.3985 1.3728,-22.258 1.37261,-25.5979 1.37282,-28.328 1.37244,-30.3718 1.37281,-31.6696 1.3728,-32.181 1.37263,-31.88561 1.3728,-30.78373 1.37263,-28.89762 1.37279,-26.27089 1.37244,-22.96644 1.37281,-19.0668 1.37261,-14.67038 1.37281,-9.8898 1.37282,-4.84879 1.37262,0.3221 1.37281,5.4879 1.37243,10.51355 1.3728,15.26824 1.37262,19.62786 1.37281,23.47995 1.37263,26.72507 1.3728,29.28119 1.3728,31.085 1.37245,32.0935 1.3728,32.2857 1.37263,31.662 1.3728,30.2448 1.37261,28.077 1.37281,25.2213 1.37262,21.7574 1.37281,17.779 1.37263,13.3932 1.37261,8.715 1.3728,3.8647 1.37263,-1.0346 1.3728,-5.8618 1.37263,-10.4996 1.3728,-14.8386 1.37244,-18.7792 1.37279,-22.235 1.37281,-25.1325 1.37263,-27.4158 1.37281,-29.0439 1.37261,-29.9942 1.37281,-30.2607 1.37244,-29.85372 1.3728,-28.7996 1.37263,-27.13877 1.3728,-24.9241 1.37281,-22.21999 1.37262,-19.09889 1.3728,-15.64013 1.37244,-11.92739 1.37282,-8.04653 1.37262,-4.08315 1.3728,-0.12135 1.3726,3.75903 1.37282,7.48359 1.3728,10.98433 1.37244,14.20164 1.37281,17.08458 1.37263,19.59143 1.37279,21.69065 1.37264,23.35971 1.37281,24.58672 1.37243,25.36777 1.37279,25.70877 1.37281,25.6229 1.37263,25.1311 1.37281,24.2592 1.37262,23.0403 1.37281,21.5095 1.37261,19.7067 1.37262,17.6733 1.37262,15.4518 1.37281,13.0855 1.37281,10.6168 1.3726,8.0871 1.37282,5.5357 1.37264,2.9992 1.37279,0.5125 1.37247,-1.8945 1.37276,-4.1937 1.37266,-6.3615 1.37276,-8.3782 1.37277,-10.2275 1.37265,-11.8959 1.37267,-13.3752 1.37256,-14.6591 1.37267,-15.7449 1.37286,-16.6326 1.37268,-17.3247 1.37256,-17.8267 1.37303,-18.1449 1.3726,-18.2883 1.3726,-18.2671 1.3726,-18.0917 1.3728,-17.7747 1.3727,-17.32859 1.3727,-16.76607 1.3727,-16.10035 1.3726,-15.34471 1.3726,-14.51154 1.3729,-13.61358 1.3726,-12.66294 1.3729,-11.67082 1.3726,-10.6483 1.3727,-9.60526 1.3725,-8.55106 1.3728,-7.49448 1.3726,-6.44293 1.3728,-5.40358 1.3728,-4.38277 1.3727,-3.38549 1.3727,-2.41685 1.3725,-1.48052 1.3728,-0.58007 1.3728,0.28216 1.3726,1.1037 1.3726,1.88336 1.3729,2.61978 1.3728,3.31235 1.3725,3.96117 1.3728,4.56592 1.3726,5.12736 1.3729,5.64598 1.3723,6.12286 1.3729,6.55902 1.3726,6.95559 1.3728,7.31456 1.3729,7.6366 1.3725,7.92406 1.3728,8.17791 1.3725,8.40027 1.3728,8.59245 1.3726,8.75643 1.3729,8.89359 1.3723,9.00546 1.373,9.09386 1.3727,9.15994 1.3728,9.20519 1.3726,9.23127 1.3725,9.23893 1.373,9.22968 1.3724,9.20466 1.3729,9.1647 1.3725,9.1107 1.3729,9.0438 1.3728,8.9644 1.3725,8.8734 1.3728,8.7713 1.3726,8.6587 1.3727,8.536 1.3726,8.4033 1.373,8.2612 1.3725,8.1098 1.3729,7.9494 1.3726,7.7794 1.3727,7.6007 1.3726,7.4127 1.3727,7.2153 1.3727,7.0085 1.3727,6.7922 1.3728,6.566 1.3727,6.3292 1.3725,6.0823 1.3728,5.8244 1.3727,5.5553 1.3727,5.2745 1.3726,4.9817 1.3729,4.6767 1.3727,4.3586 1.3727,4.0274 1.3725,3.6826 1.3727,3.324 1.3728,2.9509 1.3726,2.5637 1.3729,2.1614 1.3727,1.7446 1.3728,1.3124 1.3722,0.8656 1.373,0.4038 1.3725,-0.073 1.3729,-0.5635 1.3728,-1.0681 1.3726,-1.5866 1.3729,-2.1171 1.3723,-2.66 1.3728,-3.2136 1.3726,-3.7769 1.3728,-4.3481 1.3728,-4.9264 1.3728,-5.5094 1.3729,-6.0954 1.3723,-6.6822 1.3728,-7.2672 1.3725,-7.8479 1.3729,-8.4222 1.3726,-8.9855 1.3728,-9.5357 1.3724,-10.0691 1.3729,-10.5824 1.3728,-11.0714 1.3725,-11.5321 1.3729,-11.9605 1.3725,-12.3529 1.373,-12.7044 1.3723,-13.011 1.373,-13.2682 1.3724,-13.4722 1.3729,-13.6182 1.3728,-13.70238 1.3726,-13.72105 1.3728,-13.67003 1.3726,-13.54649 1.3729,-13.34683 1.3724,-13.0685 1.3728,-12.70945 1.3727,-12.26772 1.3728,-11.74222 1.3727,-11.13245 1.3726,-10.43849 1.3728,-9.66117 1.3725,-8.80222 1.3728,-7.8637 1.3726,-6.84943 1.3729,-5.76302 1.3726,-4.60968 1.3728,-3.39543 1.3727,-2.12678 1.3724,-0.81151 1.3729,0.54195 1.3727,1.92447 1.3728,3.32566 1.3726,4.73526 1.3726,6.14181 1.3726,7.5334 1.3727,8.89788 1.3729,10.22287 1.3727,11.4955 1.3726,12.70304 1.3727,13.83304 1.3728,14.873 1.3724,15.81114 1.3728,16.63578 1.3726,17.33635 1.3729,17.90328 1.3728,18.32746 1.3725,18.60096 1.3729,18.7188 1.3723,18.674 1.373,18.4649 1.3725,18.0891 1.373,17.5466 1.3725,16.8389 1.3728,15.9699 1.3728,14.9444 1.3726,13.7697 1.3727,12.455 1.3725,11.0104 1.3728,9.448 1.3727,7.782 1.3728,6.0269 1.3727,4.1993 1.3726,2.3169 1.3729,0.3974 1.3725,-1.5402 1.3728,-3.4755 1.3725,-5.3903 1.3729,-7.264 1.3725,-9.0771 1.3729,-10.8108 1.3725,-12.4462 1.3729,-13.9667 1.3727,-15.3549 1.3725,-16.5963 1.3731,-17.677 1.3723,-18.5851 1.3731,-19.3103 1.3722,-19.8448 1.373,-20.1814 1.3725,-20.317 1.3727,-20.24866 1.3728,-19.97729 1.3727,-19.5047 1.3728,-18.83567 1.3725,-17.97634 1.3727,-16.93573 1.3728,-15.72406 1.3728,-14.35352 1.3724,-12.83809 1.3728,-11.19307 1.3729,-9.43521 1.3724,-7.58235 1.3729,-5.65301 1.3726,-3.66702 1.3729,-1.64418 1.3725,0.39517 1.3727,2.4306 1.3728,4.44167 1.3726,6.40849 1.3728,8.31139 1.3726,10.13162 1.3728,11.85113 1.3727,13.45293 1.3727,14.92123 1.3727,16.24151 1.3727,17.4008 1.3725,18.38768 1.3727,19.19205 1.3728,19.80605 1.3727,20.22306 1.3728,20.43902 1.3727,20.4509 1.3727,20.2579 1.3725,19.8614 1.3727,19.2643 1.3727,18.4712 1.3727,17.4894 1.3731,16.3265 1.3724,14.9931 1.3731,13.5005 1.3721,11.8629 1.3729,10.0941 1.3725,8.2108 1.3728,6.23 1.3729,4.1705 1.3727,2.0515 1.3729,-0.1061 1.3722,-2.2819 1.3729,-4.4533 1.3726,-6.5988 1.3728,-8.6958 1.3727,-10.7217 1.3729,-12.6538 1.3723,-14.4705 1.3728,-16.1497 1.373,-17.6702 1.3723,-19.0124 1.3729,-20.1568 1.3726,-21.0859 1.373,-21.7836 1.3723,-22.2354 1.3728,-22.4294 1.3726,-22.35549 1.3727,-22.00623 1.3731,-21.37742 1.3724,-20.46714 1.3728,-19.27733 1.3727,-17.81349 1.3726,-16.08411 1.3726,-14.10254 1.3728,-11.88509 1.3726,-9.4529 1.3729,-6.83089 1.3727,-4.04847 1.3729,-1.13847 1.3725,1.86182 1.3725,4.9112 1.3728,7.96597 1.3729,10.97821 1.3727,13.89881 1.3725,16.67564 1.3727,19.25603 1.3731,21.58691 1.3722,23.61551 1.373,25.29128 1.3725,26.56595 1.3729,27.39554 1.3725,27.7422 1.3727,27.5726 1.3725,26.864 1.3728,25.602 1.373,23.7823 1.3727,21.4137 1.3727,18.5169 1.3727,15.1272 1.3725,11.2936 1.3725,7.0794 1.3728,2.5634 1.3727,-2.1624 1.3728,-6.9939 1.3729,-11.815 1.3725,-16.5003 1.3727,-20.9193 1.3724,-24.9371 1.3729,-28.4205 1.3729,-31.2405 1.3725,-33.2785 1.3729,-34.4296 1.3725,-34.609 1.3731,-33.75575 1.3721,-31.83843 1.3729,-28.85833 1.3727,-24.85369 1.3729,-19.90133 1.3725,-14.11818 1.3729,-7.66078 1.3727,-0.7228 1.3728,6.4682 1.3726,13.6579 1.3725,20.57159 1.3729,26.92521 1.3725,32.43594 1.3729,36.83495 1.3725,39.88086 1.3729,41.37364 1.3725,41.1677 1.3726,39.1836 1.3728,35.4188 1.3727,29.9543 1.3727,22.9591 1.3727,14.6884 1.3727,5.4785 1.3727,-4.2621 1.3728,-14.0715 1.3724,-23.4512 1.373,-31.8946 1.3725,-38.9101 1.3729,-44.0554 1.3727,-46.9647 1.3725,-47.37511 1.373,-45.15496 1.3724,-40.3176 1.3729,-33.03464 1.3725,-23.63687 1.3729,-12.60446 1.3724,-0.54696 1.3728,11.82576 1.3729,23.74552 1.3727,34.43135 1.3724,43.14352 1.3728,49.23614 1.3727,52.20871 1.373,51.7516 1.3724,47.7789 1.3729,40.4492 1.3727,30.168 1.3727,17.5737 1.3725,3.5001 1.3729,-11.0728 1.3727,-25.0879 1.3725,-37.488 1.3728,-47.2971 1.3728,-53.7034 1.3727,-56.12961 1.3726,-54.28971 1.3728,-48.22719 1.3727,-38.32285 1.3728,-25.27859 1.3723,-10.07191 1.3727,6.11536 1.3729,21.98862 1.3727,36.24588 1.3728,47.68806 1.3727,55.32424 1.3727,58.4625 1.3724,56.7779 1.3727,50.3493 1.373,39.6627 1.3726,25.5764 1.3727,9.2545 1.3728,-7.931 1.3723,-24.5178 1.3728,-39.0797 1.3729,-50.3555 1.3724,-57.3603 1.3731,-59.47685 1.3726,-56.51109 1.3729,-48.71302 1.3722,-36.7539 1.3729,-21.66802 1.3725,-4.75953 1.3729,12.5134 1.3728,28.66916 1.3728,42.33351 1.3727,52.35889 1.3725,57.92395 1.3728,58.5997 1.3727,54.3811 1.3726,45.68 1.3728,33.2802 1.3728,18.263 1.3727,1.9058 1.3725,-14.4307 1.3727,-29.4208 1.3725,-41.8844 1.3729,-50.8786 1.3728,-55.7698 1.3727,-56.27239 1.3728,-52.45792 1.3726,-44.7342 1.3728,-33.79794 1.3723,-20.56454 1.3729,-6.08654 1.3725,8.5361 1.373,22.24277 1.3726,34.09029 1.3729,43.31661 1.3727,49.38657 1.3725,52.01509 1.3727,51.1713 1.3728,47.0638 1.3726,40.1072 1.3727,30.8772 1.3728,20.0616 1.3723,8.401 1.3729,-3.3615 1.3729,-14.5306 1.3728,-24.4988 1.3726,-32.778 1.3725,-39.0146 1.3729,-43.0037 1.3723,-44.6816 1.373,-44.11792 1.3726,-41.49567 1.3729,-37.08956 1.3726,-31.23992 1.3726,-24.32639 1.3728,-16.74276 1.3726,-8.87455 1.3727,-1.07966 1.3727,6.32649 1.3728,13.08095 1.3726,18.97997 1.3729,23.88075 1.3721,27.69944 1.3729,30.40752 1.373,32.02492 1.3725,32.61197 1.3729,32.26152 1.3725,31.0892 1.373,29.2255 1.3727,26.8084 1.3725,23.9752 1.3728,20.8597 1.3726,17.5847 1.3729,14.261 1.3724,10.9845 1.373,7.835 1.3725,4.8766 1.3728,2.1581 1.3728,-0.2863 1.3726,-2.4362 1.3726,-4.2813 1.3727,-5.8222 1.3728,-7.0662 1.3727,-8.0278 1.3728,-8.7255 1.3722,-9.1804 3.962,-116.5974 1.3726,-9.4575 1.3729,-59.89503 1.3728,-9.05007 1.3725,-63.06191 1.3727,-8.13829 c 3.9908,-30.66667 0.142,-57.06808 8.158,-83.85625 0.685,-2.24366 1.7021,-4.45945 2.7456,-6.67617 l 1.3724,-2.06405 1.3728,-1.20581 1.3726,-0.34722 1.3728,0.50743 1.3727,1.35425 1.3727,2.18875 c 1.1532,2.2526 1.9235,4.53241 2.7453,6.8095 8.8139,27.80999 5.6277,58.4144 5.5692,83.0705 l 1.3727,7.74448 1.3726,62.59221 1.3726,8.51494 1.3727,59.31174 1.3728,8.8509 -1.2164,116.0022 1.3729,8.6391 1.3726,8.2928 1.3728,7.7686 1.3727,7.0562 1.3726,6.1468 1.373,5.0346 1.3722,3.7181 1.3729,2.1998 1.3726,0.4869 1.3729,-1.4078 1.3725,-3.4652 1.3729,-5.66 1.3724,-7.9617 1.3728,-10.3315 1.3726,-12.7264 1.3729,-15.0972 1.3728,-17.3903 1.3725,-19.5491 1.373,-21.514 1.3723,-23.2265 1.3729,-24.6284 1.3726,-25.6647 1.3727,-26.2866 1.3727,-26.45239 1.3727,-26.12948 1.373,-25.29623 1.3723,-23.94409 1.3729,-22.07773 1.3726,-19.71685 1.3728,-16.89504 1.3726,-13.66085 1.3728,-10.0763 1.3725,-6.21524 1.3727,-2.16193 1.3727,1.99116 1.3729,6.14714 1.3728,10.2061 1.3726,14.07003 1.3727,17.64459 1.3726,20.84289 1.3728,23.5881 1.3726,25.81624 1.3727,27.47778 1.3726,28.53945 1.3728,28.98455 1.3728,28.8143 1.3726,28.0467 1.3726,26.7141 1.3727,24.8652 1.3728,22.5593 1.3729,19.8668 1.3725,16.8644 1.3728,13.6335 1.3726,10.2575 1.3727,6.8188 1.3725,3.3961 1.3729,0.063 1.3726,-3.1151 1.3728,-6.0814 1.3728,-8.7879 1.3727,-11.1979 1.3726,-13.2859 1.3726,-15.0359 1.3727,-16.4414 1.3728,-17.5059 1.3726,-18.2407 1.3728,-18.663 1.3726,-18.797 1.3728,-18.6695 1.3725,-18.3116 1.3729,-17.7551 1.3725,-17.0328 1.3729,-16.17746 1.3727,-15.21943 c 4.0411,-42.21455 6.9009,-86.35498 9.6087,-124.31562 l 1.3729,-6.74076 1.3726,-5.80648 1.3728,-4.9212 1.3725,-4.0834 1.3727,-3.28888 1.3727,-2.53192 1.3728,-1.80436 1.3727,-1.09719 1.3728,-0.39961 1.3727,0.30009 1.3726,1.01398 1.3727,1.75496 1.3726,2.53569 1.3727,3.36864 1.3728,4.26542 1.3728,5.23644 1.3728,6.29016 c 1.4789,54.19659 7.1712,97.4869 10.9813,145.94815 l 1.3728,18.91668 1.3727,20.2516 1.3726,21.394 1.3728,22.2652 1.3728,22.7804 1.3725,22.847 1.3727,22.3709 1.3726,21.2611 1.3729,19.4338 1.3726,16.8222 1.3728,13.3821 1.3727,9.1033 1.3726,4.0164 1.3726,-1.7963 1.3727,-8.1937 1.3728,-14.9725 1.3727,-21.8623 1.3729,-28.5327 1.3726,-34.5986 1.3725,-39.6391 1.3728,-43.219 1.3726,-44.91954 1.3728,-44.37711 1.3728,-41.32131 1.3727,-35.6207 1.3726,-27.32064 1.3727,-16.67706 1.3725,-4.17491 1.3729,9.47029 1.3726,23.33622 1.373,36.34193 1.3726,47.32476 1.3728,55.14345 1.3726,58.79612 1.3725,57.5513 1.3727,51.069 1.3727,39.5014 1.3728,23.5525 1.3728,4.4821 1.3726,-15.9607 1.3728,-35.6756 1.3725,-52.4178 1.3727,-64.0582 1.3728,-68.86937 1.3726,-65.79984 1.3729,-54.69578 1.3726,-36.42915 1.3729,-12.89626 1.3723,13.13349 1.3727,38.31673 1.3728,59.1603 1.3728,72.52068 1.3728,76.1063 1.3727,68.9069 1.3727,51.4629 1.3725,25.9148 1.3727,-4.2031 1.3728,-34.4225 1.3727,-59.9978 1.3725,-76.6704 1.3729,-81.41403 1.3724,-73.03046 1.3728,-52.46811 1.3728,-22.78902 1.3727,11.24692 1.3729,43.92748 1.3725,69.55744 1.3728,83.47958 1.3725,82.9649 1.3728,67.7883 1.3726,40.3702 1.3729,5.4251 1.3727,-30.8379 1.3726,-61.8239 1.3727,-81.7795 1.3726,-86.89532 1.3729,-76.06496 1.3725,-51.14941 1.3729,-16.67133 1.3724,21.00691 1.3731,54.87359 1.3723,78.59643 1.3729,87.73109 1.3727,80.5727 1.3727,58.4801 1.3727,25.6085 1.3726,-11.8898 1.3727,-47.0455 1.3728,-73.3899 1.3727,-86.1622 1.3725,-83.17215 1.3729,-65.15415 1.3727,-35.57294 1.3726,0.0801 1.3728,35.34338 1.3727,63.98163 1.3727,81.10012 1.3727,83.96861 1.3726,72.4215 1.3728,48.7834 1.3727,17.358 1.3727,-16.3976 1.3726,-46.8564 1.3729,-69.169 1.3724,-80.0242 1.3728,-78.10019 1.3726,-64.15975 1.3728,-40.79542 1.3728,-11.90624 1.3725,17.9938 1.3729,44.50292 1.3725,63.97989 1.3727,74.01929 1.3727,73.6972 1.3728,63.58 1.3727,45.5162 1.3727,22.2688 1.3728,-2.936 1.3727,-26.8764 1.3729,-46.748 1.3722,-60.4728 1.3729,-66.8754 1.3725,-65.73117 1.373,-57.68221 1.3725,-44.06581 1.3729,-26.68342 1.3725,-7.54599 1.3727,11.36561 1.3728,28.30346 1.3725,41.89913 1.373,51.24776 1.3726,55.93134 1.3728,55.9899 1.3725,51.8492 1.3728,44.2289 1.3726,34.0318 1.3726,22.2432 1.3729,9.8323 1.3727,-2.3189 1.3728,-13.4721 1.3724,-23.0645 1.3729,-30.7196 1.3727,-36.242 1.3726,-39.6001 1.3727,-40.8959 1.3728,-40.33679 1.3728,-38.20083 1.3724,-34.80645 1.3728,-30.48425 1.3726,-25.55686 1.373,-20.3198 1.3725,-15.03179 1.3728,-9.90733 1.3728,-5.11389 1.3724,-0.77431 1.3728,3.0316 1.3727,6.26049 1.3727,8.90055 1.3728,10.96507 1.3726,12.48554 1.3728,13.50702 1.3726,14.08319 1.3727,14.27054 1.3726,14.12758 1.3729,13.70965 c 6.5732,71.11345 7.5286,142.82327 8.236,208.51677 2.3601,57.8434 3.5743,53.0964 4.1184,79.8557 l 1.3726,3.1182 1.3727,1.9096 1.3725,0.7094 1.3727,-0.48 1.3727,-1.658 1.3728,-2.8226 c 1.3494,-25.7689 3.816,-25.0899 4.1182,-78.4955 3.7018,-71.1475 1.7636,-135.1664 8.2361,-202.45061 l 1.3725,-12.32009 1.3726,-12.7342 1.373,-12.95765 1.3725,-12.96022 1.373,-12.71241 1.3725,-12.1853 1.3728,-11.35269 1.3728,-10.19286 1.3724,-8.68948 1.3728,-6.83431 1.3727,-4.62824 1.3728,-2.08393 1.3726,0.77416 1.3728,3.90644 1.3727,7.25929 1.3725,10.76395 1.3728,14.33678 1.3727,17.88073 1.3728,21.28758 1.3726,24.43985 1.3728,27.21535 1.3726,29.49132 1.3728,31.14964 1.3725,32.082 1.3729,32.1965 1.3725,31.4221 1.3727,29.7159"
       sodipodi:nodetypes="ccccccccccccccccccccccccccccccccccccccccccccccccccccccccccccccccccccccccccccccccccccccccccccccccccccccccccccccccccccccccccccccccccccccccccccccccccccccccccccccccccccccccccccccccccccccccccccccccccccccccccccccccccccccccccccccccccccccccccccccccccccccccccccccccccccccccccccccccccccccccccccccccccccccccccccccccccccccccccccccccccccccccccccccccccccccccccccccccccccccccccccccccccccccccccccccccccccccccccccccccccccccccccccccccccccccccccccccccccccccccccccccccccccccccccccccccccccccccccccccccccccccccccccccccccccccccccccccccccccccccccccccccccccccccccccccccccccccccccccccccccccccccccccccccccccccccccccccccccccccccccccccccccccccccccccccccccccccccccccccccccccccccccccccccccccccccccccccccccccccccccccccccccccccccccccccccccccccccccccccccccccccccccccccccccccccccccccccccccccccccccccccccccccccccccccccccccccccccccccccccccccccccccccccccccccccccccccccccccccccccccccccccccccccccccccccccccccccccccccccccccccccccccccccccccccccccccccccccccccccccccccccccccccccccccccccccccccccccccccccccccc" />
    <g
       id="g3130"
       style="fill:none;stroke:#d40000;stroke-width:2.88185024;stroke-linecap:butt;stroke-linejoin:miter;stroke-miterlimit:4;stroke-dasharray:none;stroke-opacity:1"
       transform="matrix(2.2593453,0,0,-1.3323386,-1056.7468,1410.3712)">
      <path
         inkscape:connector-curvature="0"
         id="path3132"
         d="m 89.244,297.48 0.7147,16.5156 0.7146,15.567 0.7147,13.7242 0.7147,11.0932 0.7146,7.8249 0.7147,4.1072 0.7147,0.1536 0.7146,-3.8087 0.7147,-7.5525 0.7147,-10.8622 0.7146,-13.5483 0.7147,-15.456 0.7147,-16.4761 0.7146,-16.5497 0.7147,-15.6729 0.7147,-13.8959 0.7146,-11.3206 0.7147,-8.0952 0.7147,-4.4049 0.7146,-0.4613 0.7147,3.5086 0.7147,7.2772 0.7146,10.6278 0.7147,13.3682 0.7147,15.3407 0.7146,16.4324 0.7147,16.5802 0.7147,15.7758 0.7146,14.0653 0.7147,11.547 0.7147,8.3654 0.7146,4.7032 0.7147,0.7705 0.7147,-3.2065 0.7146,-6.9998 0.7147,-10.3914 0.7147,-13.1865 0.7146,-15.2245 0.7147,-16.3886 0.7147,-16.6116 0.7146,-15.8806 0.7147,-14.2376 0.7147,-11.7767 0.7146,-8.6391 0.7147,-5.005 0.7147,-1.0827 0.7146,2.9025 0.7147,6.7219 0.7147,10.1561 0.7146,13.0079 0.7147,15.1135 0.7147,16.3518 0.7146,16.6514 0.7147,15.9951 0.7147,14.4201 0.7146,12.0165 0.7147,8.9221 0.7147,5.3142 0.7146,1.3997 0.7147,-2.5967 0.7147,-6.4457 0.7146,-9.9265 0.7147,-12.839 0.7147,-15.0156 0.7146,-16.3314 0.7147,-16.7102 0.7147,-16.1296 0.7146,-14.6227 0.7147,-12.2753 0.7147,-9.2214 0.7146,-5.636 0.7147,-1.7245 0.7147,2.2889 0.7146,6.1742 0.7147,9.708 0.7147,12.6874 0.7146,14.941 0.7147,16.3388 0.7147,16.7998 0.7146,16.2968 0.7147,14.8575 0.7147,12.5637 0.7146,9.5461 0.7147,5.9769 0.7147,2.0606 0.7146,-1.9789 0.7147,-5.9097 0.7147,-9.5064 0.7146,-12.5619 0.7147,-14.9004 0.7147,-16.3867 0.7146,-16.9343 0.7147,-16.5104 0.7147,-15.1379 0.7146,-12.8941 0.7147,-9.9063 0.7147,-6.3445 0.7146,-2.4124 0.7147,1.6653 0.7147,5.6548 0.7146,9.3272 0.7147,12.4712 0.7147,14.9051 0.7146,16.4883 0.7147,17.128 0.7147,16.7855 0.7146,15.4784 0.7147,13.2795 0.7147,10.3129 0.7146,6.7472 0.7147,2.7853 0.7147,-1.3463 0.7146,-5.4111 0.7147,-9.1756 0.7147,-12.4233 0.7146,-14.9661 0.7147,-16.6566 0.7147,-17.395 0.7146,-17.1367 0.7147,-15.8933 0.7147,-13.7332 0.7146,-10.7778 0.7147,-7.1939 0.7147,-3.1854 0.7146,1.0191 0.7147,5.1791 0.7147,9.0557 0.7146,12.4253 0.7147,15.0931 0.7147,16.9032 0.7146,17.7489 0.7147,17.5779 0.7147,16.3963 0.7146,14.2682 0.7147,11.3119 0.7147,7.6939 0.7146,3.6192 0.7147,-0.6802 0.7147,-4.9583 0.7146,-8.9697 0.7147,-12.4828 0.7147,-15.2937 0.7146,-17.2382 0.7147,-18.2005 0.7147,-18.1212 0.7146,-16.9998 0.7147,-14.896 0.7147,-11.926 0.7146,-8.2559 0.7147,-4.0935 0.7147,0.3251 0.7146,4.747 0.7147,8.9185 0.7147,12.5986 0.7146,15.5735 0.7147,17.6685 0.7147,18.7587 0.7146,18.7759 0.7147,17.7135 0.7147,15.6264 0.7146,12.6288 0.7147,8.8881 0.7147,4.6147 0.7146,0.0511 0.7147,-4.542 0.7147,-8.9008 0.7146,-12.7735 0.7147,-15.9345 0.7147,-18.198 0.7146,-19.4283 0.7147,-19.5481 0.7147,-18.5438 0.7146,-16.4662 0.7147,-13.4276 0.7147,-9.5969 0.7146,-5.1889 0.7147,-0.4537 0.7147,4.3388 0.7146,8.9132 0.7147,13.0052 0.7147,16.3758 0.7146,18.8266 0.7147,20.2102 0.7147,20.4396 0.7146,19.4938 0.7147,17.4188 0.7147,14.3263 0.7146,10.3869 0.7147,5.8214 0.7147,0.8879 0.7146,-4.1321 0.7147,-8.9505 0.7147,-13.2883 0.7146,-16.8924 0.7147,-19.55 0.7147,-21.1009 0.7146,-21.4478 0.7147,-20.5615 0.7147,-18.4839 0.7146,-15.3257 0.7147,-11.2604 0.7147,-6.5155 0.7146,-1.3588 0.7147,3.9157 0.7147,9.0052 0.7146,13.615 0.7147,17.4757 0.7147,20.3594 0.7146,22.092 0.7147,22.5648 0.7147,21.7405 0.7146,19.6566 0.7147,16.4228 0.7147,12.2168 0.7146,7.273 0.7147,1.8706 0.7147,-3.683 0.7146,-9.0684 0.7147,-13.9743 0.7147,-18.1136 0.7146,-21.2418 0.7147,-23.1702 0.7147,-23.7779 0.7146,-23.0194 0.7147,-20.927 0.7147,-17.6108 0.7146,-13.252 0.7147,-8.0935 0.7147,-2.4262 0.7146,3.427 0.7147,9.1302 0.7147,14.353 0.7146,18.7904 0.7147,22.1799 0.7147,24.3175 0.7146,25.0695 0.7147,24.3815 0.7147,22.2811 0.7146,18.8783 0.7147,14.3585 0.7147,8.9738 0.7146,3.0275 0.7147,-3.1416 0.7147,-9.1793 0.7146,-14.7362 0.7147,-19.4876 0.7147,-23.1529 0.7146,-25.5115 0.7147,-26.4171 0.7147,-25.8055 0.7146,-23.6998 0.7147,-20.2097 0.7147,-15.5254 0.7146,-9.9081 0.7147,-3.6742 0.7147,2.821 0.7146,9.2046 0.7147,15.1073 0.7147,20.1845 0.7146,24.1365 0.7147,26.7264 0.7147,27.794 0.7146,27.2658 0.7147,25.1598 0.7147,21.5855 0.7146,16.7381 0.7147,10.8876 0.7147,4.3641 0.7146,-2.4607 0.7147,-9.1951 0.7147,-15.4492 0.7146,-20.8587 0.7147,-25.1045 0.7147,-27.933 0.7146,-29.1702 0.7147,-28.7328 0.7147,-26.634 0.7146,-22.9827 0.7147,-17.9786 0.7147,-11.9007 0.7146,-5.0927 0.7147,2.0579 0.7147,9.1402 0.7146,15.7449 0.7147,21.487 0.7147,26.029 0.7146,29.1002 0.7147,30.513 0.7147,30.1745 0.7146,28.0923 0.7147,24.3749 0.7147,19.2259 0.7146,12.9335 0.7147,5.853 0.7147,-1.6114 0.7146,-9.0312 0.7147,-15.9777 0.7147,-22.0465 0.7146,-26.8816 0.7147,-30.1959 0.7147,-31.7884 0.7146,-31.5566 0.7147,-29.5024 0.7147,-25.7335 0.7146,-20.457 0.7147,-13.9688 0.7147,-6.6363 0.7146,1.1222 0.7147,8.8607 0.7147,16.1327 0.7146,22.515 0.7147,27.6345 0.7147,31.1881 0.7146,32.9621 0.7147,32.8442 0.7147,30.8309 0.7146,27.0285 0.7147,21.6468 0.7147,14.9883 0.7146,7.4311 0.7147,-0.5932 0.7147,-8.6238 0.7146,-16.1966 0.7147,-22.8725 0.7147,-28.2615 0.7146,-32.0461 0.7147,-34.0005 0.7147,-34.003 0.7146,-32.0446 0.7147,-28.2293 0.7147,-22.7691 0.7146,-15.9721 0.7147,-8.2247 0.7147,0.03 0.7146,8.3174 0.7147,16.1593 0.7147,23.1014 0.7146,28.7389 0.7147,32.7418 0.7147,34.8722 0.7146,35.0003 0.7147,33.1111 0.7147,29.3062 0.7146,23.7983 0.7147,16.8993 0.7147,9.0026 0.7146,0.5605 0.7147,-7.9417 0.7147,-16.0133 0.7146,-23.1874 0.7147,-29.0471 0.7147,-33.2502 0.7146,-35.5494 0.7147,-35.8064 0.7147,-34.0008 0.7146,-30.2309 0.7147,-24.7092 0.7147,-17.7494 0.7146,-9.7497 0.7147,-1.1691 0.7147,7.499 0.7146,15.7546 0.7147,23.1206 0.7147,29.17 0.7146,33.5514 0.7147,36.0085 0.7147,36.396 0.7146,34.6876 0.7147,30.9784 0.7147,25.4785 0.7146,18.5027 0.7147,10.4506 0.7147,1.7852 0.7146,-6.9946 0.7147,-15.3827 0.7147,-22.895 0.7146,-29.0973 0.7147,-33.6305 0.7147,-36.2315 0.7146,-36.7486 0.7147,-35.1504 0.7147,-31.5271 0.7146,-26.0865 0.7147,-19.1409 0.7147,-11.0902 0.7146,-2.3976 0.7147,6.4358 0.7147,14.9009 0.7146,22.5098 0.7147,28.8237 0.7147,33.4788 0.7146,36.2067 0.7147,36.8503 0.7147,35.3733 0.7146,31.861 0.7147,26.5165 0.7147,19.6489 0.7146,11.6543 0.7147,2.9941 0.7147,-5.832 0.7146,-14.3158 0.7147,-21.9684 0.7147,-28.3501 0.7146,-33.0941 0.7147,-35.9291 0.7147,-36.6941 0.7146,-35.3472 0.7147,-31.9692 0.7147,-26.7571 0.7146,-20.0141 0.7147,-12.1309 0.7147,-3.5631 0.7146,5.1944 0.7147,13.6371 0.7147,21.2794 0.7146,27.6827 0.7147,32.481 0.7147,35.4014 0.7146,36.2797 0.7147,35.0702 0.7147,31.8475 0.7146,26.8019 0.7147,20.2286 0.7147,12.5099 0.7146,4.0933 0.7147,-4.535 0.7147,-12.8775 0.7146,-20.4551 0.7147,-26.834 0.7147,-31.6506 0.7146,-34.6329 0.7147,-35.6152 0.7147,-34.5475 0.7146,-31.4984 0.7147,-26.6504 0.7147,-20.2885 0.7146,-12.7848 0.7147,-4.5748 0.7147,3.8663 0.7146,12.0518 0.7147,19.5123 0.7147,25.8212 0.7146,30.6205 0.7147,33.6406 0.7147,34.7155 0.7146,33.7918 0.7147,30.9316 0.7147,26.308 0.7146,20.1953 0.7147,12.952 0.7147,4.9996 0.7146,-3.2007 0.7147,-11.1766 0.7147,-18.4704 0.7146,-24.6664 0.7147,-29.414 0.7147,-32.4481 0.7146,-33.6031 0.7147,-32.8229 0.7147,-30.1631 0.7146,-25.7867 0.7147,-19.9553 0.7147,-13.0119 0.7146,-5.3622 0.7147,2.5501 0.7147,10.2689 0.7146,17.3517 0.7147,23.3956 0.7147,28.0596 0.7146,31.0845 0.7147,32.3066 0.7147,31.6676 0.7146,29.2159 0.7147,25.1042 0.7147,19.5798 0.7146,12.9692 0.7147,5.6595 0.7147,-1.9249 0.7146,-9.3463 0.7147,-16.18 0.7147,-22.0376 0.7146,-26.5896 0.7147,-29.5842 0.7147,-30.8605 0.7146,-30.3581 0.7147,-28.1186 0.7147,-24.2837 0.7146,-19.0854 0.7147,-12.8323 0.7147,-5.8915 0.7146,1.3336 0.7147,8.4259 0.7147,14.9797 0.7146,20.623 0.7147,25.0395 0.7147,27.9853 0.7146,29.3035 0.7147,28.9316 0.7147,26.9049 0.7146,23.3532 0.7147,18.4929 0.7147,12.6136 0.7146,6.0614 0.7147,-0.7826 0.7147,-7.5233 0.7146,-13.7749 0.7147,-19.1836 0.7147,-23.4461 0.7146,-26.3284 0.7147,-27.6774 0.7147,-27.4291 0.7146,-25.6121 0.7147,-22.3447 0.7147,-17.8269 0.7146,-12.3291 0.7147,-6.1753 0.7147,0.2759 0.7146,6.6522 0.7147,12.589 0.7147,17.75 0.7146,21.847 0.7147,24.655 0.7147,26.0255 0.7146,25.8934 0.7147,24.2803 0.7147,21.2928 0.7146,17.1151 0.7147,11.9976 0.7147,6.2425 0.7146,0.1853 0.7147,-5.8244 0.7147,-11.4427 0.7146,-16.352 0.7147,-20.2783 0.7147,-23.0063 0.7146,-24.3914 0.7147,-24.3678 0.7147,-22.9504 0.7146,-20.2341 0.7147,-16.3869 0.7147,-11.6402 0.7146,-6.2744 0.7147,-0.6024 0.7147,5.0483 0.7146,10.3546 0.7147,15.0167 0.7147,18.774 0.7146,21.421 0.7147,22.8171 0.7147,22.8948 0.7146,21.663 0.7147,19.2046 0.7147,15.6727 0.7146,11.2795 0.7147,6.2846 0.7147,0.9795 0.7146,-4.3299 0.7147,-9.3398 0.7147,-13.7671 0.7146,-17.3647 0.7147,-19.9349 0.7147,-21.3411 0.7146,-21.5143 0.7147,-20.4563 0.7147,-18.2398 0.7146,-15.0022 0.7147,-10.9383 0.7147,-6.2882 0.7146,-1.3226 0.7147,3.6717 0.7147,8.4095 0.7146,12.6228 0.7147,16.0759 0.7147,18.5789 0.7146,19.9978 0.7147,20.2614 0.7147,19.3655 0.7146,17.3717 0.7147,14.4034 0.7147,10.6392 0.7146,6.3005 0.7147,1.64 0.7147,-3.0737 0.7146,-7.571 0.7147,-11.5978 0.7147,-14.928 0.7146,-17.378 0.7147,-18.8152 0.7147,-19.1663 0.7146,-18.4203 0.7147,-16.6284 0.7147,-13.9016 0.7146,-10.4025 0.7147,-6.3369 0.7147,-1.9409 0.7146,2.5326 0.7147,6.8276 0.7147,10.7011 0.7146,13.9351 0.7147,16.3504 0.7147,17.8148 0.7146,18.2519 0.7147,17.6441 0.7147,16.033 0.7146,13.5172 0.7147,10.2464 0.7147,6.4116 0.7146,2.2351 0.7147,-2.0431 0.7147,-6.1784 0.7146,-9.9363 0.7147,-13.1048 0.7147,-15.5069 0.7146,-17.01 0.7147,-17.5336 0.7147,-17.0532 0.7146,-15.6014 0.7147,-13.2661 0.7147,-10.1849 0.7146,-6.5368 0.7147,-2.5326 0.7147,1.598 0.7146,5.619 0.7147,9.3018 0.7147,12.4378 0.7146,14.8507 0.7147,16.406 0.7147,17.018 0.7146,16.6556 0.7147,15.3428 0.7147,13.1576 0.7146,10.2276 0.7147,6.722 0.7147,2.8424 0.7146,-1.1889 0.7147,-5.1415 0.7147,-8.7906 0.7146,-11.9285 0.7147,-14.3775 0.7147,-15.9994 0.7146,-16.7034 0.7147,-16.4509 0.7147,-15.2581 0.7146,-13.1944 0.7147,-10.3789 0.7147,-6.9731 0.7146,-3.1722 0.7147,0.8066 0.7147,4.736 0.7146,8.3915 0.7147,11.565 0.7147,14.075 0.7146,15.7788 0.7147,16.5791 0.7147,16.4301 0.7146,15.3404 0.7147,13.3722 0.7147,10.6375 0.7146,7.2922 0.7147,3.5274 0.7147,-0.4424 0.7146,-4.3899 0.7147,-8.0897 0.7147,-11.33 0.7146,-13.9248 0.7147,-15.7249 0.7147,-16.6261 0.7146,-16.5758 0.7147,-15.575 0.7147,-13.6795 0.7146,-10.9961 0.7147,-7.6769 0.7147,-3.9107 0.7146,0.0878 0.7147,4.0902 0.7147,7.8672 0.7146,11.2019 0.7147,13.9021 0.7147,15.8116 0.7146,16.8185 0.7147,16.8629 0.7147,15.9394 0.7146,14.0981 0.7147,11.4418 0.7147,8.1204 0.7146,4.3223 0.7147,0.2637 0.7147,-3.8232 0.7146,-7.7042 0.7147,-11.1556 0.7147,-13.978 0.7146,-16.0071 0.7147,-17.1237 0.7147,-17.2601 0.7146,-16.405 0.7147,-14.6038 0.7147,-11.9563 0.7146,-8.6114 0.7147,-4.7585 0.7147,-0.6171 0.7146,3.576 0.7147,7.5799 0.7147,11.1639 0.7146,14.12 0.7147,16.276 0.7147,17.5043 0.7146,17.7307 0.7147,16.9378 0.7147,15.1673 0.7146,12.5165 0.7147,9.1347 0.7147,5.213 0.7146,0.9752 0.7147,-3.3366 0.7147,-7.4742 0.7146,-11.1988 0.7147,-14.2943 0.7147,-16.5799 0.7146,-17.9203 0.7147,-18.2346 0.7147,-17.5004 0.7146,-15.7555 0.7147,-13.0962 0.7147,-9.6717 0.7146,-5.6765 0.7147,-1.338 0.7147,3.0952 0.7146,7.3677 0.7147,11.2332 0.7147,14.4669 0.7146,16.8802 0.7147,18.3305 0.7147,18.7307 0.7146,18.0533 0.7147,16.3336 0.7147,13.6663 0.7146,10.2019 0.7147,6.1369 0.7147,1.7036 0.7146,-2.844 0.7147,-7.2437 0.7147,-11.2417 0.7146,-14.6058 0.7147,-17.1399 0.7147,-18.695 0.7146,-19.1781 0.7147,-18.5579 0.7147,-16.8663 0.7146,-14.1979 0.7147,-10.703 0.7147,-6.581 0.7146,-2.0675 0.7147,2.5779 0.7147,7.0882 0.7146,11.2025 0.7147,14.6823 0.7147,17.3255 0.7146,18.9771 0.7147,19.5396 0.7147,18.9776 0.7146,17.3208 0.7147,14.6626 0.7147,11.1535 0.7146,6.9946 0.7147,2.4241 0.7147,-2.2949 0.7146,-6.8908 0.7147,-11.0979 0.7147,-14.673 0.7146,-17.4088 0.7147,-19.146 0.7147,-19.783 0.7146,-19.2812 0.7147,-17.6682 0.7147,-15.0355 0.7146,-11.5338 0.7147,-7.3642 0.7147,-2.7662 0.7146,1.995 0.7147,6.6452 0.7147,10.916 0.7146,14.5608 0.7147,17.3689 0.7147,19.1783 0.7146,19.8839 0.7147,19.4447 0.7147,17.8859 0.7146,15.2973 0.7147,11.8278 0.7147,7.678 0.7146,3.0869 0.7147,-1.6806 0.7147,-6.3493 0.7146,-10.6505 0.7147,-14.336 0.7147,-17.194 0.7146,-19.0601 0.7147,-19.8279 0.7147,-19.4536 0.7146,-17.9604 0.7147,-15.4353 0.7147,-12.0253 0.7146,-7.9277 0.7147,-3.38 0.7147,1.3554 0.7146,6.0052 0.7147,10.3016 0.7147,13.9977 0.7146,16.8818 0.7147,18.7891 0.7147,19.6118 0.7146,19.305 0.7147,17.8886 0.7147,15.4469 0.7146,12.1228 0.7147,8.1102 0.7147,3.6416 0.7146,-1.0241 0.7147,-5.6182 0.7147,-9.8762 0.7146,-13.5537 0.7147,-16.4413 0.7147,-18.3749 0.7146,-19.2464 0.7147,-19.0089 0.7147,-17.6802 0.7146,-15.3399 0.7147,-12.1268 0.7147,-8.2283 0.7146,-3.8716 0.7147,0.6912 0.7147,5.1971 0.4168,5.4749"
         style="stroke:#d40000;stroke-width:2.88185024;stroke-miterlimit:4;stroke-dasharray:none;stroke-opacity:1" />
    </g>
    <g
       id="g87">
      <text
         id="text4358"
         y="1105.8887"
         x="590.47369"
         style="font-style:normal;font-variant:normal;font-weight:normal;font-stretch:normal;line-height:0%;font-family:'Nimbus Sans L';-inkscape-font-specification:Sans;letter-spacing:0px;word-spacing:0px;fill:#000000;fill-opacity:1;stroke:none"
         xml:space="preserve"><tspan
           style="font-size:92.79473877px;line-height:1.25"
           y="1105.8887"
           x="590.47369"
           id="tspan4360"
           sodipodi:role="line">$t$</tspan></text>
      <text
         id="text4358-9"
         y="1105.8887"
         x="2188.2671"
         style="font-style:normal;font-variant:normal;font-weight:normal;font-stretch:normal;line-height:0%;font-family:'Nimbus Sans L';-inkscape-font-specification:Sans;letter-spacing:0px;word-spacing:0px;fill:#000000;fill-opacity:1;stroke:none"
         xml:space="preserve"><tspan
           style="font-size:92.79473877px;line-height:1.25"
           y="1105.8887"
           x="2188.2671"
           id="tspan4360-3"
           sodipodi:role="line">$t$</tspan></text>
      <g
         transform="translate(0,58)"
         id="g72">
        <text
           xml:space="preserve"
           style="font-style:normal;font-variant:normal;font-weight:normal;font-stretch:normal;line-height:0%;font-family:'Nimbus Sans L';-inkscape-font-specification:Sans;letter-spacing:0px;word-spacing:0px;fill:#000000;fill-opacity:1;stroke:none"
           x="-831.64612"
           y="715.41199"
           id="text4571"><tspan
             sodipodi:role="line"
             id="tspan4573"
             x="-831.64612"
             y="715.41199"
             style="font-size:92.79473877px;line-height:1.25">$E(t)$</tspan></text>
        <text
           xml:space="preserve"
           style="font-style:normal;font-variant:normal;font-weight:normal;font-stretch:normal;line-height:0%;font-family:'Nimbus Sans L';-inkscape-font-specification:Sans;letter-spacing:0px;word-spacing:0px;fill:#000000;fill-opacity:1;stroke:none"
           x="766.14728"
           y="715.41199"
           id="text4571-6"><tspan
             sodipodi:role="line"
             id="tspan4573-0"
             x="766.14728"
             y="715.41199"
             style="font-size:92.79473877px;line-height:1.25">$E(t)$</tspan></text>
        <text
           xml:space="preserve"
           style="font-style:normal;font-weight:normal;font-size:40px;line-height:1.25;font-family:sans-serif;letter-spacing:0px;word-spacing:0px;fill:#000000;fill-opacity:1;stroke:none"
           x="-990.2359"
           y="691.07404"
           id="text5423"><tspan
             sodipodi:role="line"
             id="tspan5421"
             x="-990.2359"
             y="691.07404"
             style="font-size:64px">a)</tspan></text>
        <text
           xml:space="preserve"
           style="font-style:normal;font-weight:normal;font-size:40px;line-height:1.25;font-family:sans-serif;letter-spacing:0px;word-spacing:0px;fill:#000000;fill-opacity:1;stroke:none"
           x="618.18457"
           y="691.07404"
           id="text5423-9"><tspan
             sodipodi:role="line"
             id="tspan5421-4"
             x="618.18457"
             y="691.07404"
             style="font-size:64px">b)</tspan></text>
      </g>
    </g>
  </g>
</svg>
