<?xml version="1.0" encoding="UTF-8" standalone="no"?>
<!-- Created with Inkscape (http://www.inkscape.org/) -->

<svg
   xmlns:dc="http://purl.org/dc/elements/1.1/"
   xmlns:cc="http://creativecommons.org/ns#"
   xmlns:rdf="http://www.w3.org/1999/02/22-rdf-syntax-ns#"
   xmlns:svg="http://www.w3.org/2000/svg"
   xmlns="http://www.w3.org/2000/svg"
   xmlns:sodipodi="http://sodipodi.sourceforge.net/DTD/sodipodi-0.dtd"
   xmlns:inkscape="http://www.inkscape.org/namespaces/inkscape"
   version="1.1"
   id="svg2"
   xml:space="preserve"
   width="402.53226"
   height="164.10899"
   viewBox="0 0 402.53226 164.10899"
   sodipodi:docname="09_Fred.svg"
   inkscape:version="0.92.5 (2060ec1f9f, 2020-04-08)"><metadata
     id="metadata8"><rdf:RDF><cc:Work
         rdf:about=""><dc:format>image/svg+xml</dc:format><dc:type
           rdf:resource="http://purl.org/dc/dcmitype/StillImage" /><dc:title></dc:title></cc:Work></rdf:RDF></metadata><defs
     id="defs6" /><sodipodi:namedview
     pagecolor="#ffffff"
     bordercolor="#666666"
     borderopacity="1"
     objecttolerance="10"
     gridtolerance="10"
     guidetolerance="10"
     inkscape:pageopacity="0"
     inkscape:pageshadow="2"
     inkscape:window-width="928"
     inkscape:window-height="812"
     id="namedview4"
     showgrid="false"
     inkscape:zoom="1.1129543"
     inkscape:cx="201.26613"
     inkscape:cy="82.054497"
     inkscape:window-x="949"
     inkscape:window-y="180"
     inkscape:window-maximized="0"
     inkscape:current-layer="g10" /><g
     id="g10"
     inkscape:groupmode="layer"
     inkscape:label="09_Fred"
     transform="matrix(1.3333333,0,0,1.3333333,0,5.4360583e-6)"><path
       d="M 29.141,101.086 H 242.359"
       style="fill:none;stroke:#000000;stroke-width:1.60000002;stroke-linecap:butt;stroke-linejoin:miter;stroke-miterlimit:4;stroke-dasharray:none;stroke-opacity:1"
       id="path16"
       inkscape:connector-curvature="0"
       sodipodi:nodetypes="cc" /><path
       d="m 240.457,101.086 -3.199,3.199 11.199,-3.199 -11.199,-3.199 z"
       style="fill:#000000;fill-opacity:1;fill-rule:evenodd;stroke:#000000;stroke-width:0.853333;stroke-linecap:butt;stroke-linejoin:miter;stroke-miterlimit:4;stroke-dasharray:none;stroke-opacity:1"
       id="path20"
       inkscape:connector-curvature="0" /><path
       d="M 29.934,102.328 V 3.152"
       style="fill:none;stroke:#000000;stroke-width:1.60000002;stroke-linecap:butt;stroke-linejoin:miter;stroke-miterlimit:4;stroke-dasharray:none;stroke-opacity:1"
       id="path24"
       inkscape:connector-curvature="0" /><path
       d="m 29.933999,9.5550026 3.203,3.1990004 L 29.934,1.5550026 26.733999,12.754002 Z"
       style="fill:#000000;fill-opacity:1;fill-rule:evenodd;stroke:#000000;stroke-width:0.853333;stroke-linecap:butt;stroke-linejoin:miter;stroke-miterlimit:4;stroke-dasharray:none;stroke-opacity:1"
       id="path28"
       inkscape:connector-curvature="0" /><path
       d="m 30.664,101.086 h 86.035"
       style="fill:none;stroke:#d40000;stroke-width:2.25;stroke-linecap:butt;stroke-linejoin:miter;stroke-miterlimit:4;stroke-dasharray:none;stroke-opacity:1"
       id="path32"
       inkscape:connector-curvature="0" /><path
       d="m 116.48,93.445 -0.027,13.481"
       style="fill:none;stroke:#000000;stroke-width:1.5;stroke-linecap:butt;stroke-linejoin:miter;stroke-miterlimit:4;stroke-dasharray:none;stroke-opacity:1"
       id="path36"
       inkscape:connector-curvature="0" /><path
       d="m 116.64353,100.852 1.09349,-8.864 1.09254,-3.672 1.09349,-2.82 1.09253,-2.383 1.09349,-2.097 1.09349,-1.899 1.09254,-1.746 1.09349,-1.629 1.09348,-1.531 1.09254,-1.445 1.09349,-1.379 1.09254,-1.321 1.09348,-1.261 1.09349,-1.219 1.09254,-1.176 1.09349,-1.14 1.09349,-1.106 1.09253,-1.07 1.09349,-1.047 1.09637,-1.016 1.09349,-0.992 1.09349,-0.973 1.09253,-0.949 1.09349,-0.929 1.09254,-0.915 1.09349,-0.89 1.09349,-0.879 1.09253,-0.863 1.09349,-0.848 1.09349,-0.832 1.09254,-0.82 1.09349,-0.809 1.09253,-0.797 1.09349,-0.785 1.09349,-0.773 1.09253,-0.762 1.09349,-0.754 1.0935,-0.742 1.09253,-0.735 1.09349,-0.726 1.09253,-0.719 1.09349,-0.707 1.0935,-0.703 1.09253,-0.691 1.09733,-0.688 2.18602,-1.352 1.09349,-0.664 1.09253,-0.66 1.0935,-0.652 1.09349,-0.645 1.09253,-0.64 1.09349,-0.637 1.09253,-0.629 1.0935,-0.625 1.09348,-0.621 1.09254,-0.613 1.09349,-0.61 2.18602,-1.203 2.18603,-1.187 1.09349,-0.586 1.09349,-0.582 1.09253,-0.578 1.09349,-0.575 2.18603,-1.132 1.09348,-0.563 1.09254,-0.558 1.09732,-0.559 1.09349,-0.551 2.18603,-1.094 2.18602,-1.078 1.09349,-0.535 2.18602,-1.062 2.18603,-1.047 2.18602,-1.039 1.09349,-0.516 1.09349,-0.512 2.18603,-1.015 1.09349,-0.504 2.18602,-1 2.18602,-0.992 1.0935,-0.493 2.18602,-0.976 1.09733,-0.485 1.09253,-0.484 1.09349,-0.48 1.09253,-0.477 1.00341,-0.441"
       style="fill:none;stroke:#d40000;stroke-width:2.25;stroke-linecap:butt;stroke-linejoin:miter;stroke-miterlimit:4;stroke-dasharray:none;stroke-opacity:1"
       id="path40"
       inkscape:connector-curvature="0" /><text
       xml:space="preserve"
       style="font-style:normal;font-variant:normal;font-weight:normal;font-stretch:normal;font-size:4.69032955px;line-height:0%;font-family:'Nimbus Sans L';-inkscape-font-specification:Sans;letter-spacing:0px;word-spacing:0px;fill:#000000;fill-opacity:1;stroke:none;stroke-width:0.9374963"
       x="107.93507"
       y="118.49987"
       id="text3033"><tspan
         style="font-size:17.51063347px;line-height:1.25;stroke-width:0.9374963"
         sodipodi:role="line"
         id="tspan3035"
         x="107.93507"
         y="118.49987">$E_c$</tspan></text>
<text
       xml:space="preserve"
       style="font-style:normal;font-variant:normal;font-weight:normal;font-stretch:normal;font-size:4.69032955px;line-height:0%;font-family:'Nimbus Sans L';-inkscape-font-specification:Sans;letter-spacing:0px;word-spacing:0px;fill:#000000;fill-opacity:1;stroke:none;stroke-width:0.9374963"
       x="244.02667"
       y="119.3754"
       id="text3033-3"
       inkscape:transform-center-x="54.247267"><tspan
         style="font-size:17.51063347px;line-height:1.25;stroke-width:0.9374963"
         sodipodi:role="line"
         id="tspan3035-6"
         x="244.02667"
         y="119.3754">$E$</tspan></text>
<text
       xml:space="preserve"
       style="font-style:normal;font-variant:normal;font-weight:normal;font-stretch:normal;font-size:4.69032955px;line-height:0%;font-family:'Nimbus Sans L';-inkscape-font-specification:Sans;letter-spacing:0px;word-spacing:0px;fill:#000000;fill-opacity:1;stroke:none;stroke-width:0.9374963"
       x="38.87141"
       y="17.757946"
       id="text3058"><tspan
         style="font-size:17.51063347px;line-height:1.25;stroke-width:0.9374963"
         sodipodi:role="line"
         id="tspan3060"
         x="38.87141"
         y="17.757946">$a$</tspan></text>
<text
       xml:space="preserve"
       style="font-style:normal;font-variant:normal;font-weight:normal;font-stretch:normal;font-size:4.69032955px;line-height:0%;font-family:'Nimbus Sans L';-inkscape-font-specification:Sans;letter-spacing:0px;word-spacing:0px;fill:#000000;fill-opacity:1;stroke:none;stroke-width:0.9374963"
       x="24.539932"
       y="119.3754"
       id="text3033-7"><tspan
         style="font-size:17.51063347px;line-height:1.25;stroke-width:0.9374963"
         sodipodi:role="line"
         id="tspan3035-5"
         x="24.539932"
         y="119.3754">$0$</tspan></text>
<text
       xml:space="preserve"
       style="font-style:normal;font-variant:normal;font-weight:normal;font-stretch:normal;font-size:4.69032955px;line-height:0%;font-family:'Nimbus Sans L';-inkscape-font-specification:Sans;letter-spacing:0px;word-spacing:0px;fill:#000000;fill-opacity:1;stroke:none;stroke-width:0.9374963"
       x="17.43821"
       y="106.57607"
       id="text3033-7-3"><tspan
         style="font-size:17.51063347px;line-height:1.25;stroke-width:0.9374963"
         sodipodi:role="line"
         id="tspan3035-5-5"
         x="17.43821"
         y="106.57607">$0$</tspan></text>
</g></svg>